<?xml version="1.0" encoding="UTF-8"?>
<svg version="1.1" xmlns="http://www.w3.org/2000/svg" width="512" height="512">
<path d="M0 0 C17.82 0 35.64 0 54 0 C54 11.22 54 22.44 54 34 C56.64 34.33 59.28 34.66 62 35 C71.01337006 37.49041043 79.6020135 40.89703362 88 45 C95.17370891 36.79835109 102.30274892 28.59918945 109 20 C113.08809153 21.68921142 116.1562818 24.55482866 119.4375 27.4375 C120.69238903 28.52640975 121.94760476 29.6149431 123.203125 30.703125 C123.83669922 31.25419922 124.47027344 31.80527344 125.12304688 32.37304688 C127.96011303 34.83223117 130.82080718 37.26296837 133.6875 39.6875 C134.2148877 40.13383789 134.74227539 40.58017578 135.28564453 41.04003906 C140.4747521 45.42010084 145.72748939 49.72070782 151 54 C149.58696787 58.32449942 147.49967612 60.91287813 144.375 64.1875 C139.63475942 69.25845503 135.25602358 74.51947802 131 80 C132.28979121 83.57510089 133.82395184 86.2997323 136.125 89.3125 C140.99033516 96.06251236 144.42525564 103.51624947 148 111 C148.85754883 110.84853516 149.71509766 110.69707031 150.59863281 110.54101562 C153.78875657 109.97922195 156.9793947 109.4204741 160.17041016 108.86376953 C161.54985509 108.62247193 162.9290901 108.37997103 164.30810547 108.13623047 C166.29338504 107.78555023 168.27949708 107.43959317 170.265625 107.09375 C171.45961914 106.88427734 172.65361328 106.67480469 173.88378906 106.45898438 C177 106 177 106 181 106 C182.63124711 114.64853817 184.25567817 123.29829279 185.86808777 131.95036316 C186.60125868 135.88060951 187.34524589 139.80852346 188.1015625 143.734375 C188.38061019 145.21867451 188.659304 146.70304063 188.9375 148.1875 C189.29134766 150.03408203 189.29134766 150.03408203 189.65234375 151.91796875 C189.99542281 154.95942241 189.66747979 157.04803395 189 160 C185.08641574 160.71655029 181.17202369 161.4284924 177.25683594 162.13623047 C175.92587836 162.37748677 174.59514559 162.61998685 173.26464844 162.86376953 C171.3489079 163.21455909 169.43227474 163.56046268 167.515625 163.90625 C166.36352539 164.11572266 165.21142578 164.32519531 164.02441406 164.54101562 C161 165 161 165 157 165 C156.98582031 165.83917969 156.97164063 166.67835938 156.95703125 167.54296875 C156.49931308 179.08488916 153.92306213 189.85371183 151 201 C151.71188477 201.26876953 152.42376953 201.53753906 153.15722656 201.81445312 C158.24704051 203.93710312 162.95565679 206.7881077 167.75 209.5 C168.81605469 210.09425781 169.88210938 210.68851563 170.98046875 211.30078125 C171.99238281 211.87183594 173.00429688 212.44289062 174.046875 213.03125 C175.43664551 213.81338867 175.43664551 213.81338867 176.85449219 214.61132812 C179 216 179 216 180 218 C178.72742906 220.61981597 177.38867243 223.10492844 175.9375 225.625 C175.49720459 226.40246582 175.05690918 227.17993164 174.60327148 227.98095703 C173.07964616 230.6603009 171.54111664 233.33068 170 236 C169.40477539 237.03447266 168.80955078 238.06894531 168.19628906 239.13476562 C166.32374719 242.38466391 164.44491525 245.63081143 162.5625 248.875 C161.95978271 249.91479004 161.35706543 250.95458008 160.73608398 252.02587891 C160.16446533 253.00476074 159.59284668 253.98364258 159.00390625 254.9921875 C158.49674072 255.86214355 157.9895752 256.73209961 157.46704102 257.62841797 C156.08777919 259.85809835 154.60882392 261.9317259 153 264 C149.29249983 262.61957006 146.01165909 260.92394575 142.62109375 258.890625 C141.61755859 258.30152344 140.61402344 257.71242188 139.58007812 257.10546875 C137.47526563 255.86272676 135.3763159 254.61000414 133.28320312 253.34765625 C132.28095703 252.76371094 131.27871094 252.17976562 130.24609375 251.578125 C129.33529053 251.03575195 128.4244873 250.49337891 127.48608398 249.93457031 C125.06653039 248.73114649 125.06653039 248.73114649 122.83422852 249.69604492 C120.17189746 251.58869901 117.84590842 253.80081968 115.5 256.0625 C109.72635118 261.59029289 103.43436049 266.2745207 97 271 C97.33845947 271.89831543 97.67691895 272.79663086 98.02563477 273.72216797 C99.2763355 277.04776873 100.51700518 280.37703604 101.75463867 283.70751953 C102.29226042 285.14995106 102.83261725 286.59136619 103.37573242 288.03173828 C104.15479984 290.09929071 104.92403889 292.17026888 105.69140625 294.2421875 C105.93717911 294.88807831 106.18295197 295.53396912 106.43617249 296.19943237 C107.01584085 297.77940661 107.51543804 299.3883134 108 301 C106.62288498 303.75423004 105.2582759 303.83714788 102.38842773 304.87939453 C101.40748642 305.239617 100.4265451 305.59983948 99.4158783 305.97097778 C97.81589745 306.54608597 97.81589745 306.54608597 96.18359375 307.1328125 C95.0974025 307.52951141 94.01121124 307.92621033 92.8921051 308.33493042 C89.40965028 309.60503364 85.92365908 310.86510417 82.4375 312.125 C80.08114121 312.98241639 77.72501813 313.84048084 75.36914062 314.69921875 C69.58214484 316.80701687 63.79221182 318.90658113 58 321 C54.92619441 318.14953031 53.90635175 315.56238619 52.51953125 311.58203125 C52.30181564 310.96478683 52.08410004 310.34754242 51.85978699 309.71159363 C51.16924689 307.74796006 50.49074921 305.78040846 49.8125 303.8125 C49.34519055 302.47693703 48.87710019 301.14164703 48.40820312 299.80664062 C47.26307158 296.54087402 46.12869954 293.27148735 45 290 C43.68394775 290.00785522 43.68394775 290.00785522 42.34130859 290.01586914 C39.06493463 290.03298097 35.78860865 290.04548412 32.51220703 290.05493164 C31.09813687 290.0599392 29.68407184 290.06674718 28.27001953 290.07543945 C26.22947927 290.08766256 24.18900788 290.0932642 22.1484375 290.09765625 C20.31031494 290.10551147 20.31031494 290.10551147 18.43505859 290.11352539 C15.19567151 290.00646676 12.17816803 289.61478618 9 289 C8.87616943 289.87108398 8.75233887 290.74216797 8.62475586 291.63964844 C8.02390021 294.87144882 7.15230721 297.69119821 6.00390625 300.765625 C5.61009766 301.82007813 5.21628906 302.87453125 4.81054688 303.9609375 C4.39869141 305.04632813 3.98683594 306.13171875 3.5625 307.25 C3.15451172 308.35085938 2.74652344 309.45171875 2.32617188 310.5859375 C1.93107422 311.63523437 1.53597656 312.68453125 1.12890625 313.765625 C0.76869385 314.72243164 0.40848145 315.67923828 0.03735352 316.66503906 C-1 319 -1 319 -3 321 C-9.96594704 318.50766007 -16.92523651 315.99739308 -23.88012695 313.47436523 C-26.24841134 312.61764799 -28.61820621 311.76509462 -30.98950195 310.91674805 C-34.3915636 309.69883131 -37.78796768 308.46619638 -41.18359375 307.23046875 C-42.25024765 306.85222458 -43.31690155 306.47398041 -44.4158783 306.08427429 C-45.88729027 305.54405388 -45.88729027 305.54405388 -47.38842773 304.99291992 C-48.69081642 304.52326057 -48.69081642 304.52326057 -50.01951599 304.04411316 C-52 303 -52 303 -53 300 C-52.1796875 297.24438477 -52.1796875 297.24438477 -50.875 293.94140625 C-50.41609375 292.75095703 -49.9571875 291.56050781 -49.484375 290.33398438 C-48.74328797 288.44563763 -47.99853135 286.55878954 -47.25195312 284.67260742 C-46.53388038 282.84909312 -45.82925778 281.02030041 -45.125 279.19140625 C-44.69445312 278.10029541 -44.26390625 277.00918457 -43.8203125 275.88500977 C-42.99055417 272.96677935 -42.74246352 271.72586509 -44 269 C-46.11785727 267.32103109 -48.18274896 265.84407551 -50.4375 264.375 C-56.39009365 260.35916816 -61.12785719 256.12072033 -65.9140625 250.73828125 C-66.60242188 250.16464844 -67.29078125 249.59101563 -68 249 C-71.6813288 249.40350291 -74.62300984 251.34462057 -77.7890625 253.16015625 C-78.89507812 253.78857422 -80.00109375 254.41699219 -81.140625 255.06445312 C-82.30237026 255.72996813 -83.46382547 256.3959897 -84.625 257.0625 C-86.90612819 258.37083128 -89.19029049 259.67327385 -91.4765625 260.97265625 C-92.48799316 261.55281494 -93.49942383 262.13297363 -94.54150391 262.73071289 C-97 264 -97 264 -99 264 C-99.59518433 262.96782349 -99.59518433 262.96782349 -100.20239258 261.91479492 C-101.39380526 259.84877429 -102.58556926 257.78295624 -103.77758789 255.71728516 C-105.14016159 253.35522657 -106.49970353 250.99145745 -107.85717773 248.62646484 C-111.02503458 243.11350166 -114.21171624 237.61675167 -117.515625 232.18359375 C-118.03406982 231.32161377 -118.55251465 230.45963379 -119.08666992 229.5715332 C-120.05295986 227.96968185 -121.03187539 226.37536306 -122.0246582 224.78979492 C-122.45093506 224.07799072 -122.87721191 223.36618652 -123.31640625 222.6328125 C-123.69224854 222.02324707 -124.06809082 221.41368164 -124.45532227 220.78564453 C-125 219 -125 219 -124.45703125 216.984375 C-122.47606925 214.28644285 -120.31616642 213.19713345 -117.37109375 211.6171875 C-116.25412109 211.00746094 -115.13714844 210.39773437 -113.98632812 209.76953125 C-112.80379533 209.13725358 -111.62084737 208.50575182 -110.4375 207.875 C-108.11976218 206.62939366 -105.80731396 205.37493992 -103.49609375 204.1171875 C-101.95199829 203.29130127 -101.95199829 203.29130127 -100.37670898 202.44873047 C-97.88924598 201.22095962 -97.88924598 201.22095962 -97 199 C-97.55994987 196.42423059 -98.17918405 193.914037 -98.875 191.375 C-100.85698716 184.08948859 -102.1680935 177.10273216 -102.0625 169.5 C-102.05347656 168.6440625 -102.04445312 167.788125 -102.03515625 166.90625 C-102.02355469 166.2771875 -102.01195312 165.648125 -102 165 C-102.95777344 164.89042969 -103.91554688 164.78085938 -104.90234375 164.66796875 C-115.00962802 163.47631378 -124.99482357 161.85739661 -135 160 C-134.53570714 149.64697992 -132.86409255 139.64079513 -130.98876953 129.46655273 C-130.49409711 126.78044689 -130.01001276 124.09258307 -129.52734375 121.40429688 C-129.21675264 119.69259812 -128.90557685 117.98100532 -128.59375 116.26953125 C-128.44893188 115.46755814 -128.30411377 114.66558502 -128.15490723 113.83930969 C-127.11626509 108.23253018 -127.11626509 108.23253018 -126 106 C-118.75391255 106.7238468 -111.6146037 107.83819599 -104.4375 109.0625 C-103.33341797 109.24876953 -102.22933594 109.43503906 -101.09179688 109.62695312 C-98.39414468 110.0824009 -95.69690126 110.54013024 -93 111 C-92.50371094 109.97261719 -92.00742188 108.94523437 -91.49609375 107.88671875 C-87.83903861 100.39872175 -84.08232511 93.17911017 -79.4453125 86.234375 C-78.13308784 84.2057466 -77.0310304 82.18218086 -76 80 C-76.54527344 79.40574219 -77.09054688 78.81148438 -77.65234375 78.19921875 C-82.66785021 72.6864484 -87.47745197 67.05445118 -92.15234375 61.25 C-93.95605161 58.97880251 -93.95605161 58.97880251 -96 57 C-95.84459297 54.14887872 -95.05155359 53.05547845 -93.1015625 50.95703125 C-92.28429687 50.24933594 -91.46703125 49.54164062 -90.625 48.8125 C-89.71492188 48.02101562 -88.80484375 47.22953125 -87.8671875 46.4140625 C-84.27929656 43.39319519 -80.65652847 40.41969607 -77.0078125 37.47265625 C-74.76712139 35.63063356 -72.55922915 33.7694455 -70.3671875 31.87109375 C-69.43567871 31.06442261 -69.43567871 31.06442261 -68.48535156 30.24145508 C-67.2735563 29.18852904 -66.06442763 28.13252369 -64.85839844 27.07299805 C-61.72370669 24.35069442 -58.65764315 22.01375859 -55 20 C-48.68453198 26.76404332 -42.56702592 33.59629678 -36.77734375 40.8203125 C-35.03354816 43.03388959 -35.03354816 43.03388959 -33 45 C-32.48203857 44.7733667 -31.96407715 44.5467334 -31.43041992 44.31323242 C-7.74126944 34 -7.74126944 34 0 34 C0 22.78 0 11.56 0 0 Z M-26.12109375 118.57421875 C-27.88415113 120.98941779 -29.47279419 123.43002463 -31 126 C-31.45890625 126.76570313 -31.9178125 127.53140625 -32.390625 128.3203125 C-40.74834437 143.57566774 -42.46119002 161.16351828 -38.375 177.9375 C-32.79568496 196.08002793 -21.61797719 211.07245593 -4.875 220.3125 C11.49682112 228.83248701 29.38412691 230.54632169 47.11328125 225.3203125 C65.82279546 219.25009384 79.3074822 207.23027362 88.375 189.875 C96.53130311 172.59086737 96.87026679 154.94286401 90.96875 136.8359375 C88.10394784 129.344867 83.96965357 123.25405707 79 117 C78.34644531 116.14921875 77.69289063 115.2984375 77.01953125 114.421875 C66.9232798 102.31418467 50.44471201 94.74813773 35 93 C10.93995579 91.08005708 -10.68982238 99.84639586 -26.12109375 118.57421875 Z " fill="#000000" transform="translate(135,16)"/>
<path d="M0 0 C1.64733759 7.98079085 2.50877547 15.86894139 3 24 C3.71542969 24.03738281 4.43085938 24.07476562 5.16796875 24.11328125 C13.04739969 24.63314021 20.33973499 26.08493375 28 28 C31.96 21.73 35.92 15.46 40 9 C44.02270965 10.00567741 46.43828515 11.32464233 49.9375 13.4921875 C50.49945068 13.83879425 51.06140137 14.185401 51.64038086 14.54251099 C52.82526991 15.27471598 54.00859152 16.0094628 55.19042969 16.74658203 C56.9907278 17.86921801 58.79564421 18.98408865 60.6015625 20.09765625 C70.14548193 26.00627808 70.14548193 26.00627808 74 29 C72.20604048 34.2232965 69.1559779 38.43173229 66.01367188 42.91601562 C63.71528845 46.23161897 63.71528845 46.23161897 62.9609375 50.09765625 C64.44531904 52.81530215 66.29992282 55.0231504 68.3125 57.375 C71.50590062 61.12262717 74.33813189 64.87014512 77 69 C77.58491211 68.81300537 78.16982422 68.62601074 78.77246094 68.43334961 C81.4284091 67.5907893 84.08901785 66.76401718 86.75 65.9375 C87.67039062 65.64294922 88.59078125 65.34839844 89.5390625 65.04492188 C90.42851562 64.77099609 91.31796875 64.49707031 92.234375 64.21484375 C93.05131836 63.95823975 93.86826172 63.70163574 94.70996094 63.43725586 C98.63682647 62.68746736 98.63682647 62.68746736 101 64 C102.15411578 66.52515759 103.00393507 68.82512922 103.796875 71.46484375 C104.0353717 72.21335098 104.27386841 72.96185822 104.51959229 73.73304749 C105.27874162 76.12991839 106.0141498 78.53338667 106.75 80.9375 C107.26025649 82.55449861 107.77195785 84.17104205 108.28515625 85.78710938 C112 97.58510969 112 97.58510969 112 100 C108.54329268 101.17152378 105.08437878 102.33639077 101.625 103.5 C100.64015625 103.83386719 99.6553125 104.16773438 98.640625 104.51171875 C97.69960938 104.82753906 96.75859375 105.14335937 95.7890625 105.46875 C94.91975098 105.76201172 94.05043945 106.05527344 93.15478516 106.35742188 C91 107 91 107 89 107 C89.00523682 107.60996826 89.01047363 108.21993652 89.01586914 108.84838867 C89.03673335 111.62808185 89.04969013 114.40775851 89.0625 117.1875 C89.07087891 118.14720703 89.07925781 119.10691406 89.08789062 120.09570312 C89.09111328 121.02705078 89.09433594 121.95839844 89.09765625 122.91796875 C89.10289307 123.77156982 89.10812988 124.6251709 89.11352539 125.50463867 C88.99579323 128.09246747 88.57107044 130.47661953 88 133 C88.96486328 133.13728516 88.96486328 133.13728516 89.94921875 133.27734375 C94.10291369 134.26125356 97.88886813 135.90161643 101.8125 137.5625 C102.60076172 137.89185547 103.38902344 138.22121094 104.20117188 138.56054688 C106.13583796 139.36958906 108.06815753 140.18423852 110 141 C109.39945991 145.65065311 108.1240051 149.54100358 106.3125 153.859375 C106.04993408 154.48982727 105.78736816 155.12027954 105.5168457 155.76983643 C104.68383897 157.76577255 103.84200062 159.75784388 103 161.75 C102.43432666 163.10262669 101.86921696 164.45548925 101.3046875 165.80859375 C97.26021635 175.47956731 97.26021635 175.47956731 96 178 C89.66929129 175.99527557 83.6595765 173.61438323 77.6015625 170.890625 C74.93614385 169.68436917 74.93614385 169.68436917 72 171 C70.08478103 173.11621578 70.08478103 173.11621578 68.1875 175.6875 C65.76534424 178.83630248 63.4000499 181.668355 60.4375 184.3125 C57.72855956 186.66663089 57.72855956 186.66663089 58.09375 189.19140625 C59.3048356 192.94472757 61.12636294 196.20081287 63.0625 199.625 C67 206.59807692 67 206.59807692 67 210 C62.50186562 212.42900017 57.9994729 214.84983828 53.49291992 217.26318359 C51.96014238 218.08549123 50.42855702 218.91002508 48.89819336 219.73681641 C46.69954343 220.92415864 44.49674456 222.10345519 42.29296875 223.28125 C41.60849167 223.65310425 40.92401459 224.0249585 40.21879578 224.40808105 C35.34161512 227 35.34161512 227 32 227 C30.32666842 223.87852455 28.66248284 220.75226502 27 217.625 C26.52304687 216.73554688 26.04609375 215.84609375 25.5546875 214.9296875 C25.10351562 214.07890625 24.65234375 213.228125 24.1875 212.3515625 C23.76855469 211.56604004 23.34960938 210.78051758 22.91796875 209.97119141 C22 208 22 208 22 206 C21.28457031 206.20496094 20.56914062 206.40992188 19.83203125 206.62109375 C12.16998046 208.69272197 4.9248473 209.56930178 -3 210 C-4.65 217.59 -6.3 225.18 -8 233 C-16.00926883 232.11008124 -23.58399803 230.7497284 -31.4375 229.0625 C-32.71560547 228.79759766 -33.99371094 228.53269531 -35.31054688 228.25976562 C-36.52677734 228.00001953 -37.74300781 227.74027344 -38.99609375 227.47265625 C-40.10138428 227.23812744 -41.2066748 227.00359863 -42.34545898 226.76196289 C-45 226 -45 226 -47 224 C-46.85986328 222.09228516 -46.85986328 222.09228516 -46.3203125 219.7890625 C-46.13339844 218.95632813 -45.94648438 218.12359375 -45.75390625 217.265625 C-45.54636719 216.39421875 -45.33882813 215.5228125 -45.125 214.625 C-44.72817283 212.90968257 -44.33481605 211.19355775 -43.9453125 209.4765625 C-43.76500488 208.71424316 -43.58469727 207.95192383 -43.39892578 207.16650391 C-42.87927394 204.71150979 -42.87927394 204.71150979 -43 201 C-43.86882812 200.55269531 -44.73765625 200.10539063 -45.6328125 199.64453125 C-51.54429668 196.5433164 -57.10827624 193.61219669 -62 189 C-65.95598709 190.70650423 -69.15257834 193.34331615 -72.5 196 C-79.31958763 201.41237113 -79.31958763 201.41237113 -83 203 C-83.59425781 202.22398437 -84.18851562 201.44796875 -84.80078125 200.6484375 C-85.63795621 199.55724208 -86.47520155 198.46610066 -87.3125 197.375 C-87.75529297 196.79685547 -88.19808594 196.21871094 -88.65429688 195.62304688 C-91.08700792 192.45541893 -93.54233422 189.3096735 -96.04296875 186.1953125 C-96.78389771 185.268396 -96.78389771 185.268396 -97.53979492 184.32275391 C-98.49458671 183.13090045 -99.45420322 181.94289197 -100.41918945 180.75927734 C-102.91014845 177.64180857 -104.75183083 174.80124248 -106 171 C-103.54405205 169.01785835 -101.08484507 167.03980247 -98.625 165.0625 C-97.92632812 164.49853516 -97.22765625 163.93457031 -96.5078125 163.35351562 C-95.50234375 162.54624023 -95.50234375 162.54624023 -94.4765625 161.72265625 C-93.85861816 161.22515869 -93.24067383 160.72766113 -92.60400391 160.21508789 C-91 159 -91 159 -89 158 C-89.62676256 153.66489232 -90.65143803 149.66467667 -92 145.5 C-93.34856197 141.33532333 -94.37323744 137.33510768 -95 133 C-95.55945313 133.01160156 -96.11890625 133.02320313 -96.6953125 133.03515625 C-104.16623304 133.11923413 -111.55609286 132.60066109 -119 132 C-119.11839878 118.94516877 -118.91405901 106.0253409 -118 93 C-110.08 93 -102.16 93 -94 93 C-92.15859997 88.05039632 -92.15859997 88.05039632 -90.32104492 83.09936523 C-88.66824064 78.67440612 -86.89362947 74.32748356 -85 70 C-87.08119446 68.06015834 -89.16484547 66.12307706 -91.25 64.1875 C-91.83652344 63.64029297 -92.42304688 63.09308594 -93.02734375 62.52929688 C-95.91536679 59.85219687 -98.77521291 57.27491168 -102 55 C-100.33921535 50.85307107 -97.34015312 47.93291739 -94.3125 44.75 C-93.22452358 43.58923185 -92.13728103 42.42777542 -91.05078125 41.265625 C-90.52564941 40.70552734 -90.00051758 40.14542969 -89.45947266 39.56835938 C-85.10100335 34.88471822 -80.93888176 30.04176865 -77 25 C-72.3045328 26.89624637 -69.01269675 30.57199593 -65.421875 34.01171875 C-61.68499016 37.85977405 -61.68499016 37.85977405 -57 40 C-54.46198914 38.86268381 -52.32898312 37.72144959 -50 36.25 C-48.7712487 35.50452327 -47.54209262 34.75971324 -46.3125 34.015625 C-45.219375 33.35046875 -44.12625 32.6853125 -43 32 C-40.19042535 30.41961426 -39.29063906 30 -36 30 C-36.99 21.75 -37.98 13.5 -39 5 C-34.24989475 4.28454574 -29.49956254 3.57133403 -24.74829102 2.86376953 C-23.13318633 2.62256416 -21.51827427 2.38006523 -19.90356445 2.13623047 C-17.57813564 1.78530342 -15.25204622 1.43908519 -12.92578125 1.09375 C-12.20787918 0.9843811 -11.48997711 0.87501221 -10.75032043 0.7623291 C-7.13592548 0.23050538 -3.65430441 -0.12461396 0 0 Z M-42.1796875 87.59375 C-49.246613 96.93543693 -53.11592997 109.28273535 -52 121 C-49.26679285 136.19154674 -42.45867728 147.69000559 -30 157 C-18.5280896 164.0183438 -6.17547709 166.73577515 6.9375 163.8125 C20.47594492 160.08899867 30.80305749 152.46726119 38.53125 140.65625 C44.39542124 130.05083393 46.68917384 117.33092885 43.78515625 105.46484375 C39.42104496 91.76457398 31.08340014 80.19340202 18.3125 73.25 C-3.88380683 62.87117134 -26.63886538 69.31042985 -42.1796875 87.59375 Z " fill="#000000" transform="translate(360,263)"/>
<path d="M0 0 C10.48177165 1.46257279 20.69460959 3.61738448 31 6 C30.7834375 7.12019531 30.566875 8.24039063 30.34375 9.39453125 C30.06235597 10.86715999 29.78111389 12.33981776 29.5 13.8125 C29.35691406 14.55048828 29.21382813 15.28847656 29.06640625 16.04882812 C28.49073719 19.07794391 28 21.909196 28 25 C28.74765625 25.39832031 29.4953125 25.79664062 30.265625 26.20703125 C31.25046875 26.73683594 32.2353125 27.26664063 33.25 27.8125 C34.22453125 28.33457031 35.1990625 28.85664062 36.203125 29.39453125 C38.63355412 30.78965188 40.80787699 32.26195961 43 34 C47.52131017 32.0219268 50.87192983 28.79440254 54.5625 25.58203125 C57 24 57 24 59.01171875 23.88671875 C62.05537629 25.59092779 63.8104505 28.22515473 65.8125 31 C66.69099681 32.18389768 67.5699055 33.36748983 68.44921875 34.55078125 C68.87895996 35.13553223 69.30870117 35.7202832 69.75146484 36.32275391 C72.02521499 39.37724423 74.43247291 42.32742604 76.8203125 45.29296875 C78 47 78 47 78 49 C76.71484375 50.23681641 76.71484375 50.23681641 74.9375 51.6015625 C74.30585938 52.09140625 73.67421875 52.58125 73.0234375 53.0859375 C72.35570312 53.59382813 71.68796875 54.10171875 71 54.625 C70.33226562 55.140625 69.66453125 55.65625 68.9765625 56.1875 C67.3219811 57.46389136 65.66152632 58.73266232 64 60 C64.3609375 61.03640625 64.721875 62.0728125 65.09375 63.140625 C65.5628193 64.51030736 66.03155166 65.88010514 66.5 67.25 C66.73847656 67.93191406 66.97695313 68.61382812 67.22265625 69.31640625 C68.39421287 72.76413003 69 75.31702904 69 79 C75.27 79 81.54 79 88 79 C88 89.23 88 99.46 88 110 C81.4 110 74.8 110 68 110 C67.34 112.97 66.68 115.94 66 119 C64.9296875 121.84765625 64.9296875 121.84765625 63.875 124.0625 C63.52179688 124.81660156 63.16859375 125.57070312 62.8046875 126.34765625 C62.53914062 126.89292969 62.27359375 127.43820313 62 128 C68.19441396 134.3366069 68.19441396 134.3366069 75 140 C73.75643058 144.55975452 71.24873097 146.93923532 67.94140625 150.1015625 C63.56305721 154.38300643 59.62791771 159.07171419 56 164 C51.67953102 162.58319756 48.99538801 160.46236215 45.6875 157.375 C44.80449219 156.55773437 43.92148437 155.74046875 43.01171875 154.8984375 C42.34785156 154.27195313 41.68398438 153.64546875 41 153 C37.10391502 154.48904175 33.40902982 156.24378713 29.6875 158.125 C27.810625 159.07375 25.93375 160.0225 24 161 C24.66 167.27 25.32 173.54 26 180 C22.14695219 180.67375699 18.29277637 181.33922304 14.4375 182 C13.35146484 182.19078125 12.26542969 182.3815625 11.14648438 182.578125 C5.69086726 183.50674068 0.53547904 184.25413964 -5 184 C-6.7899856 177.6753842 -7.54240047 171.5508985 -8 165 C-8.886875 165.061875 -9.77375 165.12375 -10.6875 165.1875 C-16.5926351 165.22410208 -22.31448468 163.43634071 -28 162 C-28.25523437 162.70511719 -28.51046875 163.41023437 -28.7734375 164.13671875 C-30.11550522 167.2696348 -31.76729867 169.95714425 -33.625 172.8125 C-34.25664062 173.78832031 -34.88828125 174.76414062 -35.5390625 175.76953125 C-36.02117187 176.50558594 -36.50328125 177.24164063 -37 178 C-46.31006751 173.14771905 -55.14244564 167.62349122 -64 162 C-62.56691865 158.04093183 -60.66858051 154.71281819 -58.375 151.1875 C-57.74335938 150.21167969 -57.11171875 149.23585937 -56.4609375 148.23046875 C-55.97882813 147.49441406 -55.49671875 146.75835937 -55 146 C-58.36262426 140.75430616 -62.13564679 135.88471613 -66 131 C-70.17858016 131.87285897 -74.26574187 132.75062931 -78.3125 134.125 C-81 135 -81 135 -85 135 C-86.31157106 131.21359437 -87.61128671 127.42334896 -88.90014648 123.62915039 C-89.34026227 122.33897685 -89.783603 121.04989876 -90.23022461 119.76196289 C-90.87159237 117.91062881 -91.50042604 116.05496741 -92.12890625 114.19921875 C-92.51119385 113.08377686 -92.89348145 111.96833496 -93.28735352 110.8190918 C-94 108 -94 108 -93 105 C-90.50638252 103.95485926 -88.13580564 103.09898584 -85.5625 102.3125 C-84.52125977 101.97508789 -84.52125977 101.97508789 -83.45898438 101.63085938 C-78.33838336 100 -78.33838336 100 -76 100 C-76 93.73 -76 87.46 -76 81 C-78.536875 79.8553125 -78.536875 79.8553125 -81.125 78.6875 C-85.12799683 76.86936466 -89.08933465 75.0081795 -93 73 C-90.35842154 62.92898212 -86.1285413 53.53101572 -82 44 C-76 46 -70 48 -64 50 C-60.04 45.71 -56.08 41.42 -52 37 C-53.49251706 32.52244882 -55.00247052 28.77777506 -57.125 24.625 C-57.66382813 23.56539062 -58.20265625 22.50578125 -58.7578125 21.4140625 C-59.16773438 20.61742188 -59.57765625 19.82078125 -60 19 C-56.35912812 16.97492889 -52.71129514 14.96321815 -49.05639648 12.96362305 C-47.81383183 12.28138931 -46.57325031 11.59553071 -45.3347168 10.90600586 C-43.55504943 9.91603471 -41.76867933 8.93927823 -39.98046875 7.96484375 C-38.37014771 7.07720337 -38.37014771 7.07720337 -36.72729492 6.17163086 C-34 5 -34 5 -31 6 C-29.64391082 8.13431595 -28.46036423 10.19688819 -27.3125 12.4375 C-26.99216797 13.03626953 -26.67183594 13.63503906 -26.34179688 14.25195312 C-24 18.71085421 -24 18.71085421 -24 21 C-23.39414062 20.86722656 -22.78828125 20.73445313 -22.1640625 20.59765625 C-16.11113249 19.32188485 -10.16327688 18.52828088 -4 18 C-2.68 12.06 -1.36 6.12 0 0 Z M-36 73 C-40.86451316 82.42061338 -42.39283825 92.24114698 -39.80859375 102.578125 C-36.05216577 113.82926195 -29.19952842 121.47948739 -18.75 126.9375 C-9.69403654 131.30271114 1.10228745 131.34238388 10.5546875 128.10546875 C21.97002024 122.94486305 29.36734204 114.48013247 34 103 C36.67714145 92.18977062 35.0553935 81.09962788 29.52734375 71.421875 C21.96540631 60.91024565 11.40224474 55.83457771 -1.1484375 53.62109375 C-15.59350685 52.67637402 -27.96623286 61.88454391 -36 73 Z " fill="#000000" transform="translate(424,84)"/>
</svg>
