<?xml version="1.0" encoding="UTF-8"?>
<svg version="1.1" xmlns="http://www.w3.org/2000/svg" width="512" height="512">
<path d="M0 0 C0.77758183 -0.00367669 1.55516366 -0.00735338 2.35630858 -0.01114148 C4.96456601 -0.02216323 7.57278357 -0.02601968 10.18106079 -0.02983093 C12.05053839 -0.03609698 13.92001475 -0.04274391 15.78948975 -0.04974365 C21.93383925 -0.07077877 28.07818898 -0.08114911 34.2225647 -0.09111023 C36.34085732 -0.09515872 38.45914981 -0.09927567 40.57744217 -0.10346031 C50.53536088 -0.12251488 60.49327218 -0.13674243 70.45120561 -0.14507228 C81.92591561 -0.15483033 93.40043197 -0.18111131 104.87507379 -0.22157317 C113.75513154 -0.25180501 122.63513403 -0.26654806 131.51524222 -0.26985329 C136.81309898 -0.27219673 142.11074896 -0.28106422 147.40855026 -0.30631447 C152.4007056 -0.32972244 157.39251989 -0.33377758 162.38471603 -0.32355309 C164.20749043 -0.32306061 166.03028234 -0.32929501 167.85300446 -0.34310913 C190.61228476 -0.50581003 205.94647549 6.92707371 223.3241272 21.14717102 C224.68947672 22.25460289 226.05537491 23.36135859 227.42178345 24.46748352 C230.16890538 26.69352721 232.91212986 28.92423659 235.6522522 31.15888977 C238.53025174 33.50438635 241.42068555 35.83318649 244.3241272 38.14717102 C248.59916391 41.5542892 252.83693748 45.00573909 257.0741272 48.45967102 C261.60868338 52.15567772 266.160572 55.82367062 270.77554321 59.41889954 C273.06910217 61.20672084 275.35147066 63.00846394 277.63174438 64.81318665 C278.76643576 65.70758273 279.90517492 66.59686574 281.04776001 67.4811554 C295.03422015 78.34981699 305.31689043 92.19647781 308.3241272 110.14717102 C308.60526741 114.85705465 308.57691732 119.55711934 308.55117798 124.27412415 C308.55061305 125.69400525 308.55093202 127.11388694 308.55206299 128.5337677 C308.55263431 132.36793429 308.54091597 136.20197448 308.52691507 140.03611183 C308.51437072 144.05062333 308.5132343 148.06513806 308.51086426 152.07966614 C308.50466035 159.6726109 308.48826433 167.26549773 308.46816528 174.85841703 C308.44577231 183.50655561 308.43480432 192.15469702 308.42477441 200.8028574 C308.40389709 218.58432806 308.36874238 236.36574487 308.3241272 254.14717102 C306.55463344 253.82653097 304.78519392 253.50559156 303.01577759 253.18452454 C302.03041519 253.00583328 301.0450528 252.82714203 300.02983093 252.64303589 C298.10365067 252.29003156 296.17981331 251.92413914 294.25772095 251.54951477 C274.49591741 247.8693041 253.27753743 248.18472052 233.8475647 253.56123352 C231.25371519 254.16352056 228.97706231 254.25252223 226.3241272 254.14717102 C226.37053345 253.4227179 226.4169397 252.69826477 226.4647522 251.95185852 C226.69372672 245.81861239 226.69723792 241.87485829 222.3241272 237.14717102 C216.92091083 233.12939475 211.67082328 233.0219764 205.10177612 233.00672913 C204.38514888 233.003758 203.66852163 233.00078688 202.9301784 232.99772573 C200.53446451 232.98907034 198.13880078 232.98753316 195.74307251 232.98603821 C194.02296849 232.9814078 192.30286548 232.97638283 190.58276367 232.97099304 C185.91318328 232.95788855 181.24361725 232.95142789 176.57402134 232.94698238 C173.65473043 232.94404851 170.73544342 232.93994311 167.81615448 232.93547821 C158.67677111 232.92180842 149.5373967 232.91213922 140.39800382 232.90827632 C129.858293 232.9037967 119.31871194 232.88625105 108.77904058 232.85727572 C100.62514839 232.83563964 92.47129266 232.82557101 84.31737208 232.8242352 C79.45064854 232.82318856 74.58404707 232.81731067 69.71735382 232.79941559 C65.13726565 232.78290158 60.55739087 232.78079554 55.97728348 232.7895546 C54.30076907 232.79032319 52.62424302 232.78600579 50.94775772 232.77609634 C38.83760365 232.67645368 38.83760365 232.67645368 27.3241272 236.14717102 C22.73263831 240.85344713 21.96913539 244.21631826 22.0428772 250.60420227 C22.45593964 254.3389752 23.83287052 256.3865893 26.3241272 259.14717102 C31.62677826 263.09016796 36.77815589 263.27126641 43.22740173 263.3053894 C44.25061446 263.31279637 44.25061446 263.31279637 45.29449815 263.32035297 C47.5730082 263.33567242 49.8514902 263.34407346 52.1300354 263.35249329 C53.76622259 263.36207618 55.40240732 263.3720865 57.03858948 263.38249207 C61.47615268 263.40950261 65.91372647 263.43053301 70.35132623 263.45049405 C74.99048809 263.47237737 79.62961743 263.49975458 84.26875305 263.52655029 C93.05172863 263.57644546 101.83472228 263.62139607 110.61773318 263.66457266 C120.61768033 263.71397217 130.61759485 263.76888024 140.61751044 263.82425225 C161.18635229 263.93802354 181.7552253 264.04487315 202.3241272 264.14717102 C199.6300701 266.96610838 196.82376211 268.73357063 193.4491272 270.70967102 C188.69236073 273.57620283 184.12514999 276.60346116 179.6991272 279.95967102 C178.25666626 281.05215149 178.25666626 281.05215149 176.7850647 282.16670227 C174.51425167 283.90791544 173.16829874 285.38382505 171.57553101 287.80273438 C168.22415438 292.31125134 165.22330048 295.47946515 159.59967422 296.77463722 C151.78331647 297.6958354 143.91836423 297.51226767 136.06211233 297.36563873 C132.58836066 297.31337508 129.11485782 297.3265744 125.64080811 297.33320618 C119.06738398 297.33653042 112.49558117 297.28671863 105.92258751 297.21513748 C94.15601232 297.08916333 82.38886486 297.06318705 70.62170231 297.04324627 C66.50010617 297.03427372 62.37930119 297.00505098 58.25796866 296.95797062 C55.08462318 296.92440188 51.91115961 296.90892792 48.73770142 296.88935852 C47.60914734 296.87064194 46.48059326 296.85192535 45.31784058 296.8326416 C38.92943504 296.81233592 33.11359608 297.22247867 27.3241272 300.14717102 C22.73263831 304.85344713 21.96913539 308.21631826 22.0428772 314.60420227 C22.45593964 318.3389752 23.83287052 320.3865893 26.3241272 323.14717102 C32.45248718 327.70415665 39.02538847 327.30790956 46.34683228 327.35249329 C47.85485413 327.36734268 47.85485413 327.36734268 49.39334106 327.38249207 C52.71008972 327.41403167 56.0268527 327.43883473 59.34365845 327.46357727 C61.64580148 327.4841533 63.94794078 327.50514995 66.25007629 327.52655029 C72.30479921 327.58170387 78.35955585 327.63114278 84.41433716 327.67939758 C90.5945841 327.72966162 96.77478217 327.78532209 102.95498657 327.8405304 C115.07799168 327.94802986 127.20103925 328.04949308 139.3241272 328.14717102 C138.55982949 332.3194775 137.2646797 335.81007182 135.5741272 339.70967102 C132.99199028 345.89863971 131.11914051 352.13962554 129.5116272 358.64717102 C129.30505493 359.48320862 129.09848267 360.31924622 128.88565063 361.18061829 C126.99576938 369.10144412 126.17770344 376.66704608 126.22647095 384.79951477 C126.22788589 385.69964798 126.22930084 386.59978119 126.23075867 387.52719116 C126.2363206 390.37971939 126.24886593 393.23216683 126.2616272 396.08467102 C126.26664712 398.02802926 126.27120916 399.97138873 126.27529907 401.91474915 C126.28627754 406.65892052 126.30351567 411.40303211 126.3241272 416.14717102 C109.19035125 416.21742969 92.05662062 416.27024143 74.92273331 416.30260754 C66.96615008 416.31803893 59.00965666 416.33905664 51.0531311 416.37348938 C44.11361081 416.40350645 37.17415559 416.42277307 30.23457217 416.4294365 C26.5642813 416.43332805 22.89417651 416.44239471 19.22394562 416.46436119 C15.11435389 416.48875495 11.00508027 416.48913318 6.89541626 416.48774719 C5.09465889 416.50392593 5.09465889 416.50392593 3.25752258 416.52043152 C-14.79077148 416.45488692 -30.3718799 409.73643985 -43.08602905 397.00263977 C-54.9643159 383.90606709 -59.98880384 368.79149936 -59.94329834 351.42788696 C-59.95009501 349.52028989 -59.95009501 349.52028989 -59.95702899 347.57415551 C-59.96921672 344.06001089 -59.96900353 340.54596178 -59.96664023 337.03180087 C-59.96623099 333.23545988 -59.97728152 329.43914907 -59.98675537 325.64282227 C-60.00334354 318.21062418 -60.00886394 310.77845782 -60.00998013 303.34624276 C-60.01093171 297.30201317 -60.01504754 291.25779402 -60.02138138 285.21356773 C-60.03898847 268.06137238 -60.04822118 250.90920202 -60.04672043 233.75699756 C-60.04664052 232.83299357 -60.04656061 231.90898958 -60.04647827 230.95698547 C-60.04639651 230.03184771 -60.04631475 229.10670995 -60.04623051 228.15353771 C-60.04541794 213.16691059 -60.0645496 198.18038405 -60.092755 183.193786 C-60.12151532 167.79026377 -60.13529354 152.38679054 -60.13356745 136.98324078 C-60.1329046 128.34153983 -60.13835084 119.6999443 -60.15992355 111.05826759 C-60.1781769 103.69933445 -60.18244877 96.34055452 -60.16890471 88.98160849 C-60.16239569 85.2310666 -60.16218234 81.48081828 -60.17961121 77.73030472 C-60.19835925 73.65377452 -60.18573362 69.57791758 -60.17034912 65.50137329 C-60.18063625 64.33072132 -60.19092337 63.16006935 -60.20152223 61.95394307 C-60.0553215 44.34534368 -52.64932929 29.43172615 -40.54696655 16.95185852 C-32.23749655 9.13292968 -22.47564857 4.56039027 -11.6758728 1.14717102 C-10.84878091 0.88065845 -10.84878091 0.88065845 -10.00498009 0.60876179 C-6.67773287 -0.0506439 -3.3779386 -0.00085797 0 0 Z M136.3241272 110.20967102 C132.896969 115.24330962 132.6664406 119.12609654 133.3241272 125.14717102 C135.67205378 130.02363392 138.61173574 132.55054716 143.3241272 135.14717102 C147.11901414 136.13054523 150.71319216 136.28400017 154.62393188 136.30830383 C155.87583313 136.31791138 157.12773437 136.32751892 158.41757202 136.3374176 C159.77704688 136.34226693 161.13652387 136.34654542 162.4960022 136.35029602 C163.53140011 136.35453709 163.53140011 136.35453709 164.58771515 136.35886383 C168.24204385 136.37382087 171.89633344 136.38307178 175.5506897 136.3874054 C179.30405748 136.39287885 183.05706046 136.41689268 186.81031418 136.44537735 C189.71531176 136.46410727 192.62022335 136.46921484 195.52527618 136.47074127 C196.90781901 136.47374602 198.29036111 136.48169993 199.67284393 136.49492645 C212.09345567 136.91181139 212.09345567 136.91181139 222.93466187 131.69508362 C227.01411465 126.96693243 227.68006107 123.74640484 227.60147095 117.68623352 C227.19036276 113.922567 225.8412636 111.92926915 223.3241272 109.14717102 C217.64287359 104.67469477 213.09807572 104.02999873 206.02432251 103.98603821 C204.14647064 103.97162689 204.14647064 103.97162689 202.23068237 103.95692444 C200.87120752 103.95207512 199.51173053 103.94779662 198.1522522 103.94404602 C197.11685429 103.93980495 197.11685429 103.93980495 196.06053925 103.93547821 C192.40621055 103.92052117 188.75192096 103.91127026 185.0975647 103.90693665 C181.34419692 103.9014632 177.59119394 103.87744936 173.83794022 103.84896469 C170.93294264 103.83023477 168.02803104 103.8251272 165.12297821 103.82360077 C163.74043539 103.82059602 162.35789328 103.81264211 160.97541046 103.79941559 C147.38074937 103.39872475 147.38074937 103.39872475 136.3241272 110.20967102 Z M57.3241272 109.14717102 C52.38448148 115.42185612 52.17140205 120.69336818 52.2616272 128.45967102 C52.26613892 129.20023743 52.27065063 129.94080383 52.27529907 130.70381165 C52.28700545 132.51830001 52.30493822 134.33274636 52.3241272 136.14717102 C51.27354126 136.11236633 50.22295532 136.07756165 49.14053345 136.04170227 C36.60601289 135.36120489 36.60601289 135.36120489 25.71084595 140.61201477 C21.62180535 145.32305028 20.96833945 148.55920436 21.04678345 154.60810852 C21.45789164 158.37177504 22.8069908 160.3650729 25.3241272 163.14717102 C31.59881229 168.08681673 36.87032436 168.29989617 44.6366272 168.20967102 C45.3771936 168.2051593 46.11776001 168.20064758 46.88076782 168.19599915 C48.69525618 168.18429277 50.50970254 168.16636 52.3241272 168.14717102 C52.28932251 169.19775696 52.25451782 170.2483429 52.21865845 171.33076477 C51.53816107 183.86528532 51.53816107 183.86528532 56.78897095 194.76045227 C61.50000646 198.84949287 64.73616054 199.50295877 70.7850647 199.42451477 C74.54873122 199.01340658 76.54202907 197.66430742 79.3241272 195.14717102 C84.26377291 188.87248593 84.47685234 183.60097386 84.3866272 175.83467102 C84.38211548 175.09410461 84.37760376 174.35353821 84.37295532 173.5905304 C84.36124895 171.77604203 84.34331618 169.96159568 84.3241272 168.14717102 C85.37471313 168.18197571 86.42529907 168.2167804 87.50772095 168.25263977 C100.0422415 168.93313715 100.0422415 168.93313715 110.93740845 163.68232727 C115.02644905 158.97129176 115.67991495 155.73513768 115.60147095 149.68623352 C115.19036276 145.922567 113.8412636 143.92926915 111.3241272 141.14717102 C105.0494421 136.20752531 99.77793004 135.99444588 92.0116272 136.08467102 C91.27106079 136.08918274 90.53049438 136.09369446 89.76748657 136.0983429 C87.95299821 136.11004927 86.13855185 136.12798204 84.3241272 136.14717102 C84.35893188 135.09658508 84.39373657 134.04599915 84.42959595 132.96357727 C85.11009333 120.42905672 85.11009333 120.42905672 79.85928345 109.53388977 C75.14824794 105.44484917 71.91209386 104.79138327 65.8631897 104.86982727 C62.09952317 105.28093546 60.10622532 106.63003462 57.3241272 109.14717102 Z M136.3241272 174.20967102 C132.896969 179.24330962 132.6664406 183.12609654 133.3241272 189.14717102 C135.67205378 194.02363392 138.61173574 196.55054716 143.3241272 199.14717102 C147.11901414 200.13054523 150.71319216 200.28400017 154.62393188 200.30830383 C155.87583313 200.31791138 157.12773437 200.32751892 158.41757202 200.3374176 C159.77704688 200.34226693 161.13652387 200.34654542 162.4960022 200.35029602 C163.53140011 200.35453709 163.53140011 200.35453709 164.58771515 200.35886383 C168.24204385 200.37382087 171.89633344 200.38307178 175.5506897 200.3874054 C179.30405748 200.39287885 183.05706046 200.41689268 186.81031418 200.44537735 C189.71531176 200.46410727 192.62022335 200.46921484 195.52527618 200.47074127 C196.90781901 200.47374602 198.29036111 200.48169993 199.67284393 200.49492645 C212.09345567 200.91181139 212.09345567 200.91181139 222.93466187 195.69508362 C227.01411465 190.96693243 227.68006107 187.74640484 227.60147095 181.68623352 C227.19036276 177.922567 225.8412636 175.92926915 223.3241272 173.14717102 C217.64287359 168.67469477 213.09807572 168.02999873 206.02432251 167.98603821 C204.14647064 167.97162689 204.14647064 167.97162689 202.23068237 167.95692444 C200.87120752 167.95207512 199.51173053 167.94779662 198.1522522 167.94404602 C197.11685429 167.93980495 197.11685429 167.93980495 196.06053925 167.93547821 C192.40621055 167.92052117 188.75192096 167.91127026 185.0975647 167.90693665 C181.34419692 167.9014632 177.59119394 167.87744936 173.83794022 167.84896469 C170.93294264 167.83023477 168.02803104 167.8251272 165.12297821 167.82360077 C163.74043539 167.82059602 162.35789328 167.81264211 160.97541046 167.79941559 C147.38074937 167.39872475 147.38074937 167.39872475 136.3241272 174.20967102 Z " fill="#000000" transform="translate(99.67587280273438,15.852828979492188)"/>
<path d="M0 0 C10.23906578 7.73254248 18.72711365 17.59665562 20.6875 30.6875 C22.03146937 47.09193916 20.00332961 59.47557901 9.6875 72.6875 C8.68604061 74.01973754 7.68555743 75.35271195 6.6875 76.6875 C7.24147461 76.78546875 7.79544922 76.8834375 8.36621094 76.984375 C14.08614435 78.10849576 18.8332918 79.90043647 23.9375 82.6875 C24.66694824 83.08050293 25.39639648 83.47350586 26.14794922 83.87841797 C49.14177759 96.62374079 66.33659961 117.54322071 73.6875 142.875 C76.02225454 151.16299396 76.91344722 158.9197346 77 167.5 C77.02900391 168.44681641 77.05800781 169.39363281 77.08789062 170.36914062 C77.17391536 179.9840591 74.12656131 186.92692074 67.625 193.9609375 C61.97928167 198.99200101 55.59122618 200.80809894 48.16122437 200.83467102 C47.4953086 200.83834771 46.82939283 200.8420244 46.14329779 200.8458125 C43.90721028 200.85684389 41.67116924 200.86069228 39.43505859 200.86450195 C37.83347425 200.87076714 36.23189136 200.87741399 34.63031006 200.88441467 C29.3655295 200.9054551 24.10074866 200.91581865 18.8359375 200.92578125 C17.0224468 200.92982914 15.20895624 200.93394607 13.39546585 200.93813133 C4.87330829 200.95718481 -3.64884061 200.97141419 -12.17101538 200.9797433 C-22.00104513 200.98950963 -31.83084933 201.01581266 -41.66079962 201.05624419 C-49.2626383 201.08643551 -56.86441245 201.10121513 -64.46630991 201.10452431 C-69.00447303 201.10687183 -73.54239525 201.11579294 -78.08049393 201.14098549 C-82.35363779 201.16432335 -86.62638313 201.16847661 -90.89957428 201.15822411 C-92.46321567 201.15772998 -94.02687705 201.16401393 -95.59045792 201.17778015 C-107.37269504 201.27566302 -115.75956851 199.78323747 -124.5859375 191.625 C-132.72273352 182.49411578 -131.86821156 171.02689447 -131.49609375 159.55078125 C-130.284386 140.65329653 -121.42481747 121.98400586 -109.3125 107.6875 C-108.6215625 106.8625 -107.930625 106.0375 -107.21875 105.1875 C-95.77264317 91.96805267 -80.93064295 82.25364128 -64.3125 76.6875 C-63.3225 76.6875 -62.3325 76.6875 -61.3125 76.6875 C-61.91578125 75.93726563 -62.5190625 75.18703125 -63.140625 74.4140625 C-73.98394854 60.52761268 -76.57195031 48.14390343 -75.3125 30.6875 C-73.1035218 18.31189922 -65.14830247 7.2996288 -55 0.03125 C-38.45853978 -10.51393089 -16.49633036 -10.94823719 0 0 Z " fill="#000000" transform="translate(395.3125,295.3125)"/>
</svg>
