<?xml version="1.0" encoding="UTF-8"?>
<svg version="1.1" xmlns="http://www.w3.org/2000/svg" width="512" height="512">
<path d="M0 0 C0 21.45 0 42.9 0 65 C-4.95 66.65 -9.9 68.3 -15 70 C-18.62428947 71.91629099 -21.71994827 73.65377083 -25 76 C-25.68320312 76.47695313 -26.36640625 76.95390625 -27.0703125 77.4453125 C-36.88920886 85.10790221 -44.00858395 97.80092816 -46 110 C-47.6914973 127.43513733 -43.75234445 141.70372666 -33.8125 156.1875 C-23.13565393 166.86434607 -9.45079049 174.08953704 5.79956055 174.38012695 C17.4129532 174.35519277 27.85060357 173.13650056 37.31640625 165.7578125 C39 165 39 165 40.83013916 165.69174194 C43.40678703 167.24526108 45.27894894 169.03941334 47.40136719 171.17431641 C48.2619574 172.03505768 49.12254761 172.89579895 50.00921631 173.78262329 C50.92914368 174.71287323 51.84907104 175.64312317 52.796875 176.6015625 C53.75479097 177.56321086 54.71315114 178.52441694 55.67193604 179.48519897 C58.18835125 182.00923282 60.69870107 184.53921591 63.20782471 187.07049561 C65.77162441 189.6547919 68.34112918 192.23340199 70.91015625 194.8125 C75.94569457 199.86945697 80.9748456 204.93272256 86 210 C81.08560085 220.70048252 66.19623875 226.4103887 56 231 C54.93007813 231.4846875 53.86015625 231.969375 52.7578125 232.46875 C26.06638948 243.60715553 -5.76136936 243.44788406 -32.8125 233.6875 C-34.88739837 232.8207703 -36.95008521 231.92426888 -39 231 C-40.12664062 230.49726563 -41.25328125 229.99453125 -42.4140625 229.4765625 C-71.81002997 215.59332287 -94.42050411 190.28437978 -106 160 C-113.78585003 136.35852148 -115.44012843 108.96804593 -108 85 C-107.79101074 84.31486328 -107.58202148 83.62972656 -107.36669922 82.92382812 C-97.36819143 51.25814203 -74.55454514 26.2695141 -45.39208984 11.05517578 C-31.11933326 3.9075134 -15.94223136 0 0 0 Z " fill="#FFFFFF" transform="translate(368,240)"/>
<path d="M0 0 C0.69278356 -0.00350607 1.38556713 -0.00701215 2.09934413 -0.01062447 C4.42006071 -0.01992609 6.74052566 -0.01501841 9.06125259 -0.01015663 C10.74222462 -0.01389352 12.42319492 -0.0184952 14.10416245 -0.02388728 C18.72316226 -0.03612798 23.34208969 -0.03585554 27.96110201 -0.03349853 C32.94284082 -0.03309063 37.92455635 -0.04412694 42.90628433 -0.05361366 C52.66655762 -0.07023065 62.42680674 -0.07572353 72.18709299 -0.07683842 C80.12069748 -0.07778859 88.054294 -0.08189733 95.98789597 -0.08823967 C118.47950608 -0.10585421 140.9710971 -0.11507824 163.46271417 -0.11357872 C165.28172598 -0.11345885 165.28172598 -0.11345885 167.1374855 -0.11333656 C168.35164022 -0.1132548 169.56579493 -0.11317304 170.81674221 -0.1130888 C190.49374454 -0.11227591 210.17067031 -0.13141394 229.8476505 -0.1596133 C250.0502559 -0.18833753 270.25282396 -0.20215383 290.4554503 -0.20042574 C301.79830421 -0.19976167 313.14107789 -0.20526158 324.48391342 -0.22678185 C334.14167763 -0.24498759 343.79932523 -0.24934595 353.45709917 -0.235763 C358.38390965 -0.22923024 363.31049638 -0.22912734 368.23728561 -0.2464695 C372.75027122 -0.26219158 377.26285549 -0.25934538 381.77583125 -0.24190123 C383.4056997 -0.23882944 385.03559803 -0.24247052 386.66543123 -0.25362138 C397.99378089 -0.32597408 407.77354619 0.50996171 416.38650894 8.55414391 C422.71797259 15.59628204 425.22453252 22.96081033 425.18518448 32.39279747 C425.18971559 33.19547802 425.1942467 33.99815857 425.19891512 34.82516277 C425.21154208 37.50587831 425.20993989 40.18639026 425.20828629 42.86713219 C425.21427237 44.7925397 425.2210781 46.71794482 425.22864151 48.64334679 C425.24629483 53.86624685 425.25099645 59.08908137 425.25227308 64.31200838 C425.25417312 68.67120521 425.26153137 73.03038679 425.26861727 77.38957775 C425.28489424 87.66986418 425.28978664 97.95011559 425.28836441 108.23041344 C425.2871613 118.84261534 425.30829851 129.45461441 425.33985174 140.06676495 C425.36597322 149.1760123 425.37673353 158.28519319 425.37545359 167.39447773 C425.37494299 172.83617086 425.38068097 178.27768349 425.40180969 183.71933937 C425.42112402 188.83297871 425.42136336 193.94626397 425.40677643 199.05991554 C425.40467915 200.93848752 425.40944357 202.81708129 425.42149734 204.69561577 C425.43686558 207.25606698 425.42769857 209.81528422 425.41223526 212.37570763 C425.42252239 213.12258941 425.43280951 213.86947119 425.44340837 214.63898575 C425.3968948 218.11329364 425.16930907 219.93266664 423.01185417 222.71666336 C420.7411364 224.3872084 419.70183855 224.80077015 416.91775894 224.75726891 C415.92775894 224.77273766 415.92775894 224.77273766 414.91775894 224.78851891 C411.923537 223.9931787 410.82103983 222.69271683 408.91775894 220.25726891 C408.52765941 217.59912313 408.38247367 215.3552908 408.41896439 212.69960594 C408.41088755 211.55244277 408.41088755 211.55244277 408.40264755 210.38210458 C408.38936367 207.81713693 408.40452968 205.25312411 408.41946793 202.68817711 C408.41564525 200.84999209 408.41002664 199.01181005 408.40274429 197.17363548 C408.3907818 193.2132044 408.39129245 189.25303838 408.40133858 185.29260254 C408.41688711 179.02659236 408.40322856 172.76085482 408.3853035 166.49486351 C408.35445822 154.31794371 408.35298258 142.14110684 408.35495377 129.9641552 C408.35634565 114.48259285 408.34595672 99.00109477 408.30637604 83.51957959 C408.29146078 77.29499339 408.29169954 71.07064829 408.30385387 64.84605849 C408.30857532 60.96584877 408.3010283 57.08573069 408.29030991 53.20553589 C408.28791003 51.41131078 408.29061691 49.61707014 408.29891777 47.82286263 C408.87677508 33.32753297 408.87677508 33.32753297 402.66775894 20.81976891 C397.30628035 17.77347425 392.05615613 17.00725925 385.95955467 17.00279331 C385.29233165 16.99958683 384.62510862 16.99638036 383.93766671 16.99307671 C381.70992358 16.9847991 379.48245088 16.99069302 377.25470352 16.99657249 C375.63815283 16.99355079 374.02160357 16.98966121 372.40505683 16.98497993 C367.9688062 16.97469368 363.53263632 16.97688335 359.09637904 16.98116052 C354.30963693 16.9836266 349.52291433 16.97461505 344.73617935 16.96712303 C335.36072236 16.95437073 325.985294 16.952583 316.6098298 16.95492329 C308.98945604 16.95670602 301.36909098 16.95495779 293.74871826 16.95069885 C292.66432359 16.95010366 291.57992892 16.94950847 290.46267381 16.94889525 C288.25975212 16.9476835 286.05683044 16.94646937 283.85390876 16.94525287 C263.19268749 16.93437529 242.53148254 16.93654086 221.87026034 16.94263772 C202.96864152 16.94780707 184.06707423 16.93655134 165.16546561 16.9175395 C145.75723268 16.89816773 126.34902414 16.88990394 106.94078147 16.89366275 C96.04456186 16.8955758 85.14838611 16.89307713 74.25217438 16.87894821 C64.97613322 16.86704188 55.70016292 16.86562114 46.4241208 16.87773838 C41.69188843 16.8836323 36.95978573 16.88471228 32.22756195 16.87273598 C27.8935967 16.86189509 23.55986968 16.86495916 19.22591566 16.87899766 C17.66002639 16.88164953 16.09411856 16.87926266 14.52824749 16.8712618 C1.05072712 16.49857163 1.05072712 16.49857163 -10.51974106 22.50726891 C-14.36485357 29.27466693 -14.37078472 35.76196642 -14.34293747 43.36466026 C-14.34676302 44.47501739 -14.35058856 45.58537451 -14.35453004 46.72937882 C-14.36483901 50.44559233 -14.36087181 54.16165072 -14.35689926 57.87787437 C-14.3612469 60.54407831 -14.36636586 63.21027091 -14.37238693 65.87647057 C-14.38512309 72.3643146 -14.38692897 78.85211722 -14.38458667 85.33997165 C-14.3828021 90.6148087 -14.38455613 95.88963321 -14.38881111 101.16446877 C-14.3894063 101.91582009 -14.39000149 102.66717141 -14.39061471 103.44129095 C-14.39182649 104.96777263 -14.39304063 106.49425432 -14.39425709 108.02073599 C-14.40512851 122.32974474 -14.40297205 136.6387299 -14.39687224 150.94773997 C-14.39170373 164.02949415 -14.4029575 177.11117384 -14.42197046 190.19291328 C-14.44135649 203.6346829 -14.44960351 217.0764173 -14.44584721 230.51820099 C-14.44393629 238.060947 -14.44641208 245.60362963 -14.46056175 253.14636421 C-14.47248629 259.56778716 -14.47386847 265.98910772 -14.46177159 272.4105321 C-14.45589029 275.68460353 -14.45639582 278.9584495 -14.46677399 282.23251534 C-14.47722832 285.78715351 -14.4691506 289.34129007 -14.45646286 292.89591026 C-14.46383714 293.92325779 -14.47121143 294.95060531 -14.47880918 296.00908458 C-14.42513822 303.16680443 -13.86509921 310.24250591 -8.83224106 315.69476891 C-3.17490577 318.90916396 2.47040253 319.55095228 8.86983109 319.5088253 C9.64069764 319.51179544 10.41156419 319.51476558 11.20579034 319.51782572 C13.77286143 319.52542674 16.33970108 319.51898794 18.90677261 319.51264 C20.75350982 319.51539161 22.60024584 319.51907255 24.44697952 319.52361107 C28.41548323 319.53170757 32.38393064 319.53389549 36.35244179 319.53166389 C42.62566981 319.52882766 48.89878551 319.54319285 55.17198563 319.56064415 C73.00739243 319.6076463 90.84279098 319.63162364 108.67825699 319.63812828 C118.53486603 319.64187471 128.39134742 319.65986633 138.24790174 319.69322264 C144.48644825 319.71347032 150.72466633 319.71579108 156.9632324 319.70494246 C160.83887256 319.70234095 164.71432015 319.71631108 168.58991051 319.7350235 C170.38945566 319.74035891 172.18903599 319.73882575 173.98856735 319.7299881 C176.44172078 319.71890998 178.89356484 319.7322467 181.34663773 319.75174522 C182.0617098 319.74262057 182.77678188 319.73349591 183.5135228 319.72409475 C186.91985775 319.77692938 188.6378914 320.03858207 191.35775089 322.16386414 C193.05051312 324.43541429 193.46145177 325.46092796 193.41775894 328.25726891 C193.42807144 328.91726891 193.43838394 329.57726891 193.44900894 330.25726891 C192.65054551 333.2632489 191.37202624 334.35319561 188.91775894 336.25726891 C186.16577572 336.65021857 183.81365017 336.79818421 181.06311417 336.76520348 C179.86800671 336.77456342 179.86800671 336.77456342 178.64875567 336.78411245 C175.97559095 336.8000831 173.30333298 336.78742231 170.63016129 336.77484703 C168.71478111 336.78026661 166.79940511 336.78738834 164.88403702 336.79608727 C159.67705334 336.81435043 154.47038608 336.80723875 149.26339674 336.79457092 C143.81212601 336.78445 138.36088253 336.7938349 132.90961075 336.80011559 C123.74805208 336.80739834 114.58662227 336.79779168 105.42508316 336.77875328 C94.8459678 336.75702233 84.26716125 336.76400595 73.68805349 336.7860589 C64.60081611 336.80424154 55.51367146 336.80675605 46.42642176 336.79630423 C41.00129621 336.79008003 35.57631549 336.78920334 30.15119934 336.80245018 C25.04410196 336.81404827 19.93740005 336.80591065 14.83034515 336.78287315 C12.96075724 336.7776055 11.09113578 336.77906636 9.22156143 336.78792381 C-2.78528449 336.83954059 -13.27391055 336.62483702 -22.55099106 327.96039391 C-29.9806674 319.6967743 -31.380208 311.4799607 -31.3496666 300.66943932 C-31.35419771 299.49530535 -31.35872882 298.32117137 -31.36339724 297.11145759 C-31.37385601 293.86062395 -31.37536903 290.60992969 -31.37300849 287.35908461 C-31.37259984 283.84974749 -31.38364413 280.34044321 -31.39312363 276.83112144 C-31.40972456 269.95846274 -31.41523278 263.08583834 -31.41634838 256.21316126 C-31.41729936 250.62509345 -31.42141212 245.03703694 -31.42774963 239.4489727 C-31.44536014 223.59786431 -31.45458889 207.74678297 -31.45308869 191.89566472 C-31.45300877 191.04142965 -31.45292886 190.18719458 -31.45284653 189.30707359 C-31.45276477 188.45179265 -31.452683 187.59651171 -31.45259877 186.71531317 C-31.45178608 172.85817081 -31.4709198 159.00113721 -31.49912326 145.14402631 C-31.52786897 130.9078841 -31.5416626 116.67179489 -31.53993571 102.43562293 C-31.53927235 94.44623646 -31.54474058 86.45696398 -31.56629181 78.46760368 C-31.58452591 71.66445308 -31.58883278 64.86146812 -31.57527296 58.05830362 C-31.56875426 54.58965067 -31.56858579 51.12131531 -31.58597946 47.65269279 C-31.60142434 43.88585673 -31.59212718 40.11985136 -31.57671738 36.35303307 C-31.5870045 35.26566109 -31.59729163 34.17828911 -31.60789049 33.05796647 C-31.52392674 23.75172495 -29.24499133 15.70488536 -22.78536606 8.78851891 C-16.09307955 2.77160076 -9.01498463 0.0103115 0 0 Z " fill="#FFFFFF" transform="translate(47.08224105834961,31.74273109436035)"/>
<path d="M0 0 C5.8072377 3.50931998 10.58001199 8.99288625 12.5625 15.5 C12.79296875 18.83984375 12.79296875 18.83984375 12.75 22.4375 C12.74355469 23.62214844 12.73710937 24.80679688 12.73046875 26.02734375 C12.5625 29.5 12.5625 29.5 11.71484375 32.5546875 C11.24118896 35.72839821 11.24118896 35.72839821 13.7734375 38.54296875 C14.81196796 39.60715643 15.86780825 40.65463966 16.9375 41.6875 C18.05081496 42.82163531 19.16146021 43.95839698 20.26953125 45.09765625 C20.82592285 45.66371582 21.38231445 46.22977539 21.95556641 46.81298828 C25.09908592 50.11315842 27.88394793 53.69488995 30.72265625 57.2578125 C34.15952098 61.57705475 34.15952098 61.57705475 39.37109375 63.28515625 C47.73521183 64.05708695 47.73521183 64.05708695 55.41845703 61.29003906 C58.8841582 58.06770713 61.54063611 54.25958382 64.20996094 50.37304688 C66.29881441 47.48032416 68.71799952 45.01253469 71.1875 42.4375 C74.19524521 39.27888084 76.35901314 36.74019209 77.5625 32.5 C76.93622872 30.48698517 76.26414642 28.48799818 75.5625 26.5 C74.88448355 19.71983547 76.37266116 14.51601527 79.5625 8.5 C83.32844184 3.9412283 87.91866111 0.38127963 93.5625 -1.5 C101.47139355 -2.11301462 109.11094598 -2.66701642 115.5625 2.5 C121.93976454 8.45887541 124.55371361 13.50278683 125 22.25 C124.85717354 29.44488284 122.71184305 35.04217916 117.84765625 40.3828125 C114.66830189 43.26301536 111.72265212 45.29031038 107.5625 46.5 C105.72054099 46.36482886 103.87795085 46.22464881 102.04321289 46.01293945 C97.75376518 45.59214407 93.5792194 45.25722869 89.79394531 47.58984375 C86.35516411 50.56503851 83.59842678 54.08850923 80.89111328 57.72509766 C79.63020322 59.40955487 78.31938188 61.02707507 76.96484375 62.63671875 C74.79028074 65.22851498 72.66755357 67.85170679 70.5625 70.5 C69.22916667 72.16666667 67.89583333 73.83333333 66.5625 75.5 C66.88476562 76.19480469 67.20703125 76.88960938 67.5390625 77.60546875 C69.74893303 83.85552241 69.76857978 91.75638598 67.0625 97.875 C63.56763997 103.74536987 58.09821592 108.47431027 51.5625 110.5 C43.70090222 111.30776274 35.97500399 111.60412313 29.5625 106.5 C24.27797164 101.76104036 20.64204262 96.61090029 19.5625 89.5 C19.58811218 85.20996068 20.05714664 81.11509919 21.33984375 77.015625 C21.81927435 74.39100471 21.81927435 74.39100471 20.11328125 72.0625 C19.37464844 71.216875 18.63601563 70.37125 17.875 69.5 C17.05386719 68.54996094 16.23273438 67.59992188 15.38671875 66.62109375 C11.8459289 62.68141278 8.26824661 58.77339572 4.63793945 54.91601562 C0.67605855 50.70015959 0.67605855 50.70015959 -0.75390625 48.1796875 C-4.06404219 44.87723169 -9.05806365 45.56808304 -13.46264648 45.55541992 C-17.67355768 45.75609977 -19.96968648 46.18576162 -23.53125 48.578125 C-26.09727468 51.42024094 -28.26938107 54.34530896 -30.4375 57.5 C-32.02639592 59.47074349 -33.63016346 61.42960808 -35.25 63.375 C-35.93707031 64.23867187 -36.62414062 65.10234375 -37.33203125 65.9921875 C-39.4375 68.5 -39.4375 68.5 -42.26171875 70.9453125 C-44.78209162 73.30807493 -44.78209162 73.30807493 -44.26953125 76.3828125 C-43.99496094 77.41148437 -43.72039062 78.44015625 -43.4375 79.5 C-42.33063238 95.14130967 -42.33063238 95.14130967 -47.4375 101.5 C-52.24198639 106.54521222 -56.59927055 110.10562995 -63.70703125 110.8359375 C-72.22326573 110.92983204 -78.11345494 110.6177288 -84.40234375 104.62890625 C-90.7841668 97.72505269 -91.91792252 92.29832071 -91.7421875 82.9453125 C-91.04689797 75.08319245 -87.38995981 70.95041296 -81.53515625 65.9453125 C-77.13916658 62.91641831 -74.14844109 62.36393122 -68.81665039 62.88549805 C-63.64424083 63.32849828 -59.8469992 63.48068331 -55.484375 60.4453125 C-52.90804212 57.58542097 -50.6644061 54.63861853 -48.4375 51.5 C-46.8455037 49.5317602 -45.24170408 47.5729959 -43.625 45.625 C-42.93792969 44.76132813 -42.25085938 43.89765625 -41.54296875 43.0078125 C-39.4375 40.5 -39.4375 40.5 -36.625 38.13671875 C-34.06308552 35.62354062 -34.06308552 35.62354062 -34.45703125 32.01171875 C-34.71871094 30.74972656 -34.98039062 29.48773438 -35.25 28.1875 C-36.58740671 20.69021937 -36.43502604 16.19912229 -32.75 9.375 C-24.66357765 -0.67838995 -12.6586809 -5.6095331 0 0 Z " fill="#FFFFFF" transform="translate(307.4375,73.5)"/>
<path d="M0 0 C11.27845628 0 11.27845628 0 15.0078125 0.84765625 C15.84135254 1.03706787 16.67489258 1.22647949 17.53369141 1.42163086 C18.38882324 1.63311768 19.24395508 1.84460449 20.125 2.0625 C21.0329834 2.28365479 21.9409668 2.50480957 22.87646484 2.73266602 C31.39201117 4.91577507 39.14542406 8.09460327 47 12 C47.98097656 12.47179687 48.96195312 12.94359375 49.97265625 13.4296875 C68.23124546 22.72974589 84.50418071 38.48697581 95 56 C95.37850098 56.63099609 95.75700195 57.26199219 96.14697266 57.91210938 C106.44362715 75.37442084 112 93.67421914 112 114 C90.55 114 69.1 114 47 114 C45.68 109.05 44.36 104.1 43 99 C35.93198735 83.71336798 25.21737119 73.81903282 9.484375 67.82421875 C6.35353109 66.78552682 3.17172699 65.90620771 0 65 C0 43.55 0 22.1 0 0 Z " fill="#FFFFFF" transform="translate(384,240)"/>
<path d="M0 0 C1.18142578 -0.01891296 1.18142578 -0.01891296 2.38671875 -0.03820801 C3.22847656 -0.03011108 4.07023438 -0.02201416 4.9375 -0.01367188 C5.81019531 -0.01749878 6.68289062 -0.02132568 7.58203125 -0.02526855 C9.42449092 -0.02798678 11.26698924 -0.02063182 13.109375 -0.00390625 C15.92795934 0.01750565 18.74399485 -0.00370989 21.5625 -0.02929688 C23.35417229 -0.02665358 25.14584299 -0.02152857 26.9375 -0.01367188 C27.77925781 -0.0217688 28.62101562 -0.02986572 29.48828125 -0.03820801 C30.27589844 -0.02559937 31.06351563 -0.01299072 31.875 0 C32.90947266 0.00477356 32.90947266 0.00477356 33.96484375 0.00964355 C36.86853884 0.7573091 38.04132736 2.2320361 39.9375 4.51757812 C40.44086456 6.99761963 40.44086456 6.99761963 40.44543457 9.83105469 C40.45671387 10.90778442 40.46799316 11.98451416 40.47961426 13.09387207 C40.47151733 14.27010132 40.46342041 15.44633057 40.45507812 16.65820312 C40.4620874 17.90081909 40.46909668 19.14343506 40.47631836 20.42370605 C40.49090873 23.82892998 40.48748748 27.23318195 40.47480202 30.63835144 C40.46467116 34.2025991 40.47406792 37.76680538 40.48034668 41.33105469 C40.48762288 47.31648206 40.47803627 53.30171198 40.45898438 59.28710938 C40.43721546 66.2059677 40.44426687 73.12435455 40.46629 80.04320145 C40.48444495 85.98473775 40.48700193 91.92613215 40.47653532 97.86768723 C40.47030082 101.41581704 40.46946329 104.96372527 40.48268127 108.51184082 C40.49638678 112.46706453 40.47738835 116.42176061 40.45507812 120.37695312 C40.46317505 121.55318237 40.47127197 122.72941162 40.47961426 123.94128418 C40.46833496 125.01801392 40.45705566 126.09474365 40.44543457 127.20410156 C40.44392647 128.13913513 40.44241837 129.0741687 40.44086456 130.03753662 C39.78563266 133.26581772 38.45878138 134.46870764 35.9375 136.51757812 C33.96484375 137.0255127 33.96484375 137.0255127 31.875 137.03515625 C31.08738281 137.04776489 30.29976562 137.06037354 29.48828125 137.07336426 C28.64652344 137.06526733 27.80476563 137.05717041 26.9375 137.04882812 C26.06480469 137.05265503 25.19210938 137.05648193 24.29296875 137.0604248 C22.45050908 137.06314303 20.60801076 137.05578807 18.765625 137.0390625 C15.94704066 137.0176506 13.13100515 137.03886614 10.3125 137.06445312 C8.52082771 137.06180983 6.72915701 137.05668482 4.9375 137.04882812 C4.09574219 137.05692505 3.25398437 137.06502197 2.38671875 137.07336426 C1.59910156 137.06075562 0.81148437 137.04814697 0 137.03515625 C-1.03447266 137.03038269 -1.03447266 137.03038269 -2.08984375 137.0255127 C-4.99353884 136.27784715 -6.16632736 134.80312015 -8.0625 132.51757812 C-8.56586456 130.03753662 -8.56586456 130.03753662 -8.57043457 127.20410156 C-8.58171387 126.12737183 -8.59299316 125.05064209 -8.60461426 123.94128418 C-8.59651733 122.76505493 -8.58842041 121.58882568 -8.58007812 120.37695312 C-8.5870874 119.13433716 -8.59409668 117.89172119 -8.60131836 116.6114502 C-8.61590873 113.20622627 -8.61248748 109.8019743 -8.59980202 106.39680481 C-8.58967116 102.83255715 -8.59906792 99.26835087 -8.60534668 95.70410156 C-8.61262288 89.71867419 -8.60303627 83.73344427 -8.58398438 77.74804688 C-8.56221546 70.82918855 -8.56926687 63.9108017 -8.59129 56.9919548 C-8.60944495 51.0504185 -8.61200193 45.1090241 -8.60153532 39.16746902 C-8.59530082 35.61933921 -8.59446329 32.07143098 -8.60768127 28.52331543 C-8.62138678 24.56809172 -8.60238835 20.61339564 -8.58007812 16.65820312 C-8.58817505 15.48197388 -8.59627197 14.30574463 -8.60461426 13.09387207 C-8.59333496 12.01714233 -8.58205566 10.9404126 -8.57043457 9.83105469 C-8.56892647 8.89602112 -8.56741837 7.96098755 -8.56586456 6.99761963 C-7.62873619 2.38045459 -4.62201134 0.02132821 0 0 Z " fill="#FFFFFF" transform="translate(128.0625,191.482421875)"/>
<path d="M0 0 C1.18142578 -0.01891296 1.18142578 -0.01891296 2.38671875 -0.03820801 C3.22847656 -0.03011108 4.07023437 -0.02201416 4.9375 -0.01367188 C5.81019531 -0.01749878 6.68289062 -0.02132568 7.58203125 -0.02526855 C9.42449092 -0.02798678 11.26698924 -0.02063182 13.109375 -0.00390625 C15.92795934 0.01750565 18.74399485 -0.00370989 21.5625 -0.02929688 C23.35417229 -0.02665358 25.14584299 -0.02152857 26.9375 -0.01367188 C27.77925781 -0.0217688 28.62101562 -0.02986572 29.48828125 -0.03820801 C30.27589844 -0.02559937 31.06351563 -0.01299072 31.875 0 C32.90947266 0.00477356 32.90947266 0.00477356 33.96484375 0.00964355 C37.05801136 0.80609593 38.10230282 1.89358248 39.9375 4.51757812 C40.52913266 7.58388174 40.48383668 10.60576582 40.45507812 13.72070312 C40.4620874 14.65120483 40.46909668 15.58170654 40.47631836 16.54040527 C40.49392461 19.61643306 40.48226606 22.69154097 40.46875 25.76757812 C40.47144415 27.90462419 40.47532593 30.04166907 40.48034668 32.17871094 C40.4862453 36.6576708 40.47766683 41.13631159 40.45898438 45.61523438 C40.43619487 51.35900265 40.44931597 57.10202332 40.47327423 62.84576416 C40.48772221 67.2586837 40.48313076 71.67142573 40.47276306 76.08435059 C40.47009302 78.20227141 40.47337524 80.32020829 40.48268127 82.43811035 C40.49283018 85.39732607 40.4773686 88.35532792 40.45507812 91.31445312 C40.46317505 92.19145874 40.47127197 93.06846436 40.47961426 93.9720459 C40.42616649 97.79833346 40.39298981 99.86631117 38.15905762 103.0604248 C35.79366097 104.61192432 34.66741244 105.0222707 31.875 105.03515625 C30.69357422 105.05406921 30.69357422 105.05406921 29.48828125 105.07336426 C28.64652344 105.06526733 27.80476563 105.05717041 26.9375 105.04882812 C26.06480469 105.05265503 25.19210938 105.05648193 24.29296875 105.0604248 C22.45050908 105.06314303 20.60801076 105.05578807 18.765625 105.0390625 C15.94704066 105.0176506 13.13100515 105.03886614 10.3125 105.06445312 C8.52082771 105.06180983 6.72915701 105.05668482 4.9375 105.04882812 C3.67486328 105.06097351 3.67486328 105.06097351 2.38671875 105.07336426 C1.20529297 105.05445129 1.20529297 105.05445129 0 105.03515625 C-0.68964844 105.03197388 -1.37929688 105.0287915 -2.08984375 105.0255127 C-5.18301136 104.22906032 -6.22730282 103.14157377 -8.0625 100.51757812 C-8.65413266 97.45127451 -8.60883668 94.42939043 -8.58007812 91.31445312 C-8.5870874 90.38395142 -8.59409668 89.45344971 -8.60131836 88.49475098 C-8.61892461 85.41872319 -8.60726606 82.34361528 -8.59375 79.26757812 C-8.59644415 77.13053206 -8.60032593 74.99348718 -8.60534668 72.85644531 C-8.6112453 68.37748545 -8.60266683 63.89884466 -8.58398438 59.41992188 C-8.56119487 53.6761536 -8.57431597 47.93313293 -8.59827423 42.18939209 C-8.61272221 37.77647255 -8.60813076 33.36373052 -8.59776306 28.95080566 C-8.59509302 26.83288484 -8.59837524 24.71494796 -8.60768127 22.5970459 C-8.61783018 19.63783018 -8.6023686 16.67982833 -8.58007812 13.72070312 C-8.58817505 12.84369751 -8.59627197 11.96669189 -8.60461426 11.06311035 C-8.55116649 7.23682279 -8.51798981 5.16884508 -6.28405762 1.97473145 C-3.91866097 0.42323193 -2.79241244 0.01288555 0 0 Z " fill="#FFFFFF" transform="translate(64.0625,223.482421875)"/>
<path d="M0 0 C1.18142578 -0.01891296 1.18142578 -0.01891296 2.38671875 -0.03820801 C3.22847656 -0.03011108 4.07023438 -0.02201416 4.9375 -0.01367188 C5.81019531 -0.01749878 6.68289062 -0.02132568 7.58203125 -0.02526855 C9.42449092 -0.02798678 11.26698924 -0.02063182 13.109375 -0.00390625 C15.92795934 0.01750565 18.74399485 -0.00370989 21.5625 -0.02929688 C23.35417229 -0.02665358 25.14584299 -0.02152857 26.9375 -0.01367188 C27.77925781 -0.0217688 28.62101562 -0.02986572 29.48828125 -0.03820801 C30.27589844 -0.02559937 31.06351563 -0.01299072 31.875 0 C32.90947266 0.00477356 32.90947266 0.00477356 33.96484375 0.00964355 C36.96439617 0.78199118 38.10664165 2.04153981 39.9375 4.51757812 C40.44543457 7.70507812 40.44543457 7.70507812 40.45507812 11.51757812 C40.4620874 12.21399414 40.46909668 12.91041016 40.47631836 13.62792969 C40.49389196 15.92488744 40.48227919 18.22060833 40.46875 20.51757812 C40.47144513 22.11653886 40.47532773 23.715498 40.48034668 25.31445312 C40.48624082 28.66357038 40.47768192 32.01226056 40.45898438 35.36132812 C40.43619435 39.65236403 40.44931796 43.94239924 40.47327423 48.23339844 C40.4877348 51.53458179 40.48312515 54.83552823 40.47276306 58.13671875 C40.47009646 59.71875121 40.47336322 61.30080524 40.48268127 62.8828125 C40.49285179 65.09497975 40.4773419 67.30553112 40.45507812 69.51757812 C40.45030457 71.40476562 40.45030457 71.40476562 40.44543457 73.33007812 C39.9375 76.51757812 39.9375 76.51757812 38.15905762 78.92272949 C35.77749861 80.63244258 34.75731025 81.02185587 31.875 81.03515625 C30.69357422 81.05406921 30.69357422 81.05406921 29.48828125 81.07336426 C28.64652344 81.06526733 27.80476563 81.05717041 26.9375 81.04882812 C26.06480469 81.05265503 25.19210938 81.05648193 24.29296875 81.0604248 C22.45050908 81.06314303 20.60801076 81.05578807 18.765625 81.0390625 C15.94704066 81.0176506 13.13100515 81.03886614 10.3125 81.06445312 C8.52082771 81.06180983 6.72915701 81.05668482 4.9375 81.04882812 C3.67486328 81.06097351 3.67486328 81.06097351 2.38671875 81.07336426 C1.20529297 81.05445129 1.20529297 81.05445129 0 81.03515625 C-0.68964844 81.03197388 -1.37929687 81.0287915 -2.08984375 81.0255127 C-5.08939617 80.25316507 -6.23164165 78.99361644 -8.0625 76.51757812 C-8.57043457 73.33007812 -8.57043457 73.33007812 -8.58007812 69.51757812 C-8.5870874 68.82116211 -8.59409668 68.12474609 -8.60131836 67.40722656 C-8.61889196 65.11026881 -8.60727919 62.81454792 -8.59375 60.51757812 C-8.59644513 58.91861739 -8.60032773 57.31965825 -8.60534668 55.72070312 C-8.61124082 52.37158587 -8.60268192 49.02289569 -8.58398438 45.67382812 C-8.56119435 41.38279222 -8.57431796 37.09275701 -8.59827423 32.80175781 C-8.6127348 29.50057446 -8.60812515 26.19962802 -8.59776306 22.8984375 C-8.59509646 21.31640504 -8.59836322 19.73435101 -8.60768127 18.15234375 C-8.61785179 15.9401765 -8.6023419 13.72962513 -8.58007812 11.51757812 C-8.57689575 10.25945312 -8.57371338 9.00132812 -8.57043457 7.70507812 C-8.0625 4.51757812 -8.0625 4.51757812 -6.28405762 2.11242676 C-3.90249861 0.40271367 -2.88231025 0.01330038 0 0 Z " fill="#FFFFFF" transform="translate(192.0625,247.482421875)"/>
<path d="M0 0 C1.15249741 0.00222061 2.30499481 0.00444122 3.49241638 0.00672913 C5.4443264 0.00684242 5.4443264 0.00684242 7.43566895 0.00695801 C8.86661313 0.01206543 10.29755694 0.01728144 11.72850037 0.02259827 C13.18438672 0.02446249 14.64027369 0.02588637 16.09616089 0.02688599 C19.93488791 0.03071086 23.77357731 0.04054088 27.61228943 0.05158997 C31.52667227 0.06180474 35.44106117 0.06638375 39.35545349 0.07142639 C47.04101755 0.08216318 54.72655057 0.09923923 62.41209412 0.12025452 C62.2736445 2.34141824 62.12935845 4.56221861 61.98265076 6.78285217 C61.90293533 8.01959686 61.82321991 9.25634155 61.74108887 10.53056335 C61.29720368 15.37383439 60.24596234 19.84919801 58.84959412 24.49525452 C58.58783386 25.38519104 58.32607361 26.27512756 58.05638123 27.19203186 C52.8793557 43.99516037 43.63090078 58.68682628 32.41209412 72.12025452 C26.61373516 67.30588014 21.28927626 62.1277702 15.97850037 56.78431702 C15.1005632 55.9049649 14.22262604 55.02561279 13.31808472 54.11961365 C10.53455 51.33051394 7.75452643 48.53794434 4.97459412 45.74525452 C3.07992747 43.84500031 1.18449782 41.94550799 -0.71095276 40.04603577 C-5.3392575 35.40674848 -9.96469009 30.76461285 -14.58790588 26.12025452 C-14.11014709 25.33739075 -13.63238831 24.55452698 -13.14015198 23.74794006 C-9.83131255 18.22373123 -6.86773134 13.16491828 -5.21290588 6.93275452 C-3.36405677 0.15632061 -3.36405677 0.15632061 0 0 Z " fill="#FFFFFF" transform="translate(433.58790588378906,368.87974548339844)"/>
<path d="M0 0 C0.69641602 -0.00700928 1.39283203 -0.01401855 2.11035156 -0.02124023 C4.40730932 -0.03881383 6.70303021 -0.02720107 9 -0.01367188 C10.59896073 -0.01636701 12.19791987 -0.0202496 13.796875 -0.02526855 C17.14599226 -0.03116269 20.49468243 -0.0226038 23.84375 -0.00390625 C28.13478591 0.01888377 32.42482111 0.00576017 36.71582031 -0.01819611 C40.01700366 -0.03265667 43.31795011 -0.02804703 46.61914062 -0.01768494 C48.20117308 -0.01501834 49.78322711 -0.0182851 51.36523438 -0.02760315 C53.57740163 -0.03777366 55.787953 -0.02226378 58 0 C59.8871875 0.00477356 59.8871875 0.00477356 61.8125 0.00964355 C65.55520109 0.60605054 66.73159929 1.54273163 69 4.51757812 C69.53125 6.51757812 69.53125 6.51757812 69.5 8.51757812 C69.51546875 9.50757813 69.51546875 9.50757813 69.53125 10.51757812 C68.74176632 13.48975197 67.39936627 14.61414098 65 16.51757812 C61.8125 17.0255127 61.8125 17.0255127 58 17.03515625 C57.30358398 17.04216553 56.60716797 17.0491748 55.88964844 17.05639648 C53.59269068 17.07397008 51.29696979 17.06235732 49 17.04882812 C47.40103927 17.05152326 45.80208013 17.05540585 44.203125 17.0604248 C40.85400774 17.06631894 37.50531757 17.05776005 34.15625 17.0390625 C29.86521409 17.01627248 25.57517889 17.02939608 21.28417969 17.05335236 C17.98299634 17.06781292 14.68204989 17.06320328 11.38085938 17.05284119 C9.79882692 17.05017459 8.21677289 17.05344135 6.63476562 17.0627594 C4.42259837 17.07292991 2.212047 17.05742003 0 17.03515625 C-1.258125 17.03197388 -2.51625 17.0287915 -3.8125 17.0255127 C-7.55520109 16.42910571 -8.73159929 15.49242462 -11 12.51757812 C-11.53125 10.51757812 -11.53125 10.51757812 -11.5 8.51757812 C-11.51546875 7.52757812 -11.51546875 7.52757812 -11.53125 6.51757812 C-9.93997703 0.52690342 -5.4948528 0.01389899 0 0 Z " fill="#FFFFFF" transform="translate(115,151.482421875)"/>
<path d="M0 0 C0.69641602 -0.00700928 1.39283203 -0.01401855 2.11035156 -0.02124023 C4.40730932 -0.03881383 6.70303021 -0.02720107 9 -0.01367188 C10.59896073 -0.01636701 12.19791987 -0.0202496 13.796875 -0.02526855 C17.14599226 -0.03116269 20.49468243 -0.0226038 23.84375 -0.00390625 C28.13478591 0.01888377 32.42482111 0.00576017 36.71582031 -0.01819611 C40.01700366 -0.03265667 43.31795011 -0.02804703 46.61914062 -0.01768494 C48.20117308 -0.01501834 49.78322711 -0.0182851 51.36523438 -0.02760315 C53.57740163 -0.03777366 55.787953 -0.02226378 58 0 C59.8871875 0.00477356 59.8871875 0.00477356 61.8125 0.00964355 C65.55520109 0.60605054 66.73159929 1.54273163 69 4.51757812 C69.53125 6.51757812 69.53125 6.51757812 69.5 8.51757812 C69.51546875 9.50757812 69.51546875 9.50757812 69.53125 10.51757812 C68.74176632 13.48975197 67.39936627 14.61414098 65 16.51757812 C61.8125 17.0255127 61.8125 17.0255127 58 17.03515625 C57.30358398 17.04216553 56.60716797 17.0491748 55.88964844 17.05639648 C53.59269068 17.07397008 51.29696979 17.06235732 49 17.04882812 C47.40103927 17.05152326 45.80208013 17.05540585 44.203125 17.0604248 C40.85400774 17.06631894 37.50531757 17.05776005 34.15625 17.0390625 C29.86521409 17.01627248 25.57517889 17.02939608 21.28417969 17.05335236 C17.98299634 17.06781292 14.68204989 17.06320328 11.38085938 17.05284119 C9.79882692 17.05017459 8.21677289 17.05344135 6.63476562 17.0627594 C4.42259837 17.07292991 2.212047 17.05742003 0 17.03515625 C-1.258125 17.03197388 -2.51625 17.0287915 -3.8125 17.0255127 C-7.55520109 16.42910571 -8.73159929 15.49242462 -11 12.51757812 C-11.53125 10.51757812 -11.53125 10.51757812 -11.5 8.51757812 C-11.51546875 7.52757813 -11.51546875 7.52757813 -11.53125 6.51757812 C-9.93997703 0.52690342 -5.4948528 0.01389899 0 0 Z " fill="#FFFFFF" transform="translate(115,111.482421875)"/>
<path d="M0 0 C0.69641602 -0.00700928 1.39283203 -0.01401855 2.11035156 -0.02124023 C4.40730932 -0.03881383 6.70303021 -0.02720107 9 -0.01367188 C10.59896073 -0.01636701 12.19791987 -0.0202496 13.796875 -0.02526855 C17.14599226 -0.03116269 20.49468243 -0.0226038 23.84375 -0.00390625 C28.13478591 0.01888377 32.42482111 0.00576017 36.71582031 -0.01819611 C40.01700366 -0.03265667 43.31795011 -0.02804703 46.61914062 -0.01768494 C48.20117308 -0.01501834 49.78322711 -0.0182851 51.36523438 -0.02760315 C53.57740163 -0.03777366 55.787953 -0.02226378 58 0 C59.8871875 0.00477356 59.8871875 0.00477356 61.8125 0.00964355 C65.55520109 0.60605054 66.73159929 1.54273163 69 4.51757812 C69.53125 6.51757812 69.53125 6.51757812 69.5 8.51757812 C69.51546875 9.50757812 69.51546875 9.50757812 69.53125 10.51757812 C68.74176632 13.48975197 67.39936627 14.61414098 65 16.51757812 C61.8125 17.0255127 61.8125 17.0255127 58 17.03515625 C57.30358398 17.04216553 56.60716797 17.0491748 55.88964844 17.05639648 C53.59269068 17.07397008 51.29696979 17.06235732 49 17.04882812 C47.40103927 17.05152326 45.80208013 17.05540585 44.203125 17.0604248 C40.85400774 17.06631894 37.50531757 17.05776005 34.15625 17.0390625 C29.86521409 17.01627248 25.57517889 17.02939608 21.28417969 17.05335236 C17.98299634 17.06781292 14.68204989 17.06320328 11.38085938 17.05284119 C9.79882692 17.05017459 8.21677289 17.05344135 6.63476562 17.0627594 C4.42259837 17.07292991 2.212047 17.05742003 0 17.03515625 C-1.258125 17.03197388 -2.51625 17.0287915 -3.8125 17.0255127 C-7.55520109 16.42910571 -8.73159929 15.49242462 -11 12.51757812 C-11.53125 10.51757812 -11.53125 10.51757812 -11.5 8.51757812 C-11.51546875 7.52757813 -11.51546875 7.52757813 -11.53125 6.51757812 C-9.93997703 0.52690342 -5.4948528 0.01389899 0 0 Z " fill="#FFFFFF" transform="translate(115,71.482421875)"/>
<path d="M0 0 C1.051875 -0.00515625 2.10375 -0.0103125 3.1875 -0.015625 C4.280625 -0.00015625 5.37375 0.0153125 6.5 0.03125 C8.1396875 0.00804687 8.1396875 0.00804687 9.8125 -0.015625 C10.864375 -0.01046875 11.91625 -0.0053125 13 0 C14.43859375 0.00676758 14.43859375 0.00676758 15.90625 0.01367188 C19.21298564 0.673525 20.40908706 1.94238555 22.5 4.53125 C23.03125 6.53125 23.03125 6.53125 23 8.53125 C23.0103125 9.19125 23.020625 9.85125 23.03125 10.53125 C22.2561666 13.44921104 20.80895833 14.6243588 18.5 16.53125 C15.90625 17.04882812 15.90625 17.04882812 13 17.0625 C11.948125 17.06765625 10.89625 17.0728125 9.8125 17.078125 C8.719375 17.06265625 7.62625 17.0471875 6.5 17.03125 C4.8603125 17.05445313 4.8603125 17.05445313 3.1875 17.078125 C2.135625 17.07296875 1.08375 17.0678125 0 17.0625 C-0.9590625 17.05798828 -1.918125 17.05347656 -2.90625 17.04882812 C-6.21298564 16.388975 -7.40908706 15.12011445 -9.5 12.53125 C-10.03125 10.53125 -10.03125 10.53125 -10 8.53125 C-10.01546875 7.54125 -10.01546875 7.54125 -10.03125 6.53125 C-8.65240655 1.34030994 -4.94094259 0.02324368 0 0 Z " fill="#FFFFFF" transform="translate(65.5,151.46875)"/>
<path d="M0 0 C1.051875 -0.00515625 2.10375 -0.0103125 3.1875 -0.015625 C4.280625 -0.00015625 5.37375 0.0153125 6.5 0.03125 C8.1396875 0.00804688 8.1396875 0.00804688 9.8125 -0.015625 C10.864375 -0.01046875 11.91625 -0.0053125 13 0 C14.43859375 0.00676758 14.43859375 0.00676758 15.90625 0.01367188 C19.21298564 0.673525 20.40908706 1.94238555 22.5 4.53125 C23.03125 6.53125 23.03125 6.53125 23 8.53125 C23.0103125 9.19125 23.020625 9.85125 23.03125 10.53125 C22.2561666 13.44921104 20.80895833 14.6243588 18.5 16.53125 C15.90625 17.04882812 15.90625 17.04882812 13 17.0625 C11.948125 17.06765625 10.89625 17.0728125 9.8125 17.078125 C8.719375 17.06265625 7.62625 17.0471875 6.5 17.03125 C4.8603125 17.05445313 4.8603125 17.05445313 3.1875 17.078125 C2.135625 17.07296875 1.08375 17.0678125 0 17.0625 C-0.9590625 17.05798828 -1.918125 17.05347656 -2.90625 17.04882812 C-6.21298564 16.388975 -7.40908706 15.12011445 -9.5 12.53125 C-10.03125 10.53125 -10.03125 10.53125 -10 8.53125 C-10.01546875 7.54125 -10.01546875 7.54125 -10.03125 6.53125 C-8.65240655 1.34030994 -4.94094259 0.02324368 0 0 Z " fill="#FFFFFF" transform="translate(65.5,111.46875)"/>
<path d="M0 0 C1.051875 -0.00515625 2.10375 -0.0103125 3.1875 -0.015625 C4.280625 -0.00015625 5.37375 0.0153125 6.5 0.03125 C8.1396875 0.00804688 8.1396875 0.00804688 9.8125 -0.015625 C10.864375 -0.01046875 11.91625 -0.0053125 13 0 C14.43859375 0.00676758 14.43859375 0.00676758 15.90625 0.01367188 C19.21298564 0.673525 20.40908706 1.94238555 22.5 4.53125 C23.03125 6.53125 23.03125 6.53125 23 8.53125 C23.0103125 9.19125 23.020625 9.85125 23.03125 10.53125 C22.2561666 13.44921104 20.80895833 14.6243588 18.5 16.53125 C15.90625 17.04882812 15.90625 17.04882812 13 17.0625 C11.948125 17.06765625 10.89625 17.0728125 9.8125 17.078125 C8.719375 17.06265625 7.62625 17.0471875 6.5 17.03125 C4.8603125 17.05445313 4.8603125 17.05445313 3.1875 17.078125 C2.135625 17.07296875 1.08375 17.0678125 0 17.0625 C-0.9590625 17.05798828 -1.918125 17.05347656 -2.90625 17.04882812 C-6.21298564 16.388975 -7.40908706 15.12011445 -9.5 12.53125 C-10.03125 10.53125 -10.03125 10.53125 -10 8.53125 C-10.01546875 7.54125 -10.01546875 7.54125 -10.03125 6.53125 C-8.65240655 1.34030994 -4.94094259 0.02324368 0 0 Z " fill="#FFFFFF" transform="translate(65.5,71.46875)"/>
</svg>
