<?xml version="1.0" encoding="UTF-8"?>
<svg version="1.1" viewBox="0 0 2048 2048" width="512" height="512" xmlns="http://www.w3.org/2000/svg">
<path transform="translate(687,1116)" d="m0 0 5 1 5 19 5 12 7 14 16 24 10 13 14 17 12 13 7 8 14 15 38 38 8 7 8 8 8 7 14 13 8 7 14 12 11 10 11 9 14 12 17 14 22 18 16 13 17 13 16 13 16 12 5 2 20-15 16-13 17-13 13-11 14-11 13-11 11-9 26-22 14-12 11-10 8-7 12-11 8-7 15-14 7-7 8-7 34-34 7-8 12-13 9-11 10-11 9-12 10-14 10-16 8-15 7-21 1-8 5-1 36 5 36 7 12 4 13 11 12 14 12 19 12 25 9 27 6 26 4 26 3 31v6l-18 7-17 8-16 11-15 14-9 11-10 16-7 15-5 16-3 15-1 18 2 21 4 17 6 16 8 15 12 16 8 9 11 9 11 8 17 9 20 7 16 3 11 1h13l18-2 18-5 15-6 16-9 12-9 12-11 11-14 8-13 7-15 6-20 2-12 1-11v-11l-2-18-5-19-7-17-8-14-11-14-5-5v-2l-4-2-9-8-15-10-19-9-11-4-6-2-1-1-4-44-5-32-7-29-8-26-5-12v-2l5 1 26 14 21 13 12 8 17 12 17 13 17 14 12 11 8 7 24 24 7 8 9 10 22 28 13 18 9 14 11 18 10 18 12 23 13 30 9 24 8 24 9 34 6 31 4 28 3 35v57l-2 24-4 27-5 22-6 20-8 20-8 16-9 15-13 17-14 15-11 10-18 13-21 12-19 9-18 7-31 9-26 6-30 5-44 5-41 3-56 2h-891l-55-2-50-4-40-5-27-5-25-6-26-8-25-10-20-10-16-10-13-10-13-11-10-10-9-11-8-11-8-13-10-19-9-24-6-21-5-26-3-23-2-31v-31l2-33 4-33 6-33 9-36 12-36 9-24 11-24 13-26 16-27 13-20 12-17 11-14 9-11 12-14 9-10 31-31 8-7 13-11 17-13 12-9 30-20 24-14 14-8 3 1-6 16-7 26-5 25-3 21-4 51-3 3-9 7-9 10-7 12-9 6-10 6-12 9-13 11-11 11-9 11-11 14-12 18-10 17-12 23-5 14-1 5v18l-10 30-8 32-5 29-2 20v57l2 22 5 22 8 17 7 9 9 8 10 6 12 5 15 5 11 5 4 1h58l10-4 9-6 7-10 4-13v-10l-3-11-7-10-7-6-9-4-13-2h-26l-24 1-9 1-3-5-2-9-1-9-1-21v-26l2-22 4-24 7-29 8-23 12-9 7-10 14-27 13-20 10-13 9-10 11-11 13-9 11-5 8-2h9l12 3 12 6 10 8 10 9 10 11 13 18 10 17 13 24 3 3v2h2v2l4 2 5 4 6 15 7 24 6 26 4 31v52l-3 23-4 4-18-2h-34l-13 1-12 5-10 9-5 10-2 7v13l4 12 6 8 9 7 7 3 5 1 34 1 22-1 11-4 11-5 16-6 12-7 10-9 7-10 7-16 5-23 2-26v-46l-4-36-6-29-6-23-11-33 1-6v-16l-5-15-12-22-10-17-14-20-9-11-9-10-15-15-14-11-19-12-8-5-7-11-11-12-9-7v-22l3-31 4-24 6-25 9-24 10-19 9-13 11-12 7-7 9-4 24-6 26-5z" fill="#1E2742"/>
<path transform="translate(1011,102)" d="m0 0h26l30 2 32 4 31 6 32 9 26 9 26 11 17 8 22 12 19 12 16 11 16 12 10 8 14 12 15 14 15 15 7 8 13 15 15 20 12 17 15 25 12 22 12 26 10 26 9 28 8 33 5 31 3 31v58l-3 32-3 23-5 29-8 36-9 33-11 35-11 30-16 39-16 34-12 24-12 22-17 28-12 19-11 16-8 11-12 16-11 14-11 13-12 14-10 10-7 8-7 7-8 7-14 13-11 9-15 12-22 15-20 12-23 12-23 10-29 9-24 5-23 3h-39l-23-3-23-5-20-6-28-11-24-12-20-12-16-11-12-9-14-11-10-9-11-9-33-33-7-8-12-14-13-16-15-20-12-17-10-15-14-22-15-26-14-26-12-24-14-31-13-32-11-30-12-38-9-34-8-37-6-38-3-27-1-15v-58l4-37 5-28 8-32 12-36 11-26 11-23 13-23 11-17 14-20 13-16 8-10 11-12 4-5h2l2-4 12-12 8-7 12-11 14-11 13-10 24-16 15-9 16-9 24-12 32-13 31-10 29-7 27-5 24-3z" fill="#1E2742"/>
<path transform="translate(1543,1385)" d="m0 0 16 1 12 4 11 6 12 11 7 11 5 12 2 9v15l-4 16-7 12-9 10-7 6-12 6-9 3-7 1h-14l-16-4-11-6-12-11-7-10-5-11-3-12v-14l4-16 7-13 11-12 13-8 14-5z" fill="#1F2843"/>
</svg>
