<?xml version="1.0" encoding="UTF-8"?>
<svg version="1.1" viewBox="0 0 2048 2048" width="128" height="128" xmlns="http://www.w3.org/2000/svg">
<path transform="translate(1757)" d="m0 0h81l30 8 26 9 22 10 17 10 12 8 16 12 13 11 12 11 10 11 10 13 10 16 12 22 10 25 6 18 4 15v71l-5 18-10 40-7 21-14 34-9 20-13 28-12 23-10 19-8 16-11 23-6 13-10 27-10 30-7 28-11 53-5 37-3 41-1 20v57l3 45 4 37 8 64 6 65 5 58 2 39 1 26v78l-2 44-6 58-3 23-5 26-10 43-9 29-10 26-14 29-8 14-11 16-13 17-9 11-14 15-11 9-15 12-14 10-33 22-21 12-16 9-21 10-12 6-29 11-28 9-30 7-32 6-29 3h-61l-29-3-19-3-36-8-31-9-23-8-29-11-30-12-26-12-26-13-3-2-4 39-4 34-7 85-3 28-6 48-6 55-4 26-10 53-6 23-4 9-10 19-2 3h-35v-8l-4-6-7-7-3-5v-10l9-36 7-43 10-72 6-59 6-57 5-48 7-84 1-10 2-5-4-7-12-9-36-24-25-17-16-13-8-7-4-6-1-10 3-10 6-9 10-10 5-3h8l12 3 17 10 10 7 11 7 12 8 39 25 18 11 27 15 22 12 42 21 25 11 39 15 33 10 24 6 36 6 18 2 18 1h38l25-2 37-6 24-6 32-11 20-9 16-8 21-11 20-12 21-14 14-10 14-11 15-14 10-10 11-14 14-22 15-31 9-26 6-19 8-36 9-52 3-28 3-48 1-43v-25l-1-42-2-40-4-49-10-99-9-78-3-39-1-30v-29l2-41 2-23 9-64 6-33 13-51 8-24 10-27 13-28 10-19 8-16 15-29 9-17 11-24 8-19 9-23 8-28 7-34 2-12 1-12v-24l-2-18-5-21-9-22-8-14-12-16-8-9-8-7-12-10-10-7-17-10-17-8-17-6-21-5-18-2h-39l-23 3-24 5-24 6-35 12-32 13-33 16-16 8-23 12-14 8-26 16-23 14-16 10-13 8-24 15-26 15-14 8-16 8-37 18-19 8-33 13-44 15-48 13-36 8-50 9-33 4-36 3-35 2h-67l-44-3-39-4-30-4-35-7-36-8-35-10-26-8-31-11-33-13-29-13-25-12-29-15-23-13-28-15-16-9-32-17-28-14-25-11-36-14-24-8-32-8-26-4-11-1h-36l-24 4-24 8-16 8-19 12-11 10-8 7-7 7-12 16-12 22-5 13-5 21-3 20-2 32 1 31 4 51 6 50 10 69 9 72 3 35 1 21v16l-1 26-4 33-8 50-7 34-7 30-11 48-15 69-5 27-6 39-5 42-2 27v35l4 40 6 34 7 28 11 32 8 19 8 17 11 19 10 14 10 13 14 15 11 11 14 11 20 13 23 12 22 8 20 5 23 3 12 1h34l24-3 29-6 19-6 25-10 25-13 21-14 10-8 10-9 9-8 7-8 10-11 7-8 10-15 7-11 10-15 9-9 10-5 6 2 15 8 7 4 6 7 2 5v13l-3 10-9 16-8 14-6 10-8 10-5 6h-2l-2 4h-2l-2 4-2 5 21 13 23 13 27 14 28 12 17 6 22 7 27 6 22 3h52l10-5 7-8 7-11 10-13 9-11 11-12 8-8 8-7 9-8 20-15 22-14 23-12 26-11 22-7 30-7 18-3 10-1h36l32 4-2-6-11-26-7-23-8-29-7-36-3-24-1-16v-33l2-28 7-38 7-29 5-15 8-23 13-30 13-25 7-14-1-5-9-20-12-24-12-34-6-25-4-23-1-11v-34l2-24 7-39 2-9-32 2-32 1h-69l-55-2-48-3-52-5-59-8-45-7-63-12-47-11-84-21-4 4-12 36-8 30-4 28-3 34-1 17-1 49-3 13-5 8-8 7-5 2-6 1h-11l-9-3-6-4-7-7-4-9-1-4v-43l3-44 5-35 7-37 4-17 7-21 5-13 5-8-1-4-25-11-31-13-33-15-27-13-19-10-20-12-13-10-5-5-6-9-2-5 2-9 7-11 7-10 5-4 4-2h10l25 11 32 17 16 8 29 14 25 11 36 14 37 13 39 12 49 14 36 9 37 8 41 8 41 7 43 6 54 6 50 4 35 2 27 1h96l40-2 54-4 63-8 36-6 52-11 42-10 35-10 37-12 36-13 36-15 26-12 25-12 26-14 28-17 23-15 25-17 24-18 15-12 16-12 10-5 7-2h9l10 5 8 8 7 12 1 3v10l-5 9-12 13-11 9-16 13-16 12-14 10-17 12-10 9-6 10-10 21-6 19-11 40-5 30-4 41-3 52v67l3 65 5 79 10 125 7 107 2 46v40l-2 42-3 30-5 27-5 17-8 20-8 14-11 14-13 13-17 13-17 10-15 6-25 7-23 5-20 2h-40l-21-2-26-4-36-8-29-8-52-17-68-25-24-9-30-11-24-8-15-4-10-1-5-1h-24l-21 3-23 5-27 10-27 13-17 11-19 14-10 8-15 14-7 7-9 11-11 15-9 15-9 17-8 20-6 18-5 21-2 13-1 13v35l3 25 9 45 9 34 12 38 13 35 11 26 15 33 8 15 8 16 12 22 13 21 12 19 11 17 11 16 10 14 12 17 6 10 3 8 1 8-2 8-6 8-4 6-3 5-2 2h-29l-7-8-6-8-12-14-15-20-22-33-12-19-14-24-14-25-17-33-15-32-13-31-14-37-14-44-8-30-8-38-5-34-2-23v-27l4-36 6-31 4-9-4 1h-14l-24-2-27-4-28-6-36-12-20-8-26-12-38-19-24-14-20-12-8-4-6 1-13 7-18 11-27 13-23 8-27 8-19 4-32 4-10 1h-49l-34-4-19-4-18-5-19-7-21-10-19-11-17-12-11-9-12-11-2-1v-2l-4-2-13-14-13-17-10-13-11-17-14-25-13-28-13-35-7-24-12-47-4-23v-122l9-49 15-74 19-86 8-36 10-54 5-33 2-27v-53l-3-38-10-75-7-55-6-45-3-31-2-35v-55l2-24 4-20 7-24 8-20 9-17 5-9 11-16 8-10 14-15 14-13 19-14 17-10 16-8 17-7 20-6 23-4 20-2h40l29 3 24 4 25 6 36 12 34 14 35 16 26 13 22 12 26 14 21 12 24 13 22 12 26 13 36 16 33 13 23 8 34 11 48 12 36 7 41 6 41 4 27 2 27 1h21l29-1 49-4 43-6 39-7 30-7 30-8 38-12 36-13 21-9 23-10 16-8 23-12 41-24 21-13 38-24 23-14 17-10 27-15 27-14 16-8 31-14 35-14 31-10 29-8 25-6zm-200 525-15 5-31 13-27 11-41 15-53 17-57 15-55 12-35 6-48 7-16 4-4 5-8 24-4 23-2 27v34l3 25 5 20 11 28 9 17 10 15 10 13 14 15 10 9 16 12 14 9 16 8 15 5 16 4 19 3 15 5 5 4h2l2 4 2 5 1 12-2 9-5 9-7 8-6 4-3 1-22-1-28-5-23-7-20-8-18-10-12-8-15-11-7-6h-2l-10 24-8 18-12 36-5 18-4 24-3 33v30l2 30 4 26 6 23 12 36 12 26 11 21 9 15 8 11 8 9 16 8 24 9 36 13 30 10 37 10 23 5 27 4 9 1h48l23-4 21-7 13-7 12-9 9-9 8-12 6-18 6-30 2-18 1-17 1-54v-21l-1-45-3-1-6 4-15 12-15 10-17 9-21 8-26 6-30 4-18 1h-40l-20-2-12-6-5-8-4-10v-10l8-16 7-6 10-4 15-1h51l23-2 18-4 16-6 16-9 14-11 9-8 8-10 9-13 10-21 4-16 2-17v-30l-3-37-5-64-3-63-1-35v-44l-1-3-9 3-13 7-14 8-18 8-15 5-26 6-20 3-24 2h-60l-17-2-6-4-4-2-2-5-4-9-1-12 3-12 5-8 10-6 14-3h58l26-1 15-2 19-5 15-6 20-12 12-9 12-11 8-8 10-13 6-14 6-23 7-39 6-23v-5z" fill="#17213C"/>
<path transform="translate(837,698)" d="m0 0 9 3 11 6 11 9 9 10 13 15 12 16 16 24 9 16 12 23 13 31 6 18 8 28 5 23 4 30 2 21v38l-3 34-4 26-7 30-10 32-11 26-13 27-14 23-7 11-12 17-11 13-9 11-13 13-12 9-7 3h-9l-14-7-7-7-8-13-2-4v-6l7-10 8-11 11-13 18-22 7-11 7-10 10-19 8-16 7-15 9-24 7-26 5-26 4-35v-38l-3-28-7-35-10-33-11-26-10-20-13-22-14-20-14-17-13-16-13-18-1-3 4-11 10-13 7-6z" fill="#17213C"/>
<path transform="translate(311,701)" d="m0 0h13l9 4 8 6 6 7 4 12v8l-4 8-12 14-11 13-11 14-14 20-12 19-11 22-10 23-10 28-7 31-5 36-1 15v22l1 19 6 39 7 28 10 27 8 19 14 27 16 23 9 12 12 14 7 9 9 10 6 9 3 8v10l-3 9-8 10-12 7-10 1-10-3-11-7-19-19-9-11-12-15-13-19-8-13-11-19-13-27-8-20-9-26-4-13-7-31-4-28-1-11-1-32v-13l2-27 4-29 11-44 9-26 13-30 8-16 6-10 6-11 10-16 10-14 13-17 9-10 8-10 7-7 9-6z" fill="#18213C"/>
<path transform="translate(572,865)" d="m0 0h13l21 2 20 6 11 5 14 8 14 11 7 7 8 10 10 15 8 16 5 15 3 20v23l-3 19-5 16-8 16-7 12-9 11-13 13-15 10-15 8-17 6-16 3-15 1h-20l-17-3-16-5-19-9-16-12-8-7-11-14-11-17-6-13-4-13-4-21v-29l4-19 4-12 8-17 7-10 8-11 13-13 15-10 23-11 19-5zm-6 63-13 4-13 7-9 7-6 9-7 15-4 16 1 16 4 13 6 12 9 11 14 10 11 4 13 3h16l14-4 11-6 10-8 10-12 5-9 4-19v-13l-2-12-5-13-8-10-8-8-11-7-9-4-10-2z" fill="#17213C"/>
<path transform="translate(362,858)" d="m0 0h13l12 4 9 5 5 6 2 4v14l-5 19-9 27-4 16-2 16-1 15v28l2 16 5 21 10 26 8 15 8 12 13 17 14 15 11 10 19 13 12 8 14 11 9 8 3 6-1 10-6 11-9 11-4 5-5 3h-10l-13-4-23-12-16-11-11-9-10-9-4-3v-2l-4-2-12-13-9-10-12-17-11-18-13-27-9-24-7-25-3-15-3-26v-23l3-27 5-26 6-20 10-25 10-16 7-6z" fill="#17213C"/>
<path transform="translate(670,754)" d="m0 0h16l16 6 22 13 14 10 11 9 10 9 16 16 9 11 9 12 13 21 11 22 8 19 5 15 8 34 3 23v34l-3 26-5 23-6 21-9 21-8 15-9 9-6 3-10 1-9-3-15-10-6-7-2-5v-11l7-21 5-14 4-15 4-20 2-21v-24l-2-21-6-23-6-16-8-16-8-15-12-17-12-14-13-12-10-8-18-12-14-10-12-11-6-10-1-6 5-13 4-6 5-6z" fill="#17213C"/>
</svg>
