<?xml version="1.0" encoding="UTF-8"?>
<svg version="1.1" viewBox="0 0 2048 2048" width="128" height="128" xmlns="http://www.w3.org/2000/svg">
<path transform="translate(1029,56)" d="m0 0h34l27 2 26 4 40 10 24 8 35 14 34 17 23 14 28 20 14 12 10 9 13 13 9 11 7 8 11 16 8 13 12 23 8 18 9 25 6 25 4 25 3 30v48l-4 37-6 35-6 26-11 38-10 28-9 21 1 6 18 12 10 9 7 7 10 15 7 15 5 17 2 17v36l-3 20-4 15-8 17-9 15-8 10-9 9-16 9-21 7-6 3-1 2-3 20-8 27-10 29-11 25-10 20-10 17-7 10-12 18-9 12-12 14-16 16-8 7-10 9-3 5 1 14 6 34 10 42 7 21 6 9 8 4 31 10 92 28 36 11 19 6 9 5 4 5 2 4 4 17 2 2 7 1 16-1 13-1 26 4 27 6 30 8 21 7 21 9 17 8 23 13 16 11 14 10 14 11 14 12 28 28 9 11 13 17 10 15 15 26 13 27 8 21 10 32 5 23 4 31 1 12 1 26v312l-2 12-6 7-9 3-21 2-565 1-85 1-7 1h-28l-11-1-5-1h-142l-4 2h-28l-2-1-113-1-560-1-9-2-5-5-4-9-2-10-1-12v-294l1-26 3-29 4-24 6-24 9-27 11-27 14-27 14-22 10-14 9-12 9-11 9-10 7-8 11-11 8-7 9-8 10-8 15-11 18-11 15-9 21-11 29-12 24-8 42-10 21-3h42l4-1v-8l5-13 8-7 16-7 37-12 30-9 29-9 43-13 20-6 16-7 5-5 5-12 6-19 8-35 8-38 1-5v-7l-7-9-15-14-14-14-9-11-13-17-9-13-11-17-14-25-10-21-9-23-10-30-6-25-1-9-5-5-21-7-15-8-14-13-9-12-9-16-6-14-4-15-3-21v-33l1-13 7-23 10-19 10-13 9-10 8-7 1-4-6-9-13-25-12-28-7-19-8-26-8-29-6-30-3-25-1-13v-36l3-25 9-35 10-28 10-20 11-18 10-14 11-14 15-16 11-9 12-9 19-12 23-11 26-10 27-7 20-3 26-2 7-3 11-12 8-7 11-10 17-12 13-8 25-13 19-7 26-7 22-4zm0 54-22 3-26 6-24 8-15 7-14 8-11 8-11 9-10 9-9 10v2h-2l-7 8-7 6-4 2-35 1-27 4-24 6-18 7-23 12-11 8-10 8-8 7v2h-2v2h-2v2l-3 1-15 20-8 14-8 16-8 21-8 28-6 31-5 40-3 29-1 17v29l3 18 4 12 7 13 9 12 7 9 5 4h4l3-7 9-57 4-20 9-29 10-25 10-20 8-14 10-16 13-18 9-11 9-10 7-8 12-12 20-16 16-10 9-4h7l14 7 18 13 14 11 26 17 15 9 16 9 30 13 33 11 20 5 25 4 32 3 19 1h21l11-1h35l23 5 17 6 23 11 16 11 11 9 13 12 7 8 12 16 10 15 16 30 8 16 5 9 2 1 3-17 10-58 5-35 2-22v-43l-4-34-4-19-11-33-12-24-11-18-12-16-11-12-13-13-11-9-14-11-15-10-21-12-29-14-28-11-24-8-32-8-24-4-21-2zm-191 244-8 7-15 15-9 11-12 17-15 23-9 19-7 14-9 23-5 18-6 29-4 34-1 15v12l1 21 5 18-1 10-7 14-7 6-14 5-16 1-12 3-6 4-4 8-5 18-1 8v29l3 16 6 15 8 11 8 6 14 7 25 7 10 5 3 6 10 46 8 28 7 21 11 26 10 19 9 15 10 14 14 17 9 10 16 14 17 12 20 13 16 9 20 9 30 10 20 4 24 3 35 1 26-2 25-5 24-7 16-6 23-11 27-18 19-14 12-11 11-11 11-14 8-11 10-15 12-23 8-17 11-29 8-30 10-44 4-11 2-2 31-7 13-5 9-6 5-5 5-8 4-10 4-24 1-24-3-17-6-16-5-7-6-3-36-1-10-4-6-9-3-9-6-44-4-19-10-32-8-19-11-20-10-15-12-13-11-10-17-11-14-6-19-6-9-1h-30l-29 1-30-1-35-4-22-4-24-6-29-9-21-8-28-13-26-14-27-18-20-14zm45 751-2 4-2 17-8 31-10 34-8 22-5 11-1 3-1 19 6 39 12 84 6 33 3 10 3 2 5 1 77 4h138l65-4 7-2 4-13 8-43 5-32 10-75 2-10v-12l-5-13-8-19-12-42-5-24-3-23-1-2-9 2-21 8-29 8-27 6-24 3-13 1h-40l-30-3-28-6-21-6-21-7-14-6zm368 154-2 5-7 45-8 55-4 27-6 47-5 29-5 28-9 62-7 44-9 60-7 43-6 45-10 68-1 12h2l10-13 14-24 11-18 14-22 12-20 11-17 14-22 8-14 14-22 12-20 11-18 8-13 15-25 10-16 12-20 9-14 5-8v-5l-7-9-6-8-7-7-7-8-10-11-7-8-2-5v-15l4-11 12-25 8-16 16-34 25-50 3-12-8-5-52-15-56-17-9-3zm-464 1-25 7-34 11-46 13-16 5-1 3 5 15 9 20 16 32 9 20 10 19 8 16 9 20 3 13v9l-9 10-7 8-9 10-9 11-7 6-7 11 8 16 8 13 11 18 12 20 11 17 12 20 20 32 12 19 11 18 10 16 9 14 24 38 16 26 8 14 10 17 10 15 1 2 2-1-3-13-9-60-7-48-10-65-10-66-10-67-10-58-4-26-8-60-8-55-6-49-2-6zm-199 81-22 2-16 4-11 6-11 9-10 13-7 10-12 22-7 17-11 34-6 28-4 31-2 24 7 2 27 1 19 3 23 7 26 13 14 10 10 8 14 14 9 12 10 16 10 21 8 25 5 23 2 15 1 25-2 14-6 10-8 8-7 4-6 1-15-3-23-7-13-7-4-5-5-9v-10l6-8 7-6 16-9 4-5v-7l-4-15-6-16-9-17-9-12-9-10-11-9-16-10-15-6-12-3-9-1h-23l-13 3-18 7-14 9-11 9-8 8-7 10-7 11-7 18-4 17-1 7v28l4 17 4 10 5 6 12 3 17 1 11 2 5 4 4 10 1 6-2 12-4 6-8 6-14 8-18 6-10 2h-12l-10-5-8-9-10-18-9-23-7-21-4-19-2-21 1-21 5-23 8-22 10-19 8-12 10-13 11-12 11-9 19-14 3-3 1-56 2-17 6-33 9-32 10-26 7-19v-3l-6 1-12 7-13 9-14 10-18 14-15 13-8 7-6 6v2h-2l-9 11-11 13-9 13-10 15-12 23-7 14-8 20-5 15-6 25-4 28-2 23-1 30-1 210v54l1 1 598-2 6-1-2-5-7-11-10-16-13-22-12-19-13-21-14-22-30-48-13-21-11-18-12-19-12-20-24-39-9-15-15-24-14-23-10-15-10-17-14-24-7-15-2-13 3-6 7-7 7-8 6-6v-2h2l7-8 11-12 6-8v-7l-13-28-14-29-11-23-8-14-5-6-7-3zm845 0-10 3-6 7-10 18-7 16-8 16-8 18-13 27 6 12 11 12 12 13 10 10 8 10 3 8-1 9-4 10-13 22-11 18-10 16-16 27-9 14-12 20-13 20-13 22-10 15-13 22-13 20-10 17-12 19-10 16-12 20-10 15-16 27-17 26-10 17-13 18-9 13 2 2 41 1h560l6-2v-36l-1-243-2-34-4-33-7-27-7-20-11-25-11-21-12-19-13-18-9-10-7-8-18-18-22-18-15-10-19-11-29-15-20-9-6-2 10 23 9 25 11 40 8 37 5 32v25l-1 4 5 5 23 12 11 7 10 8 8 7 11 14 8 14 8 18 3 13v32l-5 19-8 16-7 12-8 10-11 11-13 9-13 6-19 6-12 2h-26l-19-4-16-6-13-8-11-9-7-7-11-15-9-17-6-19-2-15v-15l3-19 5-15 10-19 8-11 8-8 13-9 23-12 8-6 1-1v-12l-6-40-6-31-8-30-7-20-8-21-8-16-6-11-9-13-7-8-7-4-10-2-9-1zm-553 127 1 10 5 33 11 73 8 52 7 49 7 44 7 48 8 50 8 57 7 42 2 9 1 1 15 1h109l13-1 2-1 10-52 13-90 7-46 10-68 6-39 9-62 13-80 5-24v-5l-62 3-38 1h-102l-43-2zm697 138-17 3-10 4-10 9-7 11-6 16-1 4v10l5 16 7 12 10 10 9 6 12 4 6 1h15l10-3 11-6 12-11 8-14 3-12v-17l-4-15-6-10-4-5-9-6-12-5-13-2z" fill="#15203C"/>
</svg>
