<?xml version="1.0" encoding="UTF-8"?>
<svg version="1.1" viewBox="0 0 2048 2048" width="128" height="128" xmlns="http://www.w3.org/2000/svg">
<path transform="translate(1524)" d="m0 0h33l6 11 4 9 6 18 6 26 5 31 3 27 1 16v50l-3 34-6 50-7 36-10 45-13 48-19 68-15 52-13 47-14 56-6 34-7 49-3 32v44l4 41 7 41 7 30 12 37 11 28 12 27 13 28 19 38 12 22 14 26 15 27 26 46 12 21 16 29 15 28 13 25 11 23 14 31 15 39 8 25 10 36 6 27 7 39 4 33 2 26 1 23v47l-2 47-3 36-4 28-11 64-17 70-15 50-17 47-13 32-9 20-11 21-5 7h-31l-4-9-4-6-8-9-2-5 1-8 8-20 14-36 11-30 12-36 13-44 12-51 6-29 7-47 5-42 2-28 1-23v-37l-3-42-4-37-5-32-7-31-6-22-12-38-12-31-13-29-15-31-10-19-14-26-10-18-13-23-15-27-13-23-15-27-7-12-7-14-9-16-8-16-8-15-11-23-9-19-14-32-12-31-12-36-7-26-7-34-4-26-2-18-1-15-1-38 1-39 2-26 5-38 11-57 8-33 14-53 30-104 14-50 10-41 8-38 6-32 4-35 2-36v-44l-3-32-5-30-7-33-1-12 3-9 6-8 7-9z" fill="#15213C"/>
<path transform="translate(666,408)" d="m0 0 6 1 33 22 13 8 5 4-1 9-5 19-11 28-9 21-20 38-8 13-12 20-20 28-8 11-11 16-14 19-11 13-10 13-13 16-9 12-9 11-7 9-13 16-8 10-13 17-24 32-10 14-10 15-12 19-9 14-12 22-5 9-15 29-14 31-15 40-9 28-8 28-7 37-6 43-3 32v43l4 40 5 32 7 31 12 36 11 27 10 21 13 22 14 21 10 13 12 14 9 10 12 13 5 4 6 7 11 9 11 10 16 12 19 14 24 15 21 12 27 14 26 12 28 11 21 8 25 8 34 10 27 8 5 4 1 4v58l-10-2-52-13-36-11-41-14-27-11-27-12-26-13-19-11-18-11-18-12-17-12-14-11-15-13-14-12-11-11-7-6-7-8-9-9-7-8-11-13-13-17-7-10-10-15-8-13-15-28-11-23-11-28-12-37-8-36-5-32-3-34v-77l3-34 6-39 10-45 7-25 12-36 14-35 15-33 9-17 8-16 9-16 8-14 12-19 10-16 10-15 12-17 12-16 11-15 14-18 13-17 9-11 11-14 8-10 7-9 12-15 22-28 9-11 24-34 7-10 15-23 15-25 7-14 9-17 13-32 6-19 7-30z" fill="#15213C"/>
<path transform="translate(642)" d="m0 0h30l6 7 8 7 4 5 1 3v8l-15 61-4 28v34l5 32 6 22 7 20 13 25 12 17 9 11 21 21 14 11 19 12 15 8 15 6 21 7 21 4 8 1h41l30-5 20-5 15-5 15-7 11-6 20-12 12-5h7l9 4 11 8 5 10 1 4v10l-4 9-8 11-11 11-15 10-21 10-15 5-38 10-25 4-17 2-16 1h-25l-21-2-24-4-27-8-29-12-20-11-19-13-16-13-12-11-10-10-7-8-14-18-13-21-14-27-8-19-8-24-6-26-3-23v-59l3-24 6-28 9-26 6-12 8-13z" fill="#15213C"/>
<path transform="translate(866,1569)" d="m0 0h13l13 3 8 5 6 7 1 5v96l2 34 4 36 5 28 9 41 8 29 14 41 13 31 14 29 8 16 17 33 5 15-2 6-7 8-6 5-6 11h-27l-8-12-11-16-10-17-14-26-13-28-7-16-11-29-12-36-8-28-9-40-7-41-6-53-1-26v-23l1-29 2-25 4-20 6-9 8-4z" fill="#15213C"/>
<path transform="translate(1469,1376)" d="m0 0h9l8 3 7 6 10 17 11 25 15 42 10 35 5 22 4 27 2 21 1 21v24l-1 27-4 39-5 19-4 9-6 8-5 3-4 1h-17l-10-3-7-6-6-9-2-6v-18l6-38 1-14v-31l-3-33-6-38-7-28-9-29-7-19-12-36-2-10v-12l7-8 14-9z" fill="#15213C"/>
<path transform="translate(602,1734)" d="m0 0 12 3 44 15 6 4 3 5 8 45 11 52 9 31 11 33 12 29 11 25 13 28 5 14-2 5-7 8-5 4-6 11-2 2h-27l-8-14-8-11-12-23-14-30-12-31-12-36-9-31-9-43-6-37-5-38-2-13v-6z" fill="#15213C"/>
<path transform="translate(710,702)" d="m0 0 10 1 10 4 6 4v2l4 2 6 8 3 7v8l-7 11-11 14-9 10-9 11-9 10-10 13-12 17-10 13-12 19-11 18-13 16-6 4h-10l-12-4-9-6-7-6-4-7-1-8 6-17 10-19 10-17 18-27 10-13 13-17 14-17 9-9 7-8 12-11 10-5z" fill="#15213C"/>
<path transform="translate(510,1275)" d="m0 0h8l9 4 9 7 7 9 8 16 2 7v9l-4 10-6 8-5 6-6 4-8 1-8-4-11-9-9-12-5-10-4-13v-8l10-18 5-4z" fill="#15213C"/>
</svg>
