<?xml version="1.0" encoding="UTF-8"?>
<svg version="1.1" viewBox="0 0 2000 2000" width="16" height="16" xmlns="http://www.w3.org/2000/svg">
<path transform="translate(1141,521)" d="m0 0 10 1 7 2 16 16 9 11 10 13 13 19 11 16 8 13 9 16 8 16 10 21 11 29 9 31 7 29 5 30 3 29 2 32v14l-3 36-4 31-8 38-9 32-10 28-8 18-16 32-20 32-12 16-10 13-11 13-12 14-39 39-30 23-15 10-15 9-16 9-36 18-17 7-30 10-29 8-40 9-27 4-20 2-29 1-26-1-39-4-42-8-31-9-33-11-20-9-17-8-22-12-16-10-14-10-17-13-17-14-11-9-10-10-3-5v-7l2-2h8l9 6 14 12 23 15 21 12 27 14 23 11 18 7 23 7 44 11 27 4 31 3h49l35-3 24-3 37-9 23-7 26-9 19-8 4-4 2-6 1-28-1-8-290-1-1-2v-206l1-2h217l57 1 19 1-1-231v-47l1-2 130-1h52l19 1 1 1 1 18v257h24l5-12 6-20 6-26 6-35 2-16 1-5v-62l-2-10-4-35-8-39-7-25-14-41-14-31-9-16-11-16-13-18-14-19-16-22 1-3z" fill="#242C48"/>
<path transform="translate(1189,1183)" d="m0 0h4l1 3v266l-26 1-44 1-82 1h-38l-1-2v-142l5-5 34-12 27-14 19-12 17-12 14-12 19-14 11-10 11-9 13-12 5-5z" fill="#62CAC8"/>
<path transform="translate(1402,994)" d="m0 0h36l15 5 16 8 9 7 8 9 8 14 6 15 3 10 1 8v11l-2 12-6 16-8 13-8 10-9 9-12 7-18 6-10 2h-19l-22-5-17-10-12-11-7-7-8-16-5-11-2-11v-24l2-10 8-16 7-11 8-9 5-5 13-8 12-6z" fill="#62CAC8"/>
<path transform="translate(1420,949)" d="m0 0 22 1 19 4 13 5 21 12 13 10 13 12 10 16 8 16 7 19 2 9v42l-4 16-5 14-12 23-11 14-8 9-15 11-16 8-15 6-21 6-5 1h-39l-6-3-20-6-16-8-13-8-15-15-11-15-9-16-8-17-4-14-1-11v-28l1-15 7-22 8-14 9-11 13-13 7-8 7-6 22-12 20-8 14-3zm-9 18-15 2-16 5-15 8-13 11-5 4v2l-4 2-8 9-9 14-7 14-3 11v43l4 16 8 16 8 14 12 14 9 9 19 11 11 5 11 2 41 2 15-4 13-5 16-9 10-8 11-11 12-19 6-14 4-15 1-8v-24l-2-14-5-17-8-16-8-12-11-11-12-9-14-8-11-5-18-4-8-1z" fill="#314A65"/>
<path transform="translate(1304,979)" d="m0 0h4l-1 9-15 30-7 20-4 16v26l2 21 5 21 10 23 12 17 7 9 4 7-9 1h-117l2-4 9-12 14-20 20-30 12-19 8-14 9-12 10-22 11-32 8-22z" fill="#62CAC8"/>
<path transform="translate(507,1169)" d="m0 0h8l9 6 14 12 23 15 21 12 27 14 23 11 18 7 23 7 44 11-2 4h-8l-5-2-4-2-16-3v-2h-12l-12-3-5-1-9-4-5-1-2-2-4 1v-2h-6l-2-2-10-4-15-8-3-1-1-2-8-4v-3l-10-1-4-2v-2l-3-1-2-2-5-1v-2h-2v-2l-6-1-1-2-6-3-6-5-7-3v4h2l1 5 4 2 7 3v4l5 1 6 3 2 4 5 2 4 5 3 2 1 3 16 8 3 1 1 2 11 4v2l5 1 3 2 6 2v2h5l12 7 5 3 18 8 7 2 8 3 5 1v2l4-1 3 2 9 1v2l3-1 6 3 11 1 8 4 9 1 5 1 1 2 9 1 7 1 6 2 4 1 22 2 30 1 35-1 16-1 2-1 21-2 30-6 4-2 8 1-4 2-36 8-22 3-20 2-29 1-26-1-39-4-42-8-31-9-33-11-20-9-17-8-22-12-16-10-14-10-17-13-17-14-11-9-10-10-3-5v-7z" fill="#324B66"/>
<path transform="translate(1281,922)" d="m0 0 1 4-8 38-9 32-10 28-8 18-16 32-20 32-12 16-10 13-11 13-12 14-39 39-30 23-7 5-2-1 11-10 7-4 7-7h2l2-4 4-4h3v-2l8-7 5-6 6-5h2v-2l13-10 5-6 9-9 1-4 5-5 4-5 5-5 7-10 4-4 10-14 7-11 9-14 6-11 7-14 11-26 5-11 3-7 4-14 3-12 3-9 1-6h2l1-11 2-10 2-6 1-5 5-15z" fill="#334E68"/>
<path transform="translate(1141,521)" d="m0 0 10 1 7 2 16 16 9 11 10 13 13 19 11 16 8 13 9 16 8 16 10 21 11 29 9 31 1 7-4-4-3-12-3-9-3-7-3-11-3-7v-3l-2-1v-4l-2-1-2-8h-2l-1-5-2-2-3-13-4-5-5-9-3-3-3-9-2-1-6-12-10-14v-3h-2l-3-3v-4l-3-1v-2h-2l-1-4-3-1-1-6h-3l-2-3v-3h-2l-1-6-4-1-1-3h-2l-2-5-2-2 1-2-3 1-3-5v-2l-4-1-9-8-7-1v2l-5-1 1 4-5-5-1-4z" fill="#324C67"/>
<path transform="translate(943,1249)" d="m0 0 2 1-9 5-6 2h-5l-1 3-10 1v2l-7 2-7 1-3 2-18 1-7 3h-17l-1-1h-5l-3 2-18 1-6 1h-57l-9-2-5-2h-18l-5-2-8-3 4-1 30 4 21 2h49l35-3 24-3 37-9z" fill="#34526B"/>
<path transform="translate(996,699)" d="m0 0 2 4 1 3 1 37v200l1 31-2 3h-2l-1-231z" fill="#35536C"/>
<path transform="translate(704,975)" d="m0 0h217l57 1 19 1v1l-15 1-4 1h-22l-14-1-19-1-103-1-113 1-3 1-1-2z" fill="#36576F"/>
<path transform="translate(1395,1185)" d="m0 0h9l7 1h8l5 1 16 1v2l4 1-5 5-4 2-10 1-2 1-10-1-11-1-7-2-2-4-3-1 1-4z" fill="#242C48"/>
<path transform="translate(703,1172)" d="m0 0h1l2 8h5v2l4-1 5 1h24l31 1h191l15-2 12 2 3 3v8h-1l-1-8-290-1-1-2z" fill="#385C73"/>
<path transform="translate(1217,652)" d="m0 0 5 1 2 8 2 1 4 9 1 4 4 11 2 11 2 4 1 11 3 3v12l3 6v5l1 1-1 8 2 6 1 7v19l-2-2-3-25-8-39-7-25z" fill="#314B65"/>
<path transform="translate(1517,1147)" d="m0 0 1 4-4 2-1 6-6 9h-2v2l-8 6h-2v2l-7 3-1-2h-5l-2-2v-3l2-6 6-3 2-2h3l1-4 7-2 7-6h4v-2z" fill="#242C48"/>
<path transform="translate(926,1294)" d="m0 0 8 1-4 2-36 8-22 3-20 2-29 1-26-1-30-3 4-2 17 1 30 1 35-1 16-1 2-1 21-2 30-6z" fill="#36586F"/>
<path transform="translate(1074,1235)" d="m0 0 3 1-5 4-19 11-38 19-17 7-30 10-13 3 2-3 10-3 7-3 21-7 11-4h3v-2l12-5 8-4 4-1 24-12 7-5 7-4h3z" fill="#34516B"/>
<path transform="translate(1167,1158)" d="m0 0v3l-40 40-30 23-7 5-2-1 11-10 7-4 7-7h2l2-4 4-4h3v-2l8-7 5-6 6-5h2v-2l13-10 5-6z" fill="#314964"/>
<path transform="translate(1241,646)" d="m0 0h2l9 19 11 29 9 31 1 7-4-4-3-12-3-9-3-7-3-11-3-7v-3l-2-1v-4l-2-1-2-8h-2l-1-5-2-2-2-7z" fill="#334E68"/>
<path transform="translate(980,1181)" d="m0 0 13 2 3 3v8h-1l-1-8-148-1v-1l41-1h79z" fill="#304662"/>
<path transform="translate(1304,979)" d="m0 0h4l-1 9-15 30-7 20-3 11-2-3 1-5 9-27 8-22z" fill="#7BD2D0"/>
<path transform="translate(1177,577)" d="m0 0 6 2 1 3 6 5 5 5v3h2l2 9h2l2 9 6 10-1 4h-2l-8-17-12-19-9-12z" fill="#324B66"/>
<path transform="translate(1249,787)" d="m0 0 3 2 2 10v37l-1 28-3 6-1 5h-1l1-11 1-5v-62z" fill="#334E68"/>
<path transform="translate(1224,1081)" d="m0 0 1 3-14 22-12 16-10 13-11 13-9 11-2-2 5-5 1-4 5-5 4-5 5-5 7-10 4-4 10-14 14-22z" fill="#35556D"/>
<path transform="translate(720,1265)" d="m0 0 18 2 25 3 12 1 35 1v1l-27 2h-18l-9-2-5-2h-18l-5-2-8-3z" fill="#3C677B"/>
<path transform="translate(995,1202)" d="m0 0h1v26l-2 4-16 8-11 4h-2v2l-17 5-2-1v-2l23-8 19-8 4-4 2-6z" fill="#34516A"/>
<path transform="translate(1238,929)" d="m0 0 2 2v7l-3 7-1 8-2 6v3h-2l1 3-2 6-3 2-2-1 1-5 7-22z" fill="#34506A"/>
<path transform="translate(704,975)" d="m0 0 93 1v1l-90 1-3 1-1-2z" fill="#304662"/>
<path transform="translate(1247,880)" d="m0 0h1v18l-2 2-2 14v6l-4 7-1-2 7-38z" fill="#3B6479"/>
<path transform="translate(980,1181)" d="m0 0 13 2 3 3v8h-1l-1-8-28-1 1-2z" fill="#334E68"/>
<path transform="translate(720,1265)" d="m0 0 18 2 16 2-3 2h-18l-5-2-8-3z" fill="#35536C"/>
<path transform="translate(1244,746)" d="m0 0 3 3 2 11v19l-2-2-3-25z" fill="#34526C"/>
<path transform="translate(1188,1133)" d="m0 0v3l-9 11-10 12-2-2 5-5 1-4 5-5 4-5z" fill="#36566E"/>
<path transform="translate(1289,1017)" d="m0 0 3 1-7 20-3 11-2-3 1-5z" fill="#C4EAEA"/>
<path transform="translate(926,1294)" d="m0 0 8 1-4 2-17 4h-6l1-2 14-3z" fill="#35536C"/>
<path transform="translate(995,1202)" d="m0 0h1v26l-2 4-8 3v-2l5-3 3-8z" fill="#417485"/>
<path transform="translate(810,1272)" d="m0 0h18v2l-6 1h-27v-2z" fill="#304662"/>
<path transform="translate(1074,1235)" d="m0 0 3 1-5 4-15 9v-3l7-5 7-4h3z" fill="#36556E"/>
<path transform="translate(984,1234)" d="m0 0 2 1-8 5-11 4-2-1 6-4z" fill="#334E68"/>
<path transform="translate(1054,1247)" d="m0 0h2l-1 3-20 10-2-1 5-4 11-5z" fill="#304662"/>
<path transform="translate(1195,697)" d="m0 0 4 1v11l-1-2h-2l-3-9z" fill="#314864"/>
<path transform="translate(943,1249)" d="m0 0 2 1-9 5-6 2h-5l2-3z" fill="#36586F"/>
<path transform="translate(704,975)" d="m0 0h12l7 1v2h-16l-3 1-1-2z" fill="#35556D"/>
<path transform="translate(1103,1216)" d="m0 0 1 3-14 10-2-1 11-10z" fill="#334F69"/>
<path transform="translate(943,1289)" d="m0 0h8l3 2-11 3-4-1z" fill="#335069"/>
<path transform="translate(1224,1081)" d="m0 0 1 3-8 13-2-1 2-5 6-9z" fill="#35536C"/>
<path transform="translate(902,1300)" d="m0 0 7 1v1l-17 3 1-3z" fill="#395E75"/>
<path transform="translate(1243,910)" d="m0 0 1 4v6l-4 7-1-2 3-14z" fill="#34516A"/>
<path transform="translate(1145,534)" d="m0 0 4 2 4 5 5 6-1 4-11-15z" fill="#35546D"/>
<path transform="translate(1238,929)" d="m0 0 2 2v7l-5 5z" fill="#36566E"/>
<path transform="translate(1284,1033)" d="m0 0h1l-1 8-2 8-2-3 1-5z" fill="#96DBDA"/>
<path transform="translate(968,1283)" d="m0 0m-1 1m-5 1h5v2l-12 3 2-3z" fill="#334F69"/>
<path transform="translate(1244,746)" d="m0 0 3 3 1 4-2 5h-1z" fill="#395F75"/>
</svg>
