<?xml version="1.0" encoding="UTF-8"?>
<svg version="1.1" xmlns="http://www.w3.org/2000/svg" width="512" height="512">
<path d="M0 0 C1.01790619 0.00215515 2.03581238 0.0043103 3.08456421 0.00653076 C17.69363523 0.05620146 32.02575853 0.30709809 46.375 3.3125 C47.34985352 3.51117676 48.32470703 3.70985352 49.32910156 3.91455078 C97.7109774 14.03517194 141.69928269 35.9516877 177.375 70.3125 C178.3640332 71.26068604 178.3640332 71.26068604 179.37304688 72.22802734 C188.86130305 81.37247479 197.6012044 90.66984009 205.375 101.3125 C206.23306152 102.46355017 207.09113451 103.61459177 207.94921875 104.765625 C213.98736829 112.95680614 219.34595521 121.47054105 224.375 130.3125 C224.73948242 130.94430176 225.10396484 131.57610352 225.47949219 132.22705078 C247.08534998 169.97532572 256.85198095 212.74189997 256.6875 255.9375 C256.68534485 256.95540619 256.6831897 257.97331238 256.68096924 259.02206421 C256.63129854 273.63113523 256.38040191 287.96325853 253.375 302.3125 C253.07698486 303.77478027 253.07698486 303.77478027 252.77294922 305.26660156 C242.65232806 353.6484774 220.7358123 397.63678269 186.375 433.3125 C185.74287598 433.97185547 185.11075195 434.63121094 184.45947266 435.31054688 C175.31502521 444.79880305 166.01765991 453.5387044 155.375 461.3125 C154.22394983 462.17056152 153.07290823 463.02863451 151.921875 463.88671875 C143.73224019 469.92427396 135.22961724 475.30707302 126.375 480.3125 C125.66778809 480.7146875 124.96057617 481.116875 124.23193359 481.53125 C101.09654164 494.5566741 75.92537591 503.30551461 49.9375 508.625 C49.21860596 508.77235596 48.49971191 508.91971191 47.7590332 509.0715332 C33.08339502 511.86090125 18.55831162 512.66142619 3.64770508 512.62817383 C0.70811513 512.6250221 -2.2304558 512.64854926 -5.16992188 512.67382812 C-18.54306192 512.71848737 -31.43916711 511.51301542 -44.625 509.3125 C-46.33055054 509.03031616 -46.33055054 509.03031616 -48.07055664 508.74243164 C-91.33802759 500.97044532 -132.38793216 480.98345309 -165.625 452.3125 C-166.37007813 451.67828125 -167.11515625 451.0440625 -167.8828125 450.390625 C-181.38779833 438.57948485 -194.05918743 425.82889772 -204.625 411.3125 C-205.48149066 410.16255169 -206.33826433 409.01281411 -207.1953125 407.86328125 C-213.23534209 399.67315742 -218.61867614 391.16870382 -223.625 382.3125 C-224.0271875 381.60528809 -224.429375 380.89807617 -224.84375 380.16943359 C-237.8691741 357.03404164 -246.61801461 331.86287591 -251.9375 305.875 C-252.08485596 305.15610596 -252.23221191 304.43721191 -252.3840332 303.6965332 C-255.35789088 288.05024391 -255.99800362 272.57681954 -255.9375 256.6875 C-255.93534485 255.66959381 -255.9331897 254.65168762 -255.93096924 253.60293579 C-255.88129854 238.99386477 -255.63040191 224.66174147 -252.625 210.3125 C-252.42632324 209.33764648 -252.22764648 208.36279297 -252.02294922 207.35839844 C-241.90232806 158.9765226 -219.9858123 114.98821731 -185.625 79.3125 C-184.99287598 78.65314453 -184.36075195 77.99378906 -183.70947266 77.31445312 C-174.56502521 67.82619695 -165.26765991 59.0862956 -154.625 51.3125 C-153.47394983 50.45443848 -152.32290823 49.59636549 -151.171875 48.73828125 C-142.98224019 42.70072604 -134.47961724 37.31792698 -125.625 32.3125 C-124.91778809 31.9103125 -124.21057617 31.508125 -123.48193359 31.09375 C-100.34654164 18.0683259 -75.17537591 9.31948539 -49.1875 4 C-48.46860596 3.85264404 -47.74971191 3.70528809 -47.0090332 3.5534668 C-31.36274391 0.57960912 -15.88931954 -0.06050362 0 0 Z " fill="#FF2147" transform="translate(255.625,-0.3125)"/>
<path d="M0 0 C6.1692805 3.47022028 10.73722785 7.84306963 13.375 14.4375 C14.66894437 21.81298288 14.49107748 26.62206339 10.94140625 33.24609375 C8.09410297 37.28502497 4.58850984 40.49922365 1.02075195 43.89672852 C-13.23751887 57.73902372 -21.75107962 77.59840608 -22.42382812 97.43994141 C-22.5796317 121.62844714 -13.7406595 143.79784655 3.12109375 161.1875 C20.61836095 177.62529964 42.42538075 183.84287874 65.9609375 183.3125 C85.98236197 182.40070837 106.70074772 172.74739451 120.359375 158.01953125 C136.00679262 138.75830528 143.84001413 115.90609381 142 91 C139.6645346 71.92490553 130.09418647 54.62900384 116.3125 41.4375 C110.63728849 35.90416878 105.93205571 30.08405855 105.5 21.875 C106.57327522 13.55711701 109.6135033 7.58355224 116 2 C121.28119709 -1.37541502 126.75720246 -3.16452185 133 -2 C139.97345024 0.07484699 144.84989977 4.00897623 150 9 C150.70898438 9.64710938 151.41796875 10.29421875 152.1484375 10.9609375 C169.96280088 27.77519627 182.38705978 52.05819053 187 76 C187.30550781 77.50240234 187.30550781 77.50240234 187.6171875 79.03515625 C193.49479547 112.81127328 184.79625441 148.16262183 165.25 176.125 C153.38008389 192.48834672 138.77556815 205.37328304 121 215 C120.40880371 215.32097656 119.81760742 215.64195312 119.20849609 215.97265625 C89.35480153 231.81508312 53.00811019 234.4623665 20.82421875 224.671875 C6.84711687 220.0600382 -6.43201656 213.08154926 -18 204 C-18.54060059 203.57605957 -19.08120117 203.15211914 -19.63818359 202.71533203 C-46.96633614 181.05383376 -64.19929712 150.32389661 -68.71142578 115.77734375 C-69.53523655 107.84868786 -69.44507476 99.94916618 -69 92 C-68.94199219 90.94570801 -68.94199219 90.94570801 -68.8828125 89.87011719 C-67.73796055 72.60473958 -62.37939227 55.79659013 -53.97167969 40.74316406 C-53.06197609 39.11118323 -52.18968019 37.4585079 -51.3203125 35.8046875 C-46.86643223 27.64279207 -41.23734678 20.83218337 -35 14 C-34.53513184 13.48453613 -34.07026367 12.96907227 -33.59130859 12.43798828 C-24.27648755 2.21488234 -14.19522539 -6.17183713 0 0 Z " fill="#FFFDFD" transform="translate(196,166)"/>
<path d="M0 0 C7.20211493 4.09895287 12.19727454 10.05956803 14.6875 18 C15.10165755 21.09880092 15.10829661 24.15763644 15.09155273 27.28076172 C15.09841599 28.1841629 15.10527924 29.08756409 15.11235046 30.01834106 C15.13057198 32.98895219 15.12678717 35.95903276 15.12109375 38.9296875 C15.12565814 41.00562714 15.13096448 43.08156527 15.13697815 45.15750122 C15.14590042 49.50333809 15.14349655 53.8489911 15.13354492 58.19482422 C15.12206315 63.7485457 15.14225943 69.3016306 15.17146206 74.85526848 C15.18985926 79.14140823 15.18952445 83.42739648 15.18382454 87.71356583 C15.18367172 89.76037615 15.1896833 91.807197 15.20211601 93.85396957 C15.21708871 96.72319534 15.20630248 99.5912584 15.18920898 102.46044922 C15.19887695 103.29606384 15.20854492 104.13167847 15.21850586 104.99261475 C15.11072588 113.68576256 11.81040226 120.87709774 5.6875 127 C-1.67615312 132.17445895 -8.52237324 132.61089684 -17.3125 132 C-23.37926336 130.79278571 -28.24415272 127.62593802 -32.3125 123 C-36.39298128 116.47122996 -37.46762714 110.731386 -37.50537109 103.08154297 C-37.51354858 102.16897232 -37.52172607 101.25640167 -37.53015137 100.31617737 C-37.55499265 97.29152072 -37.57152049 94.26691107 -37.5859375 91.2421875 C-37.59392302 89.69102423 -37.59392302 89.69102423 -37.60206985 88.10852432 C-37.62879921 82.63225292 -37.6481726 77.15600428 -37.66259766 71.6796875 C-37.67592425 67.15376519 -37.70375396 62.62829507 -37.74462891 58.10253906 C-37.79402581 52.63308415 -37.81872784 47.16403872 -37.82582474 41.69437027 C-37.83252541 39.61403053 -37.84771647 37.5336995 -37.87171555 35.4534874 C-37.90347445 32.53345353 -37.90338734 29.61498676 -37.89599609 26.69482422 C-37.91240143 25.84357468 -37.92880676 24.99232513 -37.94570923 24.11528015 C-37.86956073 16.72440451 -35.12440872 11.25299244 -30.3203125 5.6953125 C-21.25079668 -1.86888949 -11.29565274 -5.09681892 0 0 Z " fill="#FFFEFE" transform="translate(267.3125,118)"/>
</svg>
