<?xml version="1.0" encoding="UTF-8"?>
<svg version="1.1" viewBox="0 0 2048 479" width="500" height="117" xmlns="http://www.w3.org/2000/svg">
<path transform="translate(308,10)" d="m0 0 9 1 8 8 9 11 12 17 10 17 8 17 7 19 6 23 3 18 2 25v11l-3 30-6 27-8 23-10 21-10 16-8 11-13 16-20 20-17 13-19 12-25 12-25 8-27 6-13 2-13 1h-17l-27-3-25-6-27-9-22-11-18-12-14-11-10-9-5-5 1-4 6 1 9 8 19 12 24 12 15 6 28 7 27 4h28l24-3 22-5 18-6 17-7 1-20h-139l-3-1v-102h142v-135l1-1h98l1 13v123l11-1 7-24 4-24 1-11v-25l-3-26-4-19-10-30-10-21-12-18-14-18z" fill="#212A47"/>
<path transform="translate(1258)" d="m0 0h228l3 8 1 4v14l-4 16-8 15-2 4 10 9 9 15 5 11 2 9v15l-4 11-12 18-9 9-10 5-14 3-18 1-24 4h-19l-21-6-16-8-3-1-7 3-8-1-8-6-8-10-10-10-2-5-1-9-4-4-16-8-16-11-17-13-14-12-8-9-8-14-2-5 1-7 5-7 6-3 8 1 10 4 3-10 5-8v-6l-3-4zm31 35-2 7-1 14 6 4-1-25z" fill="#FEFEFE"/>
<path transform="translate(518)" d="m0 0h79v54l1 11v29l-3 21-5 12-6 8-7 4-7-1-8-6-3-10v-17l1-4h-2l-1 8-9 26-2 6 6 16v11l-5 14-8 13-11 13-11 11-7 11-6 4-3 1h-12l8 9 8 16 3 12v17l-3 12-7 14-8 10-10 8-13 6-11 3h-21l-14-4-11-6-6-5-9-11-8-16-2-9v-23l4-13 7-12 11-12 10-6 12-5 9-2h15l13 3h2l-5-6-1-3v-9l5-10 7-6 7-4 6-16 9-26 7-14 6-5 7-3 6-16 1-3-8 4-8 5-7-1-6-4-3-5v-13l3-13 7-10 12-22 5-7zm-47 223 1 2 2-1zm3 2m2 1m-37 2-11 3-10 5-12 11-6 9-4 9-1 4v19l3 12 6 11 11 11 12 7 10 3h18l13-4 11-7 7-7 7-11 3-8 2-12-1-13-4-13-7-11-10-9-12-6-12-3z" fill="#FEFEFE"/>
<path transform="translate(333,333)" d="m0 0 3 1v130l-58 1h-35l-1-3v-69l21-8 19-10 15-10 13-10 14-12 8-8z" fill="#5FC5C5"/>
<path transform="translate(1114,226)" d="m0 0h61l13 2 13 5 10 6 11 11 7 14 3 12v18l-4 15-7 12-9 9-10 6-9 4-15 3-26 1h-38l-1-2v-113zm27 22v73h34l12-4 9-7 6-10 2-7v-16l-4-11-4-6-7-6-9-4-12-2z" fill="#60C5C5"/>
<path transform="translate(1670,224)" d="m0 0h19l16 4 12 6 10 8 8 10 6 12 3 13v16l-3 12-7 14-9 10-10 8-15 6-15 3h-13l-14-3-12-5-10-7-5-4-8-11-6-13-2-9v-18l4-14 6-12 11-12 13-8 11-4zm4 23-11 3-8 6-7 8-4 9-1 5v15l4 11 7 9 8 6 9 3h17l10-4 8-6 6-8 4-11v-17l-5-12-7-8-5-4-9-4-6-1z" fill="#5FC5C5"/>
<path transform="translate(1301,224)" d="m0 0h18l14 3 16 8 10 9 7 9 6 13 2 8v21l-3 12-8 14-9 10-11 7-12 5-16 3h-13l-14-3-12-5-11-8-7-7-8-13-4-13-1-16 2-12 5-13 7-10 10-10 10-6 11-4zm3 23-10 3-9 6-6 7-4 8-2 8v12l3 10 7 11 8 6 10 4h17l11-4 10-9 5-8 2-6 1-14-3-12-6-10-8-7-10-4-5-1z" fill="#5EC5C5"/>
<path transform="translate(715,224)" d="m0 0h19l16 4 13 7 10 9 6 7 7 14 3 14v11l-3 14-4 9-6 10-9 9-14 8-12 4-12 2h-12l-15-3-10-4-13-9-9-10-8-16-2-9v-21l4-13 6-11 9-10 9-7 13-6zm4 23-9 2-10 6-6 7-5 10-2 10 1 13 7 14 7 7 10 5 3 1h18l12-5 7-6 6-9 3-12v-11l-4-13-7-9-8-6-7-3-6-1z" fill="#5EC5C5"/>
<path transform="translate(943,226)" d="m0 0h57l14 2 16 8 7 7 6 11 2 10v9l-2 10-6 11-7 7-8 4 2 5 14 20 8 11v2h-29l-12-17-10-14-5-1h-20v32l-26 1-2-2v-114zm27 22v41h29l9-3 5-4 3-5 1-5v-8l-4-9-5-4-5-2-8-1z" fill="#5FC5C5"/>
<path transform="translate(1764,226)" d="m0 0h58l13 2 10 4 8 6 8 9 4 10 1 4v16l-4 11-7 10-12 8 7 11 12 17 5 7v2l-27 1-4-4-16-23-3-5-26-1v32l-26 1-1-1-1-116zm27 22v41h29l10-3 6-7 2-5v-11l-4-8-5-4-5-2-7-1z" fill="#5DC4C4"/>
<path transform="translate(808,226)" d="m0 0h27l1 1 1 73 3 10 4 6 10 5h16l10-5 5-8 2-10 1-72h27v74l-3 15-7 13-7 7-10 6-15 4-7 1h-11l-15-3-12-6-7-6-7-11-4-10-2-12z" fill="#60C5C5"/>
<path transform="translate(1443,224)" d="m0 0h19l13 3 14 7 10 9-1 4-14 14-4-2-9-7-13-4h-11l-13 4-10 9-5 8-2 7v18l4 10 6 8 5 4 8 4 4 1h18l10-4 10-8 5 3 12 11-1 5-10 8-12 6-18 4h-14l-14-3-12-5-11-8-9-10-7-14-3-11v-19l3-12 7-14 9-10 9-7 10-5 11-3z" fill="#5FC5C5"/>
<path transform="translate(537,226)" d="m0 0h29l4 5 9 16 13 21 4 8 3-1 17-28 12-20 1-1h27l-8 14-12 20-17 28-8 14-1 41-25 1-3-1v-39l-4-10-10-16-17-28-10-17z" fill="#5FC5C5"/>
<path transform="translate(1505,226)" d="m0 0h102l1 1v20l-1 1h-37v95l-26 1-2-1v-91l1-4h-38l-1-2v-10z" fill="#5EC4C4"/>
<path transform="translate(438,241)" d="m0 0h16l11 4 9 6 6 8 4 9 2 8v10l-3 10-7 11-8 7-8 4-10 2h-8l-12-3-9-6-7-7-6-12-1-4v-17l5-12 9-10 10-6z" fill="#5CC4C4"/>
<path transform="translate(438,218)" d="m0 0h15l13 3 16 8 13 12 8 14 4 11 1 6v17l-3 12-7 14-8 10-10 8-13 6-11 3h-21l-14-4-11-6-6-5-9-11-8-16-2-9v-23l4-13 7-12 11-12 10-6 12-5zm1 10-11 3-10 5-12 11-6 9-4 9-1 4v19l3 12 6 11 11 11 12 7 10 3h18l13-4 11-7 7-7 7-11 3-8 2-12-1-13-4-13-7-11-10-9-12-6-12-3z" fill="#1B315E"/>
<path transform="translate(97,232)" d="m0 0h140l1 3-6 3-5 1-27 1-9 1h-74l-6 2-4 4 1 25 1 9v22h-2v10l-3 7-4 7-1 6h-2z" fill="#151D3F"/>
<path transform="translate(388,233)" d="m0 0h4l-1 6-6 10-4 9-3 12v18l3 14 5 12 8 11 3 4v2h-61l6-8 10-14 11-17 8-15 6-15 9-27z" fill="#5DC4C4"/>
<path transform="translate(1,325)" d="m0 0 6 1 9 8 19 12 10 5v4l10 5 14 5 8 3 11 4h10l5 3-1 2 4 4 1 5 7 2v2l-11-2-26-8-16-7-19-10-17-12-16-13-9-9z" fill="#172F5E"/>
<path transform="translate(1,325)" d="m0 0 6 1 9 8 5 4 1 3 14 9 3 5 25 14 18 9 8 2v2l4 1v2l-11-3-18-7-23-12-17-12-16-13-9-9z" fill="#293150"/>
<path transform="translate(245,132)" d="m0 0 2 1 1 3v76l-2 9-2 1-3-3-1-6v-14l1-5h1v-55l1-5h2z" fill="#151D3F"/>
<path transform="translate(313,13)" d="m0 0 5 1 11 16 7 10-3 5-4-4-9-13-10-13z" fill="#1F2747"/>
<path transform="translate(45,352)" d="m0 0 6 2 18 8 16 5 9 3 2 2-8 1-11-4-17-6-13-6-4-3z" fill="#2C3451"/>
<path transform="translate(432,331)" d="m0 0 23 1v1l-13 1 5 3 9 2-2 3h-19l-3-2v-4l1-2h2v-2z" fill="#232C49"/>
<path transform="translate(388,233)" d="m0 0h4l-1 6-6 10-4 9-2 7-2-1 3-11 6-18z" fill="#82D1D1"/>
<path transform="translate(487,322)" d="m0 0h3v3l-9 7h-7v-2l5-3 1-2z" fill="#1D2546"/>
<path transform="translate(396,298)" d="m0 0h2l7 13 5 6-3 1-5-6z" fill="#444D65"/>
<path transform="translate(97,384)" d="m0 0 10 2 7 2v2l-11-2-7-2z" fill="#373E5A"/>
<path transform="translate(408,230)" d="m0 0 2 1-6 8-8 6 2-4 7-8z" fill="#3B4662"/>
<path transform="translate(335,41)" d="m0 0h2l1 2v8l-4-2-1-7z" fill="#1F3662"/>
<path transform="translate(9,331)" d="m0 0 5 1 7 5-1 2-5-2-6-5z" fill="#2D4068"/>
<path transform="translate(308,10)" d="m0 0 9 1-1 2-7 1z" fill="#2F426A"/>
</svg>
