<?xml version="1.0" encoding="UTF-8"?>
<svg version="1.1" xmlns="http://www.w3.org/2000/svg" width="512" height="512">
<path d="M0 0 C17.82 0 35.64 0 54 0 C54 11.22 54 22.44 54 34 C56.64 34.33 59.28 34.66 62 35 C64.49975858 35.70118359 66.98080279 36.47280349 69.4375 37.3125 C70.08565674 37.53180176 70.73381348 37.75110352 71.40161133 37.97705078 C75.81201968 39.49833641 80.02490724 41.25744713 84.16796875 43.3984375 C86.67455453 44.22149552 87.58752939 44.12281343 90 43 C91.8835094 41.06092122 93.56480768 39.16093541 95.25 37.0625 C95.72800049 36.48218018 96.20600098 35.90186035 96.69848633 35.30395508 C98.14299594 33.54434115 99.57326784 31.77404525 101 30 C101.82371094 28.98164062 102.64742187 27.96328125 103.49609375 26.9140625 C105.34168948 24.61775979 107.17687977 22.31416121 109 20 C113.08809153 21.68921142 116.1562818 24.55482866 119.4375 27.4375 C120.69238903 28.52640975 121.94760476 29.6149431 123.203125 30.703125 C123.83669922 31.25419922 124.47027344 31.80527344 125.12304688 32.37304688 C127.96011303 34.83223117 130.82080718 37.26296837 133.6875 39.6875 C134.2148877 40.13383789 134.74227539 40.58017578 135.28564453 41.04003906 C140.4747521 45.42010084 145.72748939 49.72070782 151 54 C149.58696787 58.32449942 147.49967612 60.91287813 144.375 64.1875 C139.63475942 69.25845503 135.25602358 74.51947802 131 80 C132.82111642 83.875959 135.08309562 87.47630122 137.3125 91.125 C147 107.1468593 147 107.1468593 147 112 C147.74121094 111.81824219 148.48242188 111.63648437 149.24609375 111.44921875 C155.8241301 109.87918559 162.40550449 108.49942844 169.0625 107.3125 C170.15099243 107.11563599 170.15099243 107.11563599 171.26147461 106.91479492 C174.58387323 106.33507622 177.61383511 106 181 106 C183.011494 116.66452934 185.01250192 127.33097221 187 138 C187.19094238 139.02416016 187.38188477 140.04832031 187.57861328 141.10351562 C188.01625439 143.4638863 188.44766973 145.82524462 188.875 148.1875 C189.21144531 150.03408203 189.21144531 150.03408203 189.5546875 151.91796875 C189.9535134 154.67826378 190.03353085 157.22017452 190 160 C185.94394673 160.71640174 181.88713928 161.42835038 177.82958984 162.13623047 C176.45014491 162.37752807 175.0709099 162.62002897 173.69189453 162.86376953 C171.70661496 163.21444977 169.72050292 163.56040683 167.734375 163.90625 C166.54038086 164.11572266 165.34638672 164.32519531 164.11621094 164.54101562 C161 165 161 165 157 165 C156.97421875 165.87398437 156.9484375 166.74796875 156.921875 167.6484375 C156.39809875 179.00485891 154.60631566 190.18105301 151 201 C151.64066406 201.22945312 152.28132813 201.45890625 152.94140625 201.6953125 C157.1052771 203.47147197 160.99069775 205.66479074 164.9375 207.875 C165.72318359 208.30941406 166.50886719 208.74382812 167.31835938 209.19140625 C171.68174007 211.62321507 175.88868574 214.16233526 180 217 C175.24616185 226.93268831 169.95445237 236.41811179 164.28173828 245.85107422 C162.99024029 248.01636285 161.72480386 250.1951385 160.46484375 252.37890625 C159.66412403 253.75264003 158.86334528 255.12633941 158.0625 256.5 C157.69721191 257.14122803 157.33192383 257.78245605 156.95556641 258.44311523 C154.33926907 262.88691031 154.33926907 262.88691031 151 264 C148.33618164 262.70483398 148.33618164 262.70483398 145.16015625 260.74609375 C144.00342929 260.04984091 142.84652267 259.35388649 141.68945312 258.65820312 C139.87130354 257.54851935 138.05652206 256.43379983 136.24536133 255.31274414 C134.495806 254.23498005 132.73530053 253.1772711 130.97265625 252.12109375 C129.92343994 251.4758374 128.87422363 250.83058105 127.79321289 250.16577148 C125.12823627 248.70712606 125.12823627 248.70712606 122.78881836 249.66210938 C120.18218413 251.61165975 117.8393479 253.80714465 115.5 256.0625 C109.72635118 261.59029289 103.43436049 266.2745207 97 271 C97.33845947 271.89831543 97.67691895 272.79663086 98.02563477 273.72216797 C99.2763355 277.04776873 100.51700518 280.37703604 101.75463867 283.70751953 C102.29226042 285.14995106 102.83261725 286.59136619 103.37573242 288.03173828 C104.15479984 290.09929071 104.92403889 292.17026888 105.69140625 294.2421875 C105.93717911 294.88807831 106.18295197 295.53396912 106.43617249 296.19943237 C107.01584085 297.77940661 107.51543804 299.3883134 108 301 C106.62288498 303.75423004 105.2582759 303.83714788 102.38842773 304.87939453 C101.40748642 305.239617 100.4265451 305.59983948 99.4158783 305.97097778 C97.81589745 306.54608597 97.81589745 306.54608597 96.18359375 307.1328125 C95.0974025 307.52951141 94.01121124 307.92621033 92.8921051 308.33493042 C89.40965028 309.60503364 85.92365908 310.86510417 82.4375 312.125 C80.08114121 312.98241639 77.72501813 313.84048084 75.36914062 314.69921875 C69.58214484 316.80701687 63.79221182 318.90658113 58 321 C54.92619441 318.14953031 53.90635175 315.56238619 52.51953125 311.58203125 C52.30181564 310.96478683 52.08410004 310.34754242 51.85978699 309.71159363 C51.16924689 307.74796006 50.49074921 305.78040846 49.8125 303.8125 C49.34519055 302.47693703 48.87710019 301.14164703 48.40820312 299.80664062 C47.26307158 296.54087402 46.12869954 293.27148735 45 290 C43.63065308 290.00785522 43.63065308 290.00785522 42.23364258 290.01586914 C38.83243167 290.03295631 35.43126669 290.0454722 32.0300293 290.05493164 C30.56062091 290.05994669 29.09121748 290.06676033 27.62182617 290.07543945 C25.50438205 290.08762928 23.38700417 290.09325669 21.26953125 290.09765625 C19.36071167 290.10551147 19.36071167 290.10551147 17.41333008 290.11352539 C14.4629081 290.01539606 11.86053325 289.69063835 9 289 C8.87616943 289.87108398 8.75233887 290.74216797 8.62475586 291.63964844 C8.02390021 294.87144882 7.15230721 297.69119821 6.00390625 300.765625 C5.61009766 301.82007813 5.21628906 302.87453125 4.81054688 303.9609375 C4.39869141 305.04632813 3.98683594 306.13171875 3.5625 307.25 C3.15451172 308.35085938 2.74652344 309.45171875 2.32617188 310.5859375 C1.93107422 311.63523437 1.53597656 312.68453125 1.12890625 313.765625 C0.76869385 314.72243164 0.40848145 315.67923828 0.03735352 316.66503906 C-1 319 -1 319 -3 321 C-9.96594704 318.50766007 -16.92523651 315.99739308 -23.88012695 313.47436523 C-26.24841134 312.61764799 -28.61820621 311.76509462 -30.98950195 310.91674805 C-34.3915636 309.69883131 -37.78796768 308.46619638 -41.18359375 307.23046875 C-42.25024765 306.85222458 -43.31690155 306.47398041 -44.4158783 306.08427429 C-45.88729027 305.54405388 -45.88729027 305.54405388 -47.38842773 304.99291992 C-48.69081642 304.52326057 -48.69081642 304.52326057 -50.01951599 304.04411316 C-52 303 -52 303 -53 300 C-52.19555664 297.22851562 -52.19555664 297.22851562 -50.91015625 293.90625 C-50.45576172 292.71128906 -50.00136719 291.51632812 -49.53320312 290.28515625 C-49.04363453 289.02317902 -48.55339257 287.76146281 -48.0625 286.5 C-47.10965106 284.03354214 -46.1647909 281.56435487 -45.22265625 279.09375 C-44.79734619 277.99740234 -44.37203613 276.90105469 -43.93383789 275.77148438 C-42.84034677 273.01360455 -42.84034677 273.01360455 -43 270 C-45.11742383 268.15868751 -45.11742383 268.15868751 -47.875 266.375 C-54.44995322 261.77677465 -60.73856007 256.73093704 -66.03515625 250.671875 C-66.68355469 250.12015625 -67.33195312 249.5684375 -68 249 C-71.68274622 249.41407281 -74.6199797 251.34288297 -77.7890625 253.16015625 C-78.89507812 253.78857422 -80.00109375 254.41699219 -81.140625 255.06445312 C-82.30237026 255.72996813 -83.46382547 256.3959897 -84.625 257.0625 C-86.90612819 258.37083128 -89.19029049 259.67327385 -91.4765625 260.97265625 C-92.48799316 261.55281494 -93.49942383 262.13297363 -94.54150391 262.73071289 C-97 264 -97 264 -99 264 C-99.59518433 262.96782349 -99.59518433 262.96782349 -100.20239258 261.91479492 C-101.39380526 259.84877429 -102.58556926 257.78295624 -103.77758789 255.71728516 C-105.14016159 253.35522657 -106.49970353 250.99145745 -107.85717773 248.62646484 C-111.02503458 243.11350166 -114.21171624 237.61675167 -117.515625 232.18359375 C-118.03406982 231.32161377 -118.55251465 230.45963379 -119.08666992 229.5715332 C-120.05295986 227.96968185 -121.03187539 226.37536306 -122.0246582 224.78979492 C-122.45093506 224.07799072 -122.87721191 223.36618652 -123.31640625 222.6328125 C-123.69224854 222.02324707 -124.06809082 221.41368164 -124.45532227 220.78564453 C-125 219 -125 219 -124.45703125 216.984375 C-122.47606925 214.28644285 -120.31616642 213.19713345 -117.37109375 211.6171875 C-116.25412109 211.00746094 -115.13714844 210.39773437 -113.98632812 209.76953125 C-112.80379533 209.13725358 -111.62084737 208.50575182 -110.4375 207.875 C-108.11976218 206.62939366 -105.80731396 205.37493992 -103.49609375 204.1171875 C-101.95199829 203.29130127 -101.95199829 203.29130127 -100.37670898 202.44873047 C-97.88924598 201.22095962 -97.88924598 201.22095962 -97 199 C-97.55888337 196.40266306 -98.17782981 193.87263822 -98.875 191.3125 C-100.77976627 184.22545586 -102.15374198 177.4531007 -102.0625 170.0625 C-102.05347656 169.10472656 -102.04445312 168.14695313 -102.03515625 167.16015625 C-102.02355469 166.44730469 -102.01195312 165.73445312 -102 165 C-102.95777344 164.89042969 -103.91554688 164.78085938 -104.90234375 164.66796875 C-115.00962802 163.47631378 -124.99482357 161.85739661 -135 160 C-134.53570714 149.64697992 -132.86409255 139.64079513 -130.98876953 129.46655273 C-130.49409711 126.78044689 -130.01001276 124.09258307 -129.52734375 121.40429688 C-129.21675264 119.69259812 -128.90557685 117.98100532 -128.59375 116.26953125 C-128.44893188 115.46755814 -128.30411377 114.66558502 -128.15490723 113.83930969 C-127.11626509 108.23253018 -127.11626509 108.23253018 -126 106 C-118.75391255 106.7238468 -111.6146037 107.83819599 -104.4375 109.0625 C-103.33341797 109.24876953 -102.22933594 109.43503906 -101.09179688 109.62695312 C-98.39414468 110.0824009 -95.69690126 110.54013024 -93 111 C-92.50371094 109.97261719 -92.00742188 108.94523437 -91.49609375 107.88671875 C-87.83903861 100.39872175 -84.08232511 93.17911017 -79.4453125 86.234375 C-78.13308784 84.2057466 -77.0310304 82.18218086 -76 80 C-76.92619141 79.00033203 -76.92619141 79.00033203 -77.87109375 77.98046875 C-95.23299055 59.08586264 -95.23299055 59.08586264 -96 54 C-89.81080272 48.2657147 -83.54467818 42.73742044 -76.9765625 37.4375 C-72.84547462 34.05456189 -68.80622285 30.5682761 -64.77026367 27.07275391 C-56.5789677 20 -56.5789677 20 -54 20 C-52.62508701 21.50787161 -51.32635538 23.08539761 -50.0625 24.6875 C-49.26714844 25.6775 -48.47179687 26.6675 -47.65234375 27.6875 C-47.22550293 28.22117187 -46.79866211 28.75484375 -46.35888672 29.3046875 C-43.97024476 32.28469644 -41.55852701 35.24405235 -39.125 38.1875 C-38.66101807 38.76395264 -38.19703613 39.34040527 -37.71899414 39.93432617 C-36.54543696 41.34718352 -35.2786643 42.68150845 -34 44 C-29.88305603 44 -26.65390828 42.29022365 -22.9375 40.6875 C-7.06370765 34 -7.06370765 34 0 34 C0 22.78 0 11.56 0 0 Z M-24 116 C-26.62815289 119.18959992 -28.88973884 122.4488616 -31 126 C-31.45890625 126.76570313 -31.9178125 127.53140625 -32.390625 128.3203125 C-40.74834437 143.57566774 -42.46119002 161.16351828 -38.375 177.9375 C-32.79590869 196.0793004 -21.61814788 211.07355693 -4.875 220.3125 C11.55496499 228.85300339 29.60279009 230.70921478 47.37109375 225.3203125 C67.13805446 218.12845812 80.79012416 205.94821334 89.78515625 186.88671875 C97.11999244 169.45763854 96.55900729 151.30060955 89.75 133.75 C87.18244085 127.95949873 83.87428204 122.99119218 80 118 C79.55140625 117.38640625 79.1028125 116.7728125 78.640625 116.140625 C68.53255507 103.17851179 52.05681504 95.16596948 36 93 C12.65106349 90.8636852 -8.07611775 98.82718581 -24 116 Z " fill="#FFFFFF" transform="translate(135,16)"/>
<path d="M0 0 C1.64733759 7.98079085 2.50877547 15.86894139 3 24 C3.96035156 23.95875 4.92070312 23.9175 5.91015625 23.875 C10.57716712 23.875 14.9186477 24.92275681 19.4375 26 C23.6759375 26.99 23.6759375 26.99 28 28 C31.96 21.73 35.92 15.46 40 9 C44.02270965 10.00567741 46.43828515 11.32464233 49.9375 13.4921875 C50.49945068 13.83879425 51.06140137 14.185401 51.64038086 14.54251099 C52.82526991 15.27471598 54.00859152 16.0094628 55.19042969 16.74658203 C56.9907278 17.86921801 58.79564421 18.98408865 60.6015625 20.09765625 C70.14548193 26.00627808 70.14548193 26.00627808 74 29 C72.20604048 34.2232965 69.1559779 38.43173229 66.01367188 42.91601562 C63.67895767 46.2743002 63.67895767 46.2743002 63.03125 50.203125 C64.18731806 52.34744479 65.50854808 53.91959699 67.1875 55.6875 C70.96625751 59.83320298 73.9867162 64.28347439 77 69 C77.58491211 68.81300537 78.16982422 68.62601074 78.77246094 68.43334961 C81.4284091 67.5907893 84.08901785 66.76401718 86.75 65.9375 C87.67039062 65.64294922 88.59078125 65.34839844 89.5390625 65.04492188 C90.42851562 64.77099609 91.31796875 64.49707031 92.234375 64.21484375 C93.05131836 63.95823975 93.86826172 63.70163574 94.70996094 63.43725586 C98.63682647 62.68746736 98.63682647 62.68746736 101 64 C102.15411578 66.52515759 103.00393507 68.82512922 103.796875 71.46484375 C104.0353717 72.21335098 104.27386841 72.96185822 104.51959229 73.73304749 C105.27874162 76.12991839 106.0141498 78.53338667 106.75 80.9375 C107.26025649 82.55449861 107.77195785 84.17104205 108.28515625 85.78710938 C112 97.58510969 112 97.58510969 112 100 C108.54329268 101.17152378 105.08437878 102.33639077 101.625 103.5 C100.64015625 103.83386719 99.6553125 104.16773438 98.640625 104.51171875 C97.69960938 104.82753906 96.75859375 105.14335937 95.7890625 105.46875 C94.91975098 105.76201172 94.05043945 106.05527344 93.15478516 106.35742188 C91 107 91 107 89 107 C89.00523682 107.68102783 89.01047363 108.36205566 89.01586914 109.0637207 C89.03664458 112.14663777 89.04966198 115.2295401 89.0625 118.3125 C89.07087891 119.38435547 89.07925781 120.45621094 89.08789062 121.56054688 C89.09111328 122.58857422 89.09433594 123.61660156 89.09765625 124.67578125 C89.10289307 125.62364502 89.10812988 126.57150879 89.11352539 127.5480957 C89 130 89 130 88 133 C88.96486328 133.13728516 88.96486328 133.13728516 89.94921875 133.27734375 C94.10291369 134.26125356 97.88886813 135.90161643 101.8125 137.5625 C102.60076172 137.89185547 103.38902344 138.22121094 104.20117188 138.56054688 C106.13583796 139.36958906 108.06815753 140.18423852 110 141 C109.10331298 147.81104721 106.4985438 153.88666203 103.96240234 160.21508789 C103.12241937 162.31896362 102.30114645 164.42954663 101.48046875 166.54101562 C100.94903987 167.87805115 100.4165259 169.21465601 99.8828125 170.55078125 C99.16182373 172.37089722 99.16182373 172.37089722 98.42626953 174.2277832 C97 177 97 177 94 178 C91.94702148 177.37915039 91.94702148 177.37915039 89.62109375 176.34765625 C88.78255859 175.98349609 87.94402344 175.61933594 87.08007812 175.24414062 C86.20802734 174.85419922 85.33597656 174.46425781 84.4375 174.0625 C82.70836312 173.30035652 80.97795239 172.54109455 79.24609375 171.78515625 C78.47966553 171.44363525 77.7132373 171.10211426 76.92358398 170.75024414 C75.03356992 169.87887841 75.03356992 169.87887841 73 170 C71.71211757 171.47144268 70.49429673 173.0045715 69.3125 174.5625 C66.20905726 178.58674443 63.01880344 182.04088723 59.15234375 185.33203125 C57.77985667 186.96714827 57.77985667 186.96714827 58.0625 189.22265625 C59.31848462 192.94351068 61.1338506 196.2140553 63.0625 199.625 C67 206.59807692 67 206.59807692 67 210 C62.50186562 212.42900017 57.9994729 214.84983828 53.49291992 217.26318359 C51.96014238 218.08549123 50.42855702 218.91002508 48.89819336 219.73681641 C46.69954343 220.92415864 44.49674456 222.10345519 42.29296875 223.28125 C41.60849167 223.65310425 40.92401459 224.0249585 40.21879578 224.40808105 C35.34161512 227 35.34161512 227 32 227 C30.32666842 223.87852455 28.66248284 220.75226502 27 217.625 C26.52304687 216.73554688 26.04609375 215.84609375 25.5546875 214.9296875 C25.10351562 214.07890625 24.65234375 213.228125 24.1875 212.3515625 C23.76855469 211.56604004 23.34960938 210.78051758 22.91796875 209.97119141 C22 208 22 208 22 206 C21.28457031 206.20496094 20.56914062 206.40992188 19.83203125 206.62109375 C12.16998046 208.69272197 4.9248473 209.56930178 -3 210 C-4.65 217.59 -6.3 225.18 -8 233 C-16.00926883 232.11008124 -23.58399803 230.7497284 -31.4375 229.0625 C-32.71560547 228.79759766 -33.99371094 228.53269531 -35.31054688 228.25976562 C-36.52677734 228.00001953 -37.74300781 227.74027344 -38.99609375 227.47265625 C-40.10138428 227.23812744 -41.2066748 227.00359863 -42.34545898 226.76196289 C-45 226 -45 226 -47 224 C-46.76806641 221.66162109 -46.76806641 221.66162109 -46.1015625 218.7734375 C-45.86953125 217.7421875 -45.6375 216.7109375 -45.3984375 215.6484375 C-45.14320313 214.56820312 -44.88796875 213.48796875 -44.625 212.375 C-44.3775 211.28703125 -44.13 210.1990625 -43.875 209.078125 C-43.26029334 206.38287271 -42.63489288 203.690556 -42 201 C-42.86367188 200.7525 -43.72734375 200.505 -44.6171875 200.25 C-48.23755696 198.91221914 -50.96200821 197.20034211 -54.125 195 C-57.35663592 192.76334613 -60.46522366 190.71016206 -64 189 C-64.46897705 189.38857178 -64.9379541 189.77714355 -65.42114258 190.17749023 C-67.54789672 191.93535791 -69.68010553 193.6864796 -71.8125 195.4375 C-72.91948242 196.35499023 -72.91948242 196.35499023 -74.04882812 197.29101562 C-74.76103516 197.87431641 -75.47324219 198.45761719 -76.20703125 199.05859375 C-77.18893433 199.86768188 -77.18893433 199.86768188 -78.19067383 200.69311523 C-80 202 -80 202 -83 203 C-83.34144043 202.55309814 -83.68288086 202.10619629 -84.03466797 201.64575195 C-91.34035014 192.08473105 -98.65631679 182.53186873 -106 173 C-104.64841169 169.84826133 -103.30878164 168.18591236 -100.5234375 166.203125 C-99.853125 165.71972656 -99.1828125 165.23632812 -98.4921875 164.73828125 C-97.79351562 164.24714844 -97.09484375 163.75601563 -96.375 163.25 C-95.66859375 162.74339844 -94.9621875 162.23679687 -94.234375 161.71484375 C-92.494948 160.46903793 -90.74817248 159.2335037 -89 158 C-89.77775683 152.30538966 -91.48300125 147.0926298 -93.27148438 141.65820312 C-94.23981243 138.6572331 -95 136.17513087 -95 133 C-102.92 132.67 -110.84 132.34 -119 132 C-119.0822561 118.92127941 -118.91531778 106.04327838 -118 93 C-110.08 93 -102.16 93 -94 93 C-93.2575 90.875625 -92.515 88.75125 -91.75 86.5625 C-89.75291892 80.91124153 -87.52972103 75.43421555 -85 70 C-87.08119446 68.06015834 -89.16484547 66.12307706 -91.25 64.1875 C-91.83652344 63.64029297 -92.42304688 63.09308594 -93.02734375 62.52929688 C-95.91536679 59.85219687 -98.77521291 57.27491168 -102 55 C-100.39605005 51.13218927 -97.77360356 48.37360881 -94.9375 45.375 C-93.94625414 44.31023127 -92.95537451 43.2451215 -91.96484375 42.1796875 C-91.46839355 41.64827148 -90.97194336 41.11685547 -90.46044922 40.56933594 C-88.28547574 38.23220295 -86.1403694 35.86881605 -84 33.5 C-82.948125 32.33984375 -82.948125 32.33984375 -81.875 31.15625 C-80.14489605 29.16663046 -78.55018297 27.13150158 -77 25 C-72.3045328 26.89624637 -69.01269675 30.57199593 -65.421875 34.01171875 C-62.77315253 36.50660128 -60.39786133 38.62778677 -57 40 C-56.18208984 39.41992188 -56.18208984 39.41992188 -55.34765625 38.828125 C-42.56435644 30 -42.56435644 30 -36 30 C-36.99 21.75 -37.98 13.5 -39 5 C-34.24989475 4.28454574 -29.49956254 3.57133403 -24.74829102 2.86376953 C-23.13318633 2.62256416 -21.51827427 2.38006523 -19.90356445 2.13623047 C-17.57813564 1.78530342 -15.25204622 1.43908519 -12.92578125 1.09375 C-12.20787918 0.9843811 -11.48997711 0.87501221 -10.75032043 0.7623291 C-7.13592548 0.23050538 -3.65430441 -0.12461396 0 0 Z M-41.03515625 86.265625 C-48.66901489 95.53646819 -52.60815223 106.45162844 -52.24609375 118.52734375 C-50.77491688 133.30916849 -45.00512409 145.10763425 -33.60205078 154.77490234 C-26.21561631 160.42335223 -17.25966653 164.14379796 -8 165 C-7.2884375 165.06960938 -6.576875 165.13921875 -5.84375 165.2109375 C6.40081632 165.78767432 18.36823461 161.56491617 27.6953125 153.73828125 C38.89935794 143.08607686 44.20855662 131.77648515 45 116.42578125 C45 102.75669639 39.27215636 91.48842867 29.8984375 81.8359375 C20.35179411 72.82903367 9.34274565 68.79175811 -3.6875 67.6875 C-19.22028504 69.15285708 -30.5748055 74.62070478 -41.03515625 86.265625 Z " fill="#FFFFFF" transform="translate(360,263)"/>
<path d="M0 0 C10.48177165 1.46257279 20.69460959 3.61738448 31 6 C30.7834375 7.12019531 30.566875 8.24039063 30.34375 9.39453125 C30.06235597 10.86715999 29.78111389 12.33981776 29.5 13.8125 C29.35691406 14.55048828 29.21382813 15.28847656 29.06640625 16.04882812 C28.49073719 19.07794391 28 21.909196 28 25 C28.74765625 25.39832031 29.4953125 25.79664062 30.265625 26.20703125 C31.25046875 26.73683594 32.2353125 27.26664063 33.25 27.8125 C34.22453125 28.33457031 35.1990625 28.85664062 36.203125 29.39453125 C38.63355412 30.78965188 40.80787699 32.26195961 43 34 C47.52131017 32.0219268 50.87192983 28.79440254 54.5625 25.58203125 C57 24 57 24 59.01171875 23.88671875 C62.05537629 25.59092779 63.8104505 28.22515473 65.8125 31 C66.69099681 32.18389768 67.5699055 33.36748983 68.44921875 34.55078125 C68.87895996 35.13553223 69.30870117 35.7202832 69.75146484 36.32275391 C72.02521499 39.37724423 74.43247291 42.32742604 76.8203125 45.29296875 C78 47 78 47 78 49 C75.8664718 50.78770907 73.73155942 52.46872824 71.5 54.125 C70.87996094 54.59292969 70.25992188 55.06085938 69.62109375 55.54296875 C68.08497483 56.70096609 66.54301941 57.85121357 65 59 C65.711472 63.73854165 66.8993785 68.08804305 68.37890625 72.6328125 C69 75 69 75 69 79 C75.27 79 81.54 79 88 79 C88 89.23 88 99.46 88 110 C81.4 110 74.8 110 68 110 C67.34 112.97 66.68 115.94 66 119 C65.443125 120.258125 64.88625 121.51625 64.3125 122.8125 C62.85960535 125.71444439 62.85960535 125.71444439 63.0703125 127.87109375 C64.46848836 131.07279899 66.96564192 133.01949019 69.5625 135.25 C70.08263672 135.70890625 70.60277344 136.1678125 71.13867188 136.640625 C72.41895555 137.7682143 73.70858798 138.88517315 75 140 C73.76751873 143.52910489 72.55771197 145.78087432 69.8125 148.3125 C64.74466399 153.15815531 60.15740158 158.35244544 56 164 C51.67953102 162.58319756 48.99538801 160.46236215 45.6875 157.375 C44.80449219 156.55773437 43.92148437 155.74046875 43.01171875 154.8984375 C42.34785156 154.27195313 41.68398438 153.64546875 41 153 C37.10391502 154.48904175 33.40902982 156.24378713 29.6875 158.125 C27.810625 159.07375 25.93375 160.0225 24 161 C24.66 167.27 25.32 173.54 26 180 C22.14695219 180.67375699 18.29277637 181.33922304 14.4375 182 C13.35146484 182.19078125 12.26542969 182.3815625 11.14648438 182.578125 C5.69086726 183.50674068 0.53547904 184.25413964 -5 184 C-6.7899856 177.6753842 -7.54240047 171.5508985 -8 165 C-9.0725 165.061875 -10.145 165.12375 -11.25 165.1875 C-17.04244112 165.21875418 -22.46106737 163.55090114 -28 162 C-28.25523437 162.70511719 -28.51046875 163.41023437 -28.7734375 164.13671875 C-30.11550522 167.2696348 -31.76729867 169.95714425 -33.625 172.8125 C-34.25664062 173.78832031 -34.88828125 174.76414062 -35.5390625 175.76953125 C-36.02117187 176.50558594 -36.50328125 177.24164063 -37 178 C-46.31006751 173.14771905 -55.14244564 167.62349122 -64 162 C-62.51481201 157.95698825 -60.57122002 154.38853744 -58.375 150.6875 C-57.74335938 149.61886719 -57.11171875 148.55023438 -56.4609375 147.44921875 C-55.97882813 146.64097656 -55.49671875 145.83273438 -55 145 C-55.62648438 144.24074219 -56.25296875 143.48148438 -56.8984375 142.69921875 C-57.71570313 141.70535156 -58.53296875 140.71148437 -59.375 139.6875 C-60.18710937 138.70136719 -60.99921875 137.71523437 -61.8359375 136.69921875 C-64 134 -64 134 -66 131 C-70.17858016 131.87285897 -74.26574187 132.75062931 -78.3125 134.125 C-81 135 -81 135 -85 135 C-86.31157106 131.21359437 -87.61128671 127.42334896 -88.90014648 123.62915039 C-89.34026227 122.33897685 -89.783603 121.04989876 -90.23022461 119.76196289 C-90.87159237 117.91062881 -91.50042604 116.05496741 -92.12890625 114.19921875 C-92.51119385 113.08377686 -92.89348145 111.96833496 -93.28735352 110.8190918 C-94 108 -94 108 -93 105 C-90.50638252 103.95485926 -88.13580564 103.09898584 -85.5625 102.3125 C-84.52125977 101.97508789 -84.52125977 101.97508789 -83.45898438 101.63085938 C-78.33838336 100 -78.33838336 100 -76 100 C-76 93.73 -76 87.46 -76 81 C-78.536875 79.8553125 -78.536875 79.8553125 -81.125 78.6875 C-85.12799683 76.86936466 -89.08933465 75.0081795 -93 73 C-90.35842154 62.92898212 -86.1285413 53.53101572 -82 44 C-76 46 -70 48 -64 50 C-62.18159615 48.06775868 -60.37025532 46.12966092 -58.5625 44.1875 C-58.04623047 43.64029297 -57.52996094 43.09308594 -56.99804688 42.52929688 C-54.68923395 40.03940058 -53.08641486 38.25924458 -52 35 C-52.5947071 33.12106946 -52.5947071 33.12106946 -53.65234375 31.20703125 C-54.01650391 30.49482422 -54.38066406 29.78261719 -54.75585938 29.04882812 C-55.14580078 28.31083984 -55.53574219 27.57285156 -55.9375 26.8125 C-56.32357422 26.06291016 -56.70964844 25.31332031 -57.10742188 24.54101562 C-58.06271757 22.68939311 -59.03021577 20.84407548 -60 19 C-56.35912812 16.97492889 -52.71129514 14.96321815 -49.05639648 12.96362305 C-47.81383183 12.28138931 -46.57325031 11.59553071 -45.3347168 10.90600586 C-43.55504943 9.91603471 -41.76867933 8.93927823 -39.98046875 7.96484375 C-38.37014771 7.07720337 -38.37014771 7.07720337 -36.72729492 6.17163086 C-34 5 -34 5 -31 6 C-29.64391082 8.13431595 -28.46036423 10.19688819 -27.3125 12.4375 C-26.99216797 13.03626953 -26.67183594 13.63503906 -26.34179688 14.25195312 C-24 18.71085421 -24 18.71085421 -24 21 C-23.39414062 20.86722656 -22.78828125 20.73445313 -22.1640625 20.59765625 C-16.11113249 19.32188485 -10.16327688 18.52828088 -4 18 C-2.68 12.06 -1.36 6.12 0 0 Z M-32.8125 68.25 C-38.94362689 76.67140863 -42.07096842 86.59630675 -41 97 C-38.49388287 109.19844962 -33.18410878 117.22953232 -23.203125 124.5625 C-14.80483093 130.04223797 -5.8290447 130.79755677 4 130 C14.96976373 127.51010551 23.49848815 121.07571452 30 112 C35.050488 102.84790357 36.48137819 93.15701992 34.3515625 82.8671875 C31.25779482 72.52818611 25.35561689 64.49935903 16 59 C-1.15577789 50.8155922 -20.17462016 53.10057533 -32.8125 68.25 Z " fill="#FFFFFF" transform="translate(424,84)"/>
</svg>
