<?xml version="1.0" encoding="UTF-8"?>
<svg version="1.1" xmlns="http://www.w3.org/2000/svg" width="512" height="512">
<path d="M0 0 C6.3741984 3.90541696 10.83085243 9.73338108 13.5625 16.5625 C13.5625 21.8425 13.5625 27.1225 13.5625 32.5625 C24.7825 32.5625 36.0025 32.5625 47.5625 32.5625 C47.5625 27.2825 47.5625 22.0025 47.5625 16.5625 C49.85784592 9.37706929 54.46776775 4.94084054 60.5625 0.5625 C67.3234432 -2.908419 76.3459077 -2.62100828 83.5546875 -0.59765625 C91.09089376 2.80394445 95.44595921 8.20268194 98.4375 15.8125 C99.5625 20.5625 99.5625 20.5625 99.5625 32.5625 C110.4525 32.5625 121.3425 32.5625 132.5625 32.5625 C132.5625 27.9425 132.5625 23.3225 132.5625 18.5625 C134.35918763 11.16437446 138.2667471 5.60283406 144.52734375 1.171875 C151.80420362 -2.67659465 160.67151498 -2.92120821 168.47265625 -0.5546875 C175.39943817 2.60049823 180.23125176 7.21014205 183.4375 14.125 C184.5625 18.5625 184.5625 18.5625 184.5625 32.5625 C195.4525 32.5625 206.3425 32.5625 217.5625 32.5625 C217.5625 28.6025 217.5625 24.6425 217.5625 20.5625 C219.3666939 12.94479242 222.34588719 6.81576681 228.6484375 1.953125 C236.36207624 -2.60842881 245.39839845 -2.92707621 254.01953125 -0.84375 C259.76094599 1.60229651 263.98365866 6.58068564 267.5625 11.5625 C269.5625 16.5625 269.5625 16.5625 269.5625 32.5625 C280.7825 32.5625 292.0025 32.5625 303.5625 32.5625 C303.5625 27.2825 303.5625 22.0025 303.5625 16.5625 C305.85784592 9.37706929 310.46776775 4.94084054 316.5625 0.5625 C323.3234432 -2.908419 332.3459077 -2.62100828 339.5546875 -0.59765625 C347.09089376 2.80394445 351.44595921 8.20268194 354.4375 15.8125 C355.5211697 19.56529624 355.6808741 22.96104519 355.6328125 26.859375 C355.62266113 27.93026367 355.61250977 29.00115234 355.60205078 30.10449219 C355.58899902 30.91563477 355.57594727 31.72677734 355.5625 32.5625 C356.61207886 32.5310791 356.61207886 32.5310791 357.68286133 32.49902344 C360.91342264 32.41487066 364.14375226 32.36352929 367.375 32.3125 C368.47521484 32.27898438 369.57542969 32.24546875 370.70898438 32.2109375 C383.16212206 32.06399782 393.71830708 35.99840751 402.7578125 44.66796875 C409.87176786 52.29381388 414.80524456 60.96991458 414.81976891 71.62681866 C414.8262178 72.82678594 414.83266669 74.02675323 414.839311 75.26308316 C414.8362138 76.57269806 414.8331166 77.88231296 414.82992554 79.23161316 C414.83366353 80.64376087 414.83826565 82.0559065 414.84365618 83.46804887 C414.85588343 87.34401963 414.85562604 91.21990405 414.85326743 95.09588969 C414.85285919 99.2780513 414.86389921 103.46018526 414.87338257 107.64233398 C414.88999263 115.83480756 414.89549214 124.02725236 414.89660732 132.21974137 C414.89755791 138.88045443 414.90166872 145.541158 414.90800858 152.20186806 C414.92562192 171.09147393 414.93484744 189.98105709 414.93334763 208.87067124 C414.93322776 210.39805689 414.93322776 210.39805689 414.93310547 211.95629883 C414.93302371 212.97580127 414.93294195 213.99530371 414.93285771 215.04570017 C414.93204504 231.56313507 414.95117749 248.08047873 414.9793822 264.59788724 C415.00812248 281.56301298 415.02192183 298.52809424 415.02019465 315.49324495 C415.01953109 325.01575562 415.02500848 334.53817068 415.04655075 344.06065941 C415.0647777 352.16958285 415.06909754 360.27836734 415.0555319 368.38730242 C415.04900955 372.52237325 415.04885832 376.65717762 415.0662384 380.79222298 C415.08200716 384.58300487 415.07906717 388.37330988 415.06167014 392.16408042 C415.05716607 394.17380122 415.07222777 396.18353704 415.08814943 398.19319981 C414.99169544 410.91384177 411.25479645 421.334297 402.5625 430.72265625 C394.68541401 438.24808662 385.36470152 442.69026677 374.40260601 442.68554783 C373.37898266 442.68753888 372.3553593 442.68952993 371.30071706 442.69158131 C370.18301531 442.68866847 369.06531356 442.68575563 367.91374207 442.68275452 C366.7211562 442.68360894 365.52857034 442.68446337 364.29984552 442.68534368 C360.99326219 442.6867059 357.68673805 442.683581 354.38016188 442.67856562 C350.81307262 442.67424701 347.24598518 442.67570855 343.67889404 442.6764679 C337.49987035 442.67699223 331.32085721 442.67385482 325.14183617 442.66823006 C316.2080104 442.66010288 307.27418974 442.65749859 298.34036068 442.65624207 C283.84580071 442.65405346 269.35124637 442.64739857 254.85668945 442.63793945 C240.77661161 442.62876038 226.6965353 442.62168197 212.61645508 442.61743164 C211.74855298 442.61716892 210.88065089 442.61690619 209.98644873 442.61663551 C205.63243717 442.61533047 201.27842561 442.61406676 196.92441404 442.61282361 C160.80377205 442.60245696 124.68313646 442.58484385 88.5625 442.5625 C88.88650787 443.83394363 89.21051575 445.10538727 89.54434204 446.4153595 C92.79372163 459.16629343 91.04764029 472.85946871 85.0546875 484.48828125 C77.51561733 497.16443877 66.83725426 505.8273196 52.65380859 510.14331055 C41.3823495 512.40260255 26.70116008 512.16406607 16.5625 506.5625 C15.72074219 506.13839844 14.87898438 505.71429688 14.01171875 505.27734375 C1.71963706 498.58105039 -6.76886912 487.99510764 -10.89453125 474.66796875 C-12.23059319 469.48712425 -12.62029768 464.59654327 -12.625 459.25 C-12.63724609 458.52876953 -12.64949219 457.80753906 -12.66210938 457.06445312 C-12.66404297 456.34580078 -12.66597656 455.62714844 -12.66796875 454.88671875 C-12.67207764 454.24822998 -12.67618652 453.60974121 -12.68041992 452.9519043 C-12.31749725 449.3821312 -11.35390711 446.03040971 -10.4375 442.5625 C-11.06675385 442.56916183 -11.69600769 442.57582367 -12.34432983 442.58268738 C-18.93116107 442.64938486 -25.51789536 442.69444272 -32.10498047 442.72729492 C-34.55879619 442.74232224 -37.01258533 442.7627498 -39.46630859 442.78881836 C-43.00625192 442.8254682 -46.54583814 442.84228755 -50.0859375 442.85546875 C-51.714673 442.87869453 -51.714673 442.87869453 -53.37631226 442.90238953 C-66.03425313 442.90514655 -76.58517097 438.99502745 -86.125 430.5625 C-92.51237372 423.82617237 -97.55580597 413.08707688 -97.57172108 403.85170746 C-97.57617892 402.65422992 -97.58063676 401.45675239 -97.58522969 400.22298765 C-97.58514039 398.88738727 -97.58495054 397.55178688 -97.58467102 396.21618652 C-97.58796976 394.80250462 -97.59169535 393.38882366 -97.5958125 391.97514391 C-97.60583985 388.08101589 -97.60955049 384.18690329 -97.61220181 380.29276419 C-97.61610279 376.09624163 -97.6256814 371.89973131 -97.63441467 367.70321655 C-97.65418693 357.5626885 -97.66424714 347.42215944 -97.67314246 337.28161693 C-97.6775249 332.50627118 -97.6828919 327.73092654 -97.68813133 322.95558167 C-97.70514585 307.08037293 -97.7196393 291.20516488 -97.72688007 275.32994843 C-97.72878998 271.20922342 -97.73071031 267.08849842 -97.73266602 262.96777344 C-97.73314976 261.94358388 -97.7336335 260.91939431 -97.7341319 259.8641687 C-97.74242944 243.27864919 -97.76776072 226.69320187 -97.80024669 210.10771388 C-97.83332797 193.07940747 -97.85132988 176.05113773 -97.85452431 159.02279902 C-97.85668863 149.46223126 -97.86542559 139.90176872 -97.89098549 130.3412323 C-97.91270723 122.19747564 -97.92073572 114.05384973 -97.91101871 105.91006738 C-97.90647801 101.75678505 -97.90834657 97.60377242 -97.92778015 93.45052719 C-97.94544177 89.64298097 -97.94439016 85.83590059 -97.92888286 82.02834922 C-97.92539383 80.00953157 -97.94151081 77.99070887 -97.95848733 75.97195959 C-97.86327482 62.45341648 -93.83763276 53.33891069 -84.59375 43.625 C-77.14883075 36.54622432 -67.8433455 32.41247018 -57.578125 32.46484375 C-56.46308594 32.46806641 -55.34804688 32.47128906 -54.19921875 32.47460938 C-53.04035156 32.48298828 -51.88148437 32.49136719 -50.6875 32.5 C-49.51316406 32.50451172 -48.33882812 32.50902344 -47.12890625 32.51367188 C-44.23171928 32.52544906 -41.33463546 32.54189674 -38.4375 32.5625 C-38.45055176 31.75135742 -38.46360352 30.94021484 -38.47705078 30.10449219 C-38.48720215 29.03360352 -38.49735352 27.96271484 -38.5078125 26.859375 C-38.52086426 25.80073242 -38.53391602 24.74208984 -38.54736328 23.65136719 C-38.26917524 15.829956 -35.0188722 9.0251196 -29.4375 3.5625 C-21.37297855 -2.65956524 -9.43342353 -4.01897334 0 0 Z M-19.4375 20.5625 C-21.02756531 23.74263063 -20.62167077 27.18220657 -20.640625 30.67578125 C-20.64632507 31.48234665 -20.65202515 32.28891205 -20.65789795 33.11991882 C-20.66735195 34.82887458 -20.67388352 36.5378486 -20.67773438 38.24682617 C-20.6874232 40.85433041 -20.718435 43.46104078 -20.75 46.06835938 C-20.75653185 47.72916199 -20.76178161 49.38997024 -20.765625 51.05078125 C-20.7779718 51.82803055 -20.7903186 52.60527985 -20.80303955 53.40608215 C-20.78432725 57.98227557 -20.26817867 60.9211392 -17.4375 64.5625 C-15.05530919 66.30943992 -13.89275467 66.58526273 -10.9375 66.4375 C-7.69273001 65.3018305 -6.50597655 64.34127547 -4.4375 61.5625 C-3.83685093 58.49203824 -3.87699244 55.46441034 -3.90625 52.34375 C-3.90050964 51.00141296 -3.90050964 51.00141296 -3.89465332 49.63195801 C-3.8919348 47.74242018 -3.89929184 45.85284468 -3.91601562 43.96337891 C-3.93742677 41.0723881 -3.91621266 38.18388233 -3.890625 35.29296875 C-3.89326829 33.45572369 -3.89839329 31.61848017 -3.90625 29.78125 C-3.89815308 28.91761841 -3.89005615 28.05398682 -3.88171387 27.16418457 C-3.95462052 22.26296598 -3.95462052 22.26296598 -6.25195312 18.01757812 C-11.37004997 14.61008738 -15.87477399 15.9035506 -19.4375 20.5625 Z M67.36914062 18.00585938 C64.67912528 21.8125946 64.98852087 25.22368839 65.03125 29.78125 C65.0274231 30.67614136 65.02359619 31.57103271 65.01965332 32.49304199 C65.0169348 34.38257982 65.02429184 36.27215532 65.04101562 38.16162109 C65.06242677 41.0526119 65.04121266 43.94111767 65.015625 46.83203125 C65.01826829 48.66927631 65.02339329 50.50651983 65.03125 52.34375 C65.02315308 53.20738159 65.01505615 54.07101318 65.00671387 54.96081543 C65.06433265 59.87470209 65.06433265 59.87470209 67.44335938 64.08007812 C69.96838495 65.84643242 71.47170685 66.4871148 74.5625 66.5625 C77.24046757 65.379212 78.98859365 64.37512948 80.68823242 61.96850586 C81.97005106 58.44090945 81.86765121 54.96023495 81.86328125 51.25390625 C81.86756638 50.45017075 81.8718515 49.64643524 81.87626648 48.81834412 C81.88199992 47.12133728 81.8825173 45.42430588 81.87817383 43.72729492 C81.87501516 41.13742956 81.89847969 38.54870849 81.92382812 35.95898438 C81.92610143 34.3072931 81.92680447 32.65559877 81.92578125 31.00390625 C81.934991 30.23293106 81.94420074 29.46195587 81.95368958 28.6676178 C81.91481385 24.12720317 81.39729124 21.16268055 78.5625 17.5625 C74.80124785 15.68187393 70.88819917 15.69011203 67.36914062 18.00585938 Z M150.5625 21.5625 C149.85193737 24.51742068 149.88412925 27.37833883 149.93359375 30.40625 C149.93118179 31.25296265 149.92876984 32.09967529 149.92628479 32.9720459 C149.92726169 34.75729061 149.94061803 36.5425662 149.96557617 38.32763672 C149.9998944 41.0541108 149.98622665 43.77734312 149.96679688 46.50390625 C149.97369567 48.24220124 149.98336835 49.9804879 149.99609375 51.71875 C149.99113388 52.53033569 149.98617401 53.34192139 149.98106384 54.17810059 C150.06261836 58.11408491 150.29267135 60.12735906 152.41430664 63.54882812 C155.19068445 66.15134707 156.76540548 66.63999172 160.5625 66.5625 C163.30966387 64.79210551 165.09395922 63.49958156 166.5625 60.5625 C166.84759874 55.05215485 166.87627238 49.54070519 166.91259766 44.02368164 C166.92915215 42.1798032 166.95643569 40.33598881 166.99462891 38.49243164 C167.04945665 35.83185595 167.07127979 33.17278363 167.0859375 30.51171875 C167.10860687 29.69072189 167.13127625 28.86972504 167.15463257 28.02384949 C167.1387722 23.71669556 166.94899399 22.06024278 164.21728516 18.54223633 C161.69341816 16.36975236 161.69341816 16.36975236 158.5625 15.9375 C154.43917231 16.7965266 153.14531702 18.25280486 150.5625 21.5625 Z M236.5625 20.5625 C234.97243469 23.74263063 235.37832923 27.18220657 235.359375 30.67578125 C235.35367493 31.48234665 235.34797485 32.28891205 235.34210205 33.11991882 C235.33264805 34.82887458 235.32611648 36.5378486 235.32226562 38.24682617 C235.3125768 40.85433041 235.281565 43.46104078 235.25 46.06835938 C235.24346815 47.72916199 235.23821839 49.38997024 235.234375 51.05078125 C235.2220282 51.82803055 235.2096814 52.60527985 235.19696045 53.40608215 C235.21567275 57.98227557 235.73182133 60.9211392 238.5625 64.5625 C240.94469081 66.30943992 242.10724533 66.58526273 245.0625 66.4375 C248.30726999 65.3018305 249.49402345 64.34127547 251.5625 61.5625 C252.16314907 58.49203824 252.12300756 55.46441034 252.09375 52.34375 C252.09949036 51.00141296 252.09949036 51.00141296 252.10534668 49.63195801 C252.1080652 47.74242018 252.10070816 45.85284468 252.08398438 43.96337891 C252.06257323 41.0723881 252.08378734 38.18388233 252.109375 35.29296875 C252.10673171 33.45572369 252.10160671 31.61848017 252.09375 29.78125 C252.10184692 28.91761841 252.10994385 28.05398682 252.11828613 27.16418457 C252.04537948 22.26296598 252.04537948 22.26296598 249.74804688 18.01757812 C244.62995003 14.61008738 240.12522601 15.9035506 236.5625 20.5625 Z M323.36914062 18.00585938 C320.67912528 21.8125946 320.98852087 25.22368839 321.03125 29.78125 C321.0274231 30.67614136 321.02359619 31.57103271 321.01965332 32.49304199 C321.0169348 34.38257982 321.02429184 36.27215532 321.04101562 38.16162109 C321.06242677 41.0526119 321.04121266 43.94111767 321.015625 46.83203125 C321.01826829 48.66927631 321.02339329 50.50651983 321.03125 52.34375 C321.02315308 53.20738159 321.01505615 54.07101318 321.00671387 54.96081543 C321.06433265 59.87470209 321.06433265 59.87470209 323.44335938 64.08007812 C325.96838495 65.84643242 327.47170685 66.4871148 330.5625 66.5625 C333.24046757 65.379212 334.98859365 64.37512948 336.68823242 61.96850586 C337.97005106 58.44090945 337.86765121 54.96023495 337.86328125 51.25390625 C337.86756638 50.45017075 337.8718515 49.64643524 337.87626648 48.81834412 C337.88199992 47.12133728 337.8825173 45.42430588 337.87817383 43.72729492 C337.87501516 41.13742956 337.89847969 38.54870849 337.92382812 35.95898438 C337.92610143 34.3072931 337.92680447 32.65559877 337.92578125 31.00390625 C337.934991 30.23293106 337.94420074 29.46195587 337.95368958 28.6676178 C337.91481385 24.12720317 337.39729124 21.16268055 334.5625 17.5625 C330.80124785 15.68187393 326.88819917 15.69011203 323.36914062 18.00585938 Z M-73.875 59 C-74.51308594 59.74121094 -75.15117188 60.48242188 -75.80859375 61.24609375 C-84.03551547 72.94528938 -79.4375 85.50826359 -79.4375 100.5625 C77.6425 100.5625 234.7225 100.5625 396.5625 100.5625 C399.05648876 76.5446374 399.05648876 76.5446374 390.4140625 58.1015625 C389.67929687 57.46992187 388.94453125 56.83828125 388.1875 56.1875 C387.45789063 55.54039063 386.72828125 54.89328125 385.9765625 54.2265625 C379.74217957 49.92907524 373.47430346 50.31526975 366.1875 50.4375 C365.16527344 50.44652344 364.14304687 50.45554688 363.08984375 50.46484375 C360.58048478 50.4882957 358.07161664 50.52111645 355.5625 50.5625 C355.41554688 52.15578125 355.41554688 52.15578125 355.265625 53.78125 C353.51156467 71.05231202 353.51156467 71.05231202 346.375 77.875 C340.94156809 82.13583229 334.49741518 84.16315218 327.59765625 83.84765625 C320.91137492 82.91080685 314.32949468 80.45993483 309.5625 75.5625 C303.64438255 67.63590228 304.24706541 60.83098117 303.5625 50.5625 C292.3425 50.5625 281.1225 50.5625 269.5625 50.5625 C269.2325 55.5125 268.9025 60.4625 268.5625 65.5625 C265.64625967 73.67329343 262.28883456 77.74603768 254.5625 81.5625 C247.05452643 84.46031436 240.19156682 84.36196012 232.734375 81.59765625 C225.88378389 78.33253639 222.12533982 73.5865795 219.5625 66.5625 C218.9025 61.2825 218.2425 56.0025 217.5625 50.5625 C206.6725 50.5625 195.7825 50.5625 184.5625 50.5625 C184.2325 55.1825 183.9025 59.8025 183.5625 64.5625 C180.55451796 72.34786528 177.08078635 77.94752827 169.39453125 81.58984375 C161.13060652 84.67636985 154.30509953 84.14480675 146.18359375 80.95703125 C140.74228888 78.06203 137.79274316 73.61290527 134.6875 68.4375 C133.01455816 62.67514477 132.99000291 56.54754081 132.5625 50.5625 C121.6725 50.5625 110.7825 50.5625 99.5625 50.5625 C98.9025 55.8425 98.2425 61.1225 97.5625 66.5625 C94.99966018 73.5865795 91.24121611 78.33253639 84.390625 81.59765625 C75.93831186 84.73084129 68.76640548 84.19882567 60.5625 80.5625 C53.74534186 77.20173667 51.21913164 72.59476023 48.5625 65.5625 C48.0675 58.1375 48.0675 58.1375 47.5625 50.5625 C36.3425 50.5625 25.1225 50.5625 13.5625 50.5625 C13.2325 55.5125 12.9025 60.4625 12.5625 65.5625 C9.64625967 73.67329343 6.28883456 77.74603768 -1.4375 81.5625 C-8.94547357 84.46031436 -15.80843318 84.36196012 -23.265625 81.59765625 C-28.87291609 78.92511643 -33.07296904 74.85825445 -35.66015625 69.1953125 C-37.44091889 63.16398577 -37.86182729 56.80400412 -38.4375 50.5625 C-41.91637472 50.44483284 -45.3947277 50.37476685 -48.875 50.3125 C-49.84888672 50.27898438 -50.82277344 50.24546875 -51.82617188 50.2109375 C-60.74628376 50.0916049 -67.97140254 51.91813776 -73.875 59 Z M-79.4375 118.5625 C-79.52 165.731875 -79.6025 212.90125 -79.6875 261.5 C-79.72391602 276.40148193 -79.76033203 291.30296387 -79.79785156 306.65600586 C-79.81122815 319.9974423 -79.81122815 319.9974423 -79.8192749 333.33888245 C-79.823006 339.28771785 -79.83768259 345.23640311 -79.85980225 351.18519592 C-79.88528021 358.04731593 -79.89683992 364.90929185 -79.8912798 371.77145949 C-79.88887209 375.28112136 -79.89266528 378.79046128 -79.91436052 382.30006397 C-79.93424884 386.06183158 -79.92946318 389.82279344 -79.91851807 393.58457947 C-79.93016872 394.67475152 -79.94181938 395.76492357 -79.95382309 396.88813114 C-79.89371093 404.57223976 -78.50310106 410.83321212 -73.54296875 416.8671875 C-72.59357422 417.64449219 -72.59357422 417.64449219 -71.625 418.4375 C-70.99980469 418.97117187 -70.37460938 419.50484375 -69.73046875 420.0546875 C-62.14844275 425.04048313 -55.43051414 425.07032349 -46.5078125 425.13671875 C-45.1493211 425.15146635 -43.79083112 425.166346 -42.43234253 425.18135071 C-39.59303055 425.20823932 -36.75397813 425.2218653 -33.91455078 425.22827148 C-30.29695882 425.23913909 -26.68215784 425.30087223 -23.06538582 425.3749876 C-20.26153549 425.42363393 -17.45834601 425.43580714 -14.65410995 425.43833351 C-12.67927664 425.44896853 -10.70475636 425.49694858 -8.73049927 425.54582214 C-2.24362227 425.49747025 1.71931175 425.11873961 6.64111328 420.68286133 C7.29105255 419.98099197 7.94099182 419.27912262 8.61062622 418.5559845 C13.22357884 413.84469136 19.55174222 411.82988147 25.74047852 409.9934082 C26.64290787 409.72494583 27.54533722 409.45648346 28.47511292 409.17988586 C29.16395065 408.97614853 29.85278839 408.77241119 30.5625 408.5625 C30.63209117 397.60081238 30.68535763 386.63917756 30.71793652 375.6773138 C30.73357483 370.58696105 30.75477967 365.49675974 30.78881836 360.40649414 C30.82147711 355.49168476 30.83936681 350.57702082 30.84713173 345.66211128 C30.85266353 343.78947219 30.86346582 341.91684082 30.87969017 340.04426384 C30.90155109 337.41597328 30.90446332 334.78827935 30.90307617 332.15991211 C30.913862 331.39026627 30.92464783 330.62062042 30.9357605 329.82765198 C30.9065568 324.69486203 29.95210267 321.12742795 27.5625 316.5625 C24.77360554 314.47531348 22.35541201 314.31474676 18.9296875 314.2890625 C18.04547119 314.27133789 17.16125488 314.25361328 16.25024414 314.23535156 C15.32203857 314.21956055 14.39383301 314.20376953 13.4375 314.1875 C2.69800114 313.83295856 -5.61733996 312.38266004 -13.4375 304.5625 C-18.38914886 298.47904569 -21.10023593 290.50904249 -20.71875 282.625 C-19.53090879 273.91416444 -16.33844774 266.90050104 -9.703125 261.02734375 C-2.25441899 255.37489649 5.10372134 255.23788316 14.1796875 255.1484375 C15.39198029 255.12907135 16.60427307 255.1097052 17.853302 255.0897522 C21.71463039 255.03010685 25.57598883 254.98363055 29.4375 254.9375 C32.05990863 254.89930644 34.68230491 254.86025391 37.3046875 254.8203125 C43.72384839 254.72441753 50.14308409 254.63932595 56.5625 254.5625 C56.7486084 253.36318848 56.9347168 252.16387695 57.12646484 250.92822266 C57.38347234 249.31928531 57.64081452 247.71040141 57.8984375 246.1015625 C58.08007446 244.92219116 58.08007446 244.92219116 58.26538086 243.71899414 C62.26608898 218.99080777 75.92773757 197.30072276 95.4375 181.8046875 C119.88317562 164.26491524 148.04012101 157.70311576 177.83203125 162.2578125 C182.17026181 163.07134403 186.3660766 164.20124409 190.5625 165.5625 C191.21460449 165.77148926 191.86670898 165.98047852 192.53857422 166.19580078 C218.94621491 174.98956489 238.82532873 194.7089361 251.38671875 219.10546875 C256.53687343 230.37872924 259.17664328 242.29560983 260.5625 254.5625 C261.60148437 254.57667969 262.64046875 254.59085938 263.7109375 254.60546875 C273.08597374 254.86769966 281.47620541 255.39107915 288.4296875 262.4609375 C293.01172699 268.18300595 294.80949671 273.66898612 294.81787109 281.0234375 C294.82483002 282.28494629 294.83178894 283.54645508 294.83895874 284.84619141 C294.83793718 285.84601044 294.83793718 285.84601044 294.83689499 286.86602783 C294.8359231 288.96865654 294.8489481 291.07078331 294.86587524 293.17333984 C294.91195543 299.14742217 294.93675425 305.12144892 294.94335938 311.09570312 C294.94838545 314.75977849 294.97268352 318.42332373 295.00868607 322.08721924 C295.01845268 323.47777111 295.02083316 324.86839617 295.01551437 326.25897217 C294.74238538 336.27784649 294.74238538 336.27784649 299.5625 344.5625 C300.42875 345.490625 300.42875 345.490625 301.3125 346.4375 C304.71176749 348.13713375 307.89245032 348.18478203 311.5625 347.5625 C316.159793 345.39396557 318.07951777 343.23938427 319.96621132 338.54780388 C320.98729878 335.14816044 320.95415824 331.75269283 320.90307617 328.24047852 C320.90373329 327.03925606 320.90373329 327.03925606 320.90440369 325.81376648 C320.90232796 323.18939092 320.87905514 320.56566902 320.85546875 317.94140625 C320.84986846 316.11295419 320.8456004 314.28449761 320.84260559 312.45603943 C320.83119094 307.66048598 320.80175304 302.86520825 320.76849365 298.06976318 C320.73771969 293.1695936 320.72408463 288.26937914 320.70898438 283.36914062 C320.67687995 273.76680643 320.62572472 264.16467621 320.5625 254.5625 C319.94979248 254.36130051 319.33708496 254.16010101 318.70581055 253.95280457 C317.89926025 253.68631607 317.09270996 253.41982758 316.26171875 253.14526367 C315.46338623 252.88218918 314.66505371 252.61911469 313.8425293 252.34806824 C300.04245315 247.59334798 290.3135247 239.48589014 283.5625 226.5625 C280.36898385 219.17567388 278.45192335 212.37741622 278.40136719 204.30688477 C278.39175964 203.0653212 278.3821521 201.82375763 278.37225342 200.54457092 C278.36740568 199.19768458 278.36312679 197.85079609 278.359375 196.50390625 C278.35654762 195.82092909 278.35372025 195.13795193 278.35080719 194.43427849 C278.33585755 190.82231132 278.32660055 187.21038369 278.32226562 183.59838867 C278.31677705 179.87835497 278.29272923 176.15868654 278.26429367 172.43876743 C278.24562525 169.56734675 278.24045954 166.69601351 278.23892975 163.82453728 C278.23591382 162.45347019 278.22792123 161.08240426 278.21474457 159.71139717 C278.19759253 157.79017575 278.20142231 155.86880217 278.20605469 153.94750977 C278.20240906 152.85672623 278.19876343 151.76594269 278.19500732 150.6421051 C278.69810957 146.42608572 280.19189353 143.06517012 283.0625 139.91796875 C288.20218725 135.91597269 292.08120966 135.31348053 298.4375 135.1875 C299.14519531 135.15011719 299.85289062 135.11273438 300.58203125 135.07421875 C304.56791377 135.00741625 306.35608985 135.40363983 309.546875 137.859375 C312.13497035 141.33023155 312.03349765 143.32352115 311.5625 147.5625 C311.2325 148.5525 310.9025 149.5425 310.5625 150.5625 C307.40004459 151.6166518 304.69301782 151.87525672 301.375 152.125 C300.28832031 152.20878906 299.20164062 152.29257813 298.08203125 152.37890625 C297.25058594 152.43949219 296.41914063 152.50007813 295.5625 152.5625 C295.46052822 160.33622957 295.39079523 168.10978468 295.34277344 175.8840332 C295.32274004 178.52504929 295.29550549 181.16602149 295.26074219 183.80688477 C295.211861 187.61746091 295.18944733 191.42744721 295.171875 195.23828125 C295.15122986 196.40643875 295.13058472 197.57459625 295.10931396 198.77815247 C295.10633957 209.80773985 297.83218143 219.44032197 305.5625 227.5625 C313.98440237 235.25054366 321.52625668 237.19097356 332.87890625 236.8984375 C342.92021317 235.98268735 349.98194275 231.07646962 356.5625 223.5625 C360.33176029 217.58009606 362.6914325 212.00038251 362.67602539 204.89770508 C362.67591209 203.15623955 362.67591209 203.15623955 362.67579651 201.3795929 C362.67063522 200.12639755 362.66547394 198.87320221 362.66015625 197.58203125 C362.6587413 196.29890549 362.65732635 195.01577972 362.65586853 193.69377136 C362.65205405 190.28579759 362.64223291 186.87786657 362.63116455 183.46990967 C362.62092743 179.99101337 362.61636598 176.51211015 362.61132812 173.03320312 C362.60060967 166.20961788 362.58354609 159.38606099 362.5625 152.5625 C361.44101562 152.50642578 361.44101562 152.50642578 360.296875 152.44921875 C359.31203125 152.38347656 358.3271875 152.31773437 357.3125 152.25 C356.33796875 152.19199219 355.3634375 152.13398438 354.359375 152.07421875 C351.24790437 151.5049413 349.80751773 150.76623005 347.5625 148.5625 C346.45876622 144.58905839 346.14706417 142.47250228 347.875 138.6875 C349.5625 136.5625 349.5625 136.5625 351.5625 135.5625 C367.25666138 134.46714091 367.25666138 134.46714091 373.984375 138.00390625 C379.78763954 143.73534821 380.04082594 149.22816627 380.11828613 157.08486938 C380.11112097 158.46543939 380.10291566 159.84600433 380.09375 161.2265625 C380.0964504 162.66515362 380.10033736 164.10374295 380.10534668 165.54232788 C380.11122747 168.5532982 380.1027331 171.56379234 380.08398438 174.57470703 C380.06131844 178.39735693 380.07424673 182.21887548 380.09827423 186.04148293 C380.11287745 189.01362288 380.10805866 191.98550438 380.09776306 194.95765305 C380.09512914 196.36478184 380.09824544 197.77193556 380.10768127 199.17903519 C380.19102132 215.11182248 376.24303188 228.38417233 365.375 240.3125 C358.61503414 246.61775964 350.34004877 250.80834895 341.42578125 253.0546875 C339.56269088 253.39687813 339.56269088 253.39687813 338.5625 254.5625 C338.45332975 257.15660295 338.40827301 259.72505747 338.40478516 262.32006836 C338.39970444 263.13320496 338.39462372 263.94634155 338.38938904 264.78411865 C338.37865822 266.5574783 338.37004876 268.33085172 338.36326981 270.10423088 C338.35149974 272.91734283 338.33204741 275.73029994 338.31015015 278.54335022 C338.24850205 286.54455342 338.19465405 294.54574495 338.16113281 302.54711914 C338.14009209 307.43728908 338.10470269 312.3271837 338.06037521 317.21719551 C338.04627666 319.07613425 338.03750676 320.93512178 338.03432083 322.79411125 C337.98720579 347.67536706 337.98720579 347.67536706 328.5625 357.5625 C321.24329368 364.04098668 313.94392143 365.03135702 304.328125 364.87109375 C296.33726803 364.21624136 290.43673532 361.4242793 285.03125 355.49609375 C280.2430683 349.19250348 278.43979024 343.16134403 278.43652344 335.31274414 C278.43271667 334.0478566 278.42890991 332.78296906 278.42498779 331.47975159 C278.42479393 330.80658968 278.42460007 330.13342777 278.42440033 329.43986702 C278.4209711 326.59878617 278.39959504 323.75793139 278.37916946 320.9169302 C278.34121022 315.63249549 278.30988683 310.34830754 278.31201172 305.0637207 C278.31279943 301.38238923 278.28941643 297.70189367 278.2501297 294.02078056 C278.23968133 292.62103472 278.23813723 291.22119227 278.24578094 289.8214283 C278.25541831 287.86148129 278.23142536 285.90145688 278.20605469 283.94165039 C278.20240906 282.82786514 278.19876343 281.7140799 278.19500732 280.56654358 C277.35790768 276.59080493 275.68900539 275.07352114 272.5625 272.5625 C269.44609262 271.96266253 269.44609262 271.96266253 266.25 272.25 C265.18136719 272.29511719 264.11273438 272.34023438 263.01171875 272.38671875 C261.79935547 272.47373047 261.79935547 272.47373047 260.5625 272.5625 C260.41554688 273.59246094 260.26859375 274.62242187 260.1171875 275.68359375 C255.91946755 303.12496766 243.72723382 326.84621535 221.74609375 344.25390625 C202.79354212 357.99741302 182.36139715 365.19377366 158.75 365 C156.77833862 364.98755249 156.77833862 364.98755249 154.7668457 364.97485352 C144.8501925 364.80281057 135.91271333 363.86745995 126.5625 360.5625 C125.52295166 360.20841064 125.52295166 360.20841064 124.46240234 359.84716797 C98.81967031 350.89558629 78.3634325 332.67559205 66.3125 308.375 C62.08644332 299.41063735 59.55005926 290.31062685 57.92578125 280.5859375 C57.7925647 279.80951904 57.65934814 279.03310059 57.52209473 278.2331543 C57.19843815 276.34358174 56.87992352 274.45312961 56.5625 272.5625 C49.26695362 272.43556336 41.97169275 272.34809084 34.67529297 272.2878418 C32.19406492 272.26272159 29.71291069 272.22861931 27.23193359 272.18530273 C23.66224946 272.12454519 20.09354495 272.0962642 16.5234375 272.07421875 C15.41696869 272.04841232 14.31049988 272.0226059 13.17050171 271.99601746 C6.5516718 271.93015209 6.5516718 271.93015209 0.88549805 274.96850586 C-2.20389553 278.41830163 -3.30608628 280.95425905 -3.4375 285.5625 C-2.32368498 289.73930633 -1.21283066 291.88377994 2.0390625 294.73046875 C6.75728304 297.1837342 10.69762404 297.12130995 15.9375 297.125 C24.97261722 297.16991891 32.52776799 298.3038637 39.95703125 303.9140625 C47.01078865 311.1566066 47.69844063 320.68317661 47.76782227 330.22998047 C47.77772186 331.07941727 47.78762146 331.92885406 47.79782104 332.80403137 C47.82926567 335.59588895 47.85412573 338.3877635 47.87890625 341.1796875 C47.89949051 343.12167794 47.92048736 345.06366404 47.94187927 347.00564575 C47.99694796 352.10518881 48.04642402 357.20477129 48.09472656 362.30438232 C48.14505289 367.51285286 48.20068074 372.7212665 48.25585938 377.9296875 C48.36325488 388.14057634 48.46474084 398.35151468 48.5625 408.5625 C49.6558667 408.95284424 50.7492334 409.34318848 51.87573242 409.74536133 C53.32745804 410.27384811 54.7790287 410.8027607 56.23046875 411.33203125 C56.94908081 411.58730591 57.66769287 411.84258057 58.40808105 412.10559082 C64.84152541 414.46825901 70.45217363 417.7636239 74.85357374 423.1393857 C77.1716844 425.06980044 78.609364 424.94042609 81.60453892 424.94561005 C83.17700126 424.95919501 83.17700126 424.95919501 84.78123051 424.97305441 C85.93684622 424.96772648 87.09246194 424.96239856 88.28309631 424.95690918 C90.12008163 424.96604584 90.12008163 424.96604584 91.99417776 424.97536707 C95.4001301 424.98916932 98.80560191 424.98943836 102.2115463 424.9839921 C105.8825049 424.98132804 109.55340114 424.99584234 113.22433472 425.00808716 C120.42026862 425.02917342 127.616122 425.03368005 134.81208313 425.03189927 C140.66290891 425.03059266 146.51370952 425.03439064 152.36453056 425.04182434 C154.04868092 425.04392352 155.73283128 425.04602112 157.41698164 425.04811716 C158.67433071 425.04968245 158.67433071 425.04968245 159.95708077 425.05127937 C175.82316358 425.07019635 191.6892002 425.06912776 207.55528962 425.06231004 C222.06253461 425.05673978 236.56960271 425.07753528 251.07680637 425.11067051 C265.97278833 425.14442936 280.86868563 425.15957269 295.76470655 425.15495348 C304.1275105 425.15271019 312.49015118 425.15793058 320.85292244 425.18284607 C327.97640669 425.20388817 335.09963825 425.20742302 342.22313298 425.18854648 C345.85586489 425.1794044 349.48812609 425.17819753 353.120821 425.19890213 C357.0651126 425.2211331 361.00870484 425.2043549 364.95301819 425.18395996 C366.09301885 425.19647781 367.23301952 425.20899566 368.40756565 425.22189283 C376.91353634 425.12774376 383.41052805 423.01582283 390 417.53515625 C390.515625 416.90480469 391.03125 416.27445312 391.5625 415.625 C392.09875 414.99722656 392.635 414.36945313 393.1875 413.72265625 C397.1663741 407.47175461 396.8409231 401.09758265 396.80300903 393.94534302 C396.80472107 392.77107254 396.80643311 391.59680206 396.80819702 390.38694763 C396.81092844 387.12954521 396.80466705 383.87230221 396.79464546 380.61491862 C396.78590466 377.04756473 396.78883518 373.48021681 396.7902813 369.91285515 C396.79134414 362.98972122 396.78211412 356.06663921 396.76927864 349.14351862 C396.75487489 341.13465508 396.75328893 333.12582271 396.75170898 325.11694336 C396.74120962 303.97378735 396.71328738 282.83064289 396.6875 261.6875 C396.64625 214.45625 396.605 167.225 396.5625 118.5625 C239.4825 118.5625 82.4025 118.5625 -79.4375 118.5625 Z M93.2109375 208.24609375 C78.15269976 227.3146869 71.18103945 250.23935783 74.0234375 274.49609375 C77.41755703 296.46911797 88.70834803 316.91218133 106.4909668 330.52783203 C126.27500281 344.97663113 148.88110748 350.52665951 173.21972656 347.19921875 C195.69370642 343.17193759 215.48665908 330.19619361 228.5625 311.5625 C242.04131493 291.03849686 246.5708028 267.95319052 241.59375 243.796875 C236.57300522 221.94069633 222.44649867 202.55076778 203.5625 190.5625 C166.98811602 169.21233928 121.28456764 176.20857896 93.2109375 208.24609375 Z M11.10546875 440.30859375 C5.89043496 447.92650387 4.35079312 456.48681547 5.5625 465.5625 C8.46418509 476.05890167 14.42514369 484.27001587 23.77734375 489.89453125 C32.38288833 493.94672612 42.89494131 494.19377596 51.875 491.125 C61.33660514 486.63073756 67.93846175 479.32211929 71.5625 469.5625 C74.40395275 460.37390604 72.72496427 451.01791331 68.5625 442.5625 C64.34206129 434.85443187 57.47651312 429.95576071 49.390625 426.68359375 C34.13381165 422.32014513 20.85426683 428.55203405 11.10546875 440.30859375 Z " fill="#FFFFFF" transform="translate(97.4375,1.4375)"/>
<path d="M0 0 C1.23685547 -0.02384766 2.47371094 -0.04769531 3.74804688 -0.07226562 C10.06139473 -0.06214267 15.36713091 0.04233981 20.51098633 3.99633789 C25.4913 9.02367262 26.2825217 13.68913494 26.453125 20.6875 C26.42674022 23.31278591 26.37933522 25.93793236 26.3125 28.5625 C26.29239985 29.92315073 26.27415529 31.2838302 26.2578125 32.64453125 C26.2109085 35.951263 26.14527725 39.25650416 26.0625 42.5625 C27.17322876 42.53893433 27.17322876 42.53893433 28.30639648 42.51489258 C31.70418473 42.45202461 35.10185004 42.41334559 38.5 42.375 C40.24700195 42.33729492 40.24700195 42.33729492 42.02929688 42.29882812 C50.22823585 42.22954132 57.31505019 42.62971319 63.9375 47.8125 C69.2273571 54.65819742 69.53437659 60.65576515 69.4375 69.0625 C69.44910156 70.06925781 69.46070313 71.07601562 69.47265625 72.11328125 C69.44338428 79.55811948 68.64897569 84.65271485 63.5625 90.375 C58.04293277 95.20462133 53.82457706 95.69407382 46.66796875 95.66015625 C45.46591797 95.65693359 44.26386719 95.65371094 43.02539062 95.65039062 C41.77951172 95.64201172 40.53363281 95.63363281 39.25 95.625 C37.98478516 95.62048828 36.71957031 95.61597656 35.41601562 95.61132812 C32.2981289 95.59956251 29.18033867 95.58312272 26.0625 95.5625 C26.08868408 96.42939453 26.11486816 97.29628906 26.1418457 98.18945312 C26.22761891 101.43971496 26.29001444 104.68939555 26.3371582 107.94042969 C26.36213412 109.34101469 26.39612817 110.74147161 26.43969727 112.14160156 C26.87825385 126.60880947 26.87825385 126.60880947 22.57495117 132.0625 C16.78159834 137.80815937 11.78509264 138.07547668 3.8359375 138.109375 C2.59070313 138.09390625 1.34546875 138.0784375 0.0625 138.0625 C-1.80535156 138.08570313 -1.80535156 138.08570313 -3.7109375 138.109375 C-11.66009264 138.07547668 -16.65659834 137.80815937 -22.44995117 132.0625 C-27.49734096 125.66580799 -26.48963948 117.76351806 -26.25 110.0625 C-26.22487733 108.65368556 -26.20207117 107.2448278 -26.18164062 105.8359375 C-26.12298316 102.41034159 -26.04093481 98.9869877 -25.9375 95.5625 C-26.71875244 95.57297363 -27.50000488 95.58344727 -28.30493164 95.59423828 C-31.86992126 95.63600208 -35.43485922 95.66189098 -39 95.6875 C-40.22912109 95.70425781 -41.45824219 95.72101563 -42.72460938 95.73828125 C-50.52764696 95.78034614 -56.51800845 95.7983214 -63.1875 91.4375 C-69.40601684 84.9363233 -69.41173019 77.5393091 -69.3125 69 C-69.32410156 67.99775391 -69.33570313 66.99550781 -69.34765625 65.96289062 C-69.3187126 58.6353242 -68.37882331 53.72185957 -63.8125 47.8125 C-56.22015081 41.8706615 -47.64855299 42.17485137 -38.375 42.375 C-36.57579102 42.39530273 -36.57579102 42.39530273 -34.74023438 42.41601562 C-31.80551121 42.451092 -28.87175118 42.50024573 -25.9375 42.5625 C-25.96368408 41.69560547 -25.98986816 40.82871094 -26.0168457 39.93554688 C-26.10261891 36.68528504 -26.16501444 33.43560445 -26.2121582 30.18457031 C-26.23713412 28.78398531 -26.27112817 27.38352839 -26.31469727 25.98339844 C-26.75322053 11.51728974 -26.75322053 11.51728974 -22.45019531 6.06225586 C-15.79005404 -0.54091519 -8.99219256 -0.07941157 0 0 Z M-7.9375 18.5625 C-7.98648438 21.11484375 -8.03546875 23.6671875 -8.0859375 26.296875 C-8.13996851 28.77251988 -8.19726763 31.24806906 -8.25488281 33.72363281 C-8.29313327 35.44231011 -8.32799303 37.16106638 -8.359375 38.87988281 C-8.40511128 41.3525004 -8.46309084 43.82457613 -8.5234375 46.296875 C-8.54076431 47.44709137 -8.54076431 47.44709137 -8.55844116 48.62054443 C-8.74769406 55.48256859 -8.74769406 55.48256859 -10.9375 58.5625 C-14.21065509 60.19907754 -17.84372231 59.8055807 -21.4453125 59.87890625 C-22.28593231 59.89968735 -23.12655212 59.92046844 -23.99264526 59.94187927 C-26.68251235 60.00735439 -29.37247843 60.0662502 -32.0625 60.125 C-33.88412489 60.16818716 -35.70573971 60.21180152 -37.52734375 60.25585938 C-41.99729577 60.36383907 -46.46732108 60.46292729 -50.9375 60.5625 C-50.9375 66.1725 -50.9375 71.7825 -50.9375 77.5625 C-46.87501953 77.63597656 -46.87501953 77.63597656 -42.73046875 77.7109375 C-40.1092371 77.76493792 -37.48809734 77.82224908 -34.86694336 77.87988281 C-33.04442176 77.91817995 -31.22182437 77.95303155 -29.39916992 77.984375 C-26.78016059 78.03000979 -24.16167326 78.08800622 -21.54296875 78.1484375 C-20.72724899 78.15998871 -19.91152924 78.17153992 -19.0710907 78.18344116 C-15.20385496 78.28447274 -13.22590215 78.3702319 -9.9375 80.5625 C-8.69276468 84.29670597 -8.70540215 87.83615238 -8.62109375 91.73046875 C-8.60031265 92.52528152 -8.57953156 93.3200943 -8.55812073 94.13899231 C-8.49277913 96.67590763 -8.43381192 99.21292573 -8.375 101.75 C-8.33180014 103.47071372 -8.28818537 105.19141708 -8.24414062 106.91210938 C-8.13633323 111.12880247 -8.0371458 115.34557451 -7.9375 119.5625 C-2.6575 119.5625 2.6225 119.5625 8.0625 119.5625 C8.11148438 117.01015625 8.16046875 114.4578125 8.2109375 111.828125 C8.26496851 109.35248012 8.32226763 106.87693094 8.37988281 104.40136719 C8.41813327 102.68268989 8.45299303 100.96393362 8.484375 99.24511719 C8.53011128 96.7724996 8.58809084 94.30042387 8.6484375 91.828125 C8.66576431 90.67790863 8.66576431 90.67790863 8.68344116 89.50445557 C8.87269406 82.64243141 8.87269406 82.64243141 11.0625 79.5625 C14.33565509 77.92592246 17.96872231 78.3194193 21.5703125 78.24609375 C22.41093231 78.22531265 23.25155212 78.20453156 24.11764526 78.18312073 C26.80751235 78.11764561 29.49747843 78.0587498 32.1875 78 C34.00912489 77.95681284 35.83073971 77.91319848 37.65234375 77.86914062 C42.12229577 77.76116093 46.59232108 77.66207271 51.0625 77.5625 C51.0625 71.9525 51.0625 66.3425 51.0625 60.5625 C47.01742187 60.52382812 47.01742187 60.52382812 42.890625 60.484375 C40.27593593 60.44595109 37.66144383 60.4007921 35.046875 60.35498047 C33.23121561 60.3267729 31.41543348 60.30555726 29.59960938 60.29150391 C26.98764211 60.27007091 24.37715026 60.22342115 21.765625 60.171875 C20.95506653 60.17064636 20.14450806 60.16941772 19.30938721 60.16815186 C15.91740205 60.08020118 13.48897977 59.81911916 10.55664062 58.0546875 C8.42011189 54.49101343 8.45941858 51.11808914 8.453125 47.078125 C8.43658875 46.26253113 8.42005249 45.44693726 8.40301514 44.60662842 C8.35453417 42.00850903 8.33316477 39.41097491 8.3125 36.8125 C8.28434028 35.04814764 8.25441284 33.28382254 8.22265625 31.51953125 C8.1454537 27.20025167 8.10493929 22.88282013 8.0625 18.5625 C2.7825 18.5625 -2.4975 18.5625 -7.9375 18.5625 Z " fill="#FFFFFF" transform="translate(255.9375,195.4375)"/>
</svg>
