<?xml version="1.0" encoding="UTF-8"?>
<svg version="1.1" viewBox="0 0 2048 2048" width="128" height="128" xmlns="http://www.w3.org/2000/svg">
<path transform="translate(1101,59)" d="m0 0h290l28 2 11 3 9 6 8 9 5 10 3 14 5 38v3h151l16 1 14 3 13 7 13 12 9 14 4 9 1 5 1 16v481l-1 62 12-1h34l32 3 23 4 21 6 19 8 21 10 21 13 14 10 16 13 15 14 13 13 11 14 10 14 10 18 8 16 6 14 10 28 6 27 3 22 1 23-1 24-4 32-5 22-8 24-10 23-13 24-12 17-11 13-12 13-17 17-20 16-14 9-18 10-19 9-31 11-25 6-26 4-25 2h-18l-22-2-23-4-24-6-25-10-23-11-18-11-14-10-16-13-10-7-7-3-671-1-33-2-12-3-10-6-16-16-7-12-3-12-2-32v-921l1-21 4-13 6-10 12-13 14-9 9-4 18-2 65-1 93-1 1-22 3-23 4-10 6-9 8-8 9-6 9-3 9-1zm-67 48-1 1v118l4 2h89l283-1 1-1 1-26v-92l-1-1zm-148 83-73 1-1 1-1 12-1 27v919l1 23 3 1h666l-9-20-10-23-10-30-6-24-3-19-1-10v-44l2-20 6-29 10-30 12-25 10-17 11-16 12-16 12-14 4-5 8-7 12-11 18-13 25-15 21-10 23-9 8-4-1-534-1-30-2-6-1-1-10-1-116-1h-44l-2 27-4 22-3 10-9 12-8 7-9 3-6 1-20 1-77 1h-253l-34-1-16-2-8-4-10-9-9-14-3-10-2-16v-26l-1-1-40-1zm801 611-20 3-23 6-19 7-16 8-17 10-16 12-11 9-8 8-6 5-18 22-11 17-9 16-7 14-9 24-6 25-3 21-1 15v13l2 20 5 25 10 30 8 16 10 19 8 12 9 11 9 10 7 8 14 12 17 13 18 11 16 8 14 6 22 7 20 4 28 3h25l23-3 26-6 15-5 25-11 20-12 14-10 14-12 16-16 11-14 11-15 10-18 6-13 8-22 6-23 3-21 1-13v-22l-3-27-5-22-8-24-12-26-11-18-12-16-12-14-8-8-11-9-13-10-20-12-16-8-19-8-21-6-21-4-20-2z" fill="#121E3C"/>
<path transform="translate(290,1006)" d="m0 0h19l23 2 23 4 26 8 25 12 14 8 13 9 12 9 13 11 13 12 11 12 11 15 8 13 7 12 10 22 8 24 6 26 2 15 1 15v13l-2 28-3 13 13-5 15-6 16-4 23-3 23-1 62-1h47l198 1 35 1 34 3 25 4 36 9 26 9 20 9 19 10 17 11 12 9 14 11 10 9 16 16 15 20 9 15 11 21 9 25 6 21 4 25 1 12v27l-3 37-5 27-8 26-8 23-11 25-11 22-17 28-10 15-12 17 71 1 26 1 24 3 18 6 16 9 11 9 14 14 9 13 8 16 6 18 2 10v28l-4 20-8 20-7 11-7 9-7 8-8 7-9 7-12 7-18 6-17 3-21 2-19 1-43 1h-93l-30-1-21-2-22-4-18-6-15-8-12-9-13-12-10-12-8-13-8-16-7-22-3-20-1-16v-147l-13-1h-303l-30 1-4 10-7 20-8 20-9 26-11 29-14 37-11 30-12 29-5 11-8 16-8 12-9 11-12 12-13 9-15 7-22 5-17 2h-15l-20-3-16-5-12-6-15-11-14-14-10-14-9-19-5-15-3-16v-15l2-15 4-17 11-32 11-28 16-40 6-17 6-15 13-34 15-39 10-27 10-25 7-20 13-33 6-16 13-33 10-24 3-9-16 8-23 11-24 8-37 8-27 3h-17l-23-2-17-3-19-5-25-9-22-11-19-12-12-9-13-11-15-15-9-11-9-12-10-15-14-28-8-20-7-23-4-20-2-18v-22l3-27 5-24 5-16 10-25 10-19 10-16 13-16 9-10 7-8 10-10 14-11 14-10 17-10 23-11 21-7 23-5 20-3zm-4 47-24 3-20 5-24 9-16 8-16 11-11 9-10 9-8 8-10 13-10 15-6 10-9 20-8 24-4 19-2 21v22l3 23 5 19 8 20 8 16 12 19 12 14 17 17 13 10 17 11 17 9 22 8 22 5 18 2h35l21-3 21-6 19-8 15-8 18-12 13-10 12-11 9-11 8-10 10-15 11-23 5-15 5-25 2-23v-21l-2-19-6-26-4-12-11-24-12-19-8-10-11-12-9-9-17-13-19-11-19-9-26-8-19-4-22-2zm330 265-27 2-18 4-15 6-19 13-6 5v2l-4 2-11 15-9 16-10 22-19 48-11 29-10 26-17 46-28 74-18 47-15 39-13 34-26 66-10 26-5 16-3 14v14l4 12 8 15 9 10 13 10 15 6 9 2h21l15-5 11-6 11-9 9-12 11-23 15-41 10-26 8-21 7-19 12-31 20-54 10-25 7-11 4-2 26-2 236-1h89l46 1 16 2 5 5 1 3 1 15 1 43v128l3 26 4 13 9 15 9 11 11 9 10 7 9 4 16 4 20 2h182l20-2 15-4 12-7 12-11 9-15 4-14 1-6v-14l-3-14-7-16-7-10-10-9-14-7-12-3-15-1-138-2-13-2-7-4-3-7v-13l4-11 9-11 8-10 10-13 13-18 10-16 8-13 12-23 7-14 10-25 7-23 6-25 3-16 1-10v-41l-3-23-6-23-8-21-11-21-10-14-13-15-13-12-13-10-15-10-18-10-22-10-30-10-21-5-18-3-19-2-16-1-30-1z" fill="#121E3C"/>
<path transform="translate(1050,793)" d="m0 0h340l42 1 9 1 4 4 2 6v22l-1 8-6 4-8 1-48 1h-433l-13-1-5-3-3-7v-25l3-9 2-1 19-1z" fill="#121E3C"/>
<path transform="translate(1038,970)" d="m0 0h271l54 1 11 1 5 5 2 8v16l-1 9-5 5-3 1-20 1-71 1h-317l-21-1-7-1-4-5-2-6v-20l3-10 3-3 9-1z" fill="#121E3C"/>
<path transform="translate(1214,426)" d="m0 0h22l7 2 2 3 1 91h45l33 1 13 1 5 3 2 5v11l-1 18-5 5-15 2-69 2h-8v28l-1 51-1 12-5 5h-28l-7-2-4-8-1-9-1-33v-43l-76-2-15-2-4-4-2-7v-25l3-5 3-2 7-1h84v-30l1-56 1-8 5-2z" fill="#121E3C"/>
<path transform="translate(1810,935)" d="m0 0 7 1 11 6 7 6 3 7-1 9-6 9-4 5h-2l-2 4-9 10-7 8-13 13-3 4h-2l-2 4-40 40h-2v2l-5 5-3 1-1 3-8 7-5 6h-2l-1 3-8 7-9 9-10 8-7 5-9 1-8-5-14-12-7-7-8-7-24-24-7-8-11-12-7-10-4-8 1-5 7-9 6-5 6-3h10l12 6 10 9 8 7 7 8 8 7 11 11 9 5 8-6 9-11 21-21 7-8 43-43 8-7 10-10h2v-2l12-9z" fill="#121E3C"/>
</svg>
