<?xml version="1.0" encoding="UTF-8"?>
<svg version="1.1" viewBox="0 0 2048 2048" width="32" height="32" xmlns="http://www.w3.org/2000/svg">
<path transform="translate(412,1024)" d="m0 0h708l32 2 31 4 28 6 29 8 25 9 25 11 22 11 27 16 20 14 13 10 11 9 10 9 8 7 23 23 9 11 7 8 10 13 2 2v3l-29 7-24 8-18 8-16 8-19 12-16 12-10 9-8 7-10 10-11 14-9 12-13 21-76 152-3 3-17-9-23-9-24-7-22-4-16-2-36-1h-202l-21 1-27 4-24 6-22 8-25 12-21 13-16 12-14 12-18 18-11 14-9 12-13 21-12 25-8 22-6 24-3 17-2 22v22l3 28 5 24 6 20v3l-3 1h-545l-13-1-15-5-11-7-13-13-8-14-4-12v-326l8-49 7-29 7-23 10-26 8-18 8-16 9-17 14-22 14-20 14-17 9-11 8-8 7-8 11-11 8-7 10-9 14-11 18-13 23-15 27-15 21-10 28-11 28-9 30-7 30-5 20-2z" fill="#1E2742"/>
<path transform="translate(733)" d="m0 0h69l40 6 29 6 25 7 21 7 29 12 26 13 27 16 20 14 13 10 11 9 10 9 8 7 23 23 7 8 13 16 12 16 12 18 9 15 10 18 13 27 9 23 9 27 8 32 5 30 3 29v58l-4 36-5 26-7 28-11 33-11 26-14 28-15 25-11 16-9 12-13 16-8 10h-2l-2 4-28 28-11 9-12 10-19 14-20 13-21 12-17 9-30 13-25 9-29 8-29 6-29 4-25 2h-41l-33-3-30-5-30-7-36-12-24-10-25-12-23-13-18-12-14-10-14-11-15-13-8-7-25-25-9-11-12-14-13-18-10-15-9-15-10-18-12-25-12-31-8-26-7-30-5-31-2-19-1-19v-32l2-26 4-29 6-29 7-25 8-24 10-24 12-25 12-21 11-17 12-17 11-14 12-14 9-10 5-6 8-7 13-13 11-9 12-10 19-14 20-13 23-13 16-8 27-12 19-7 30-9 38-8z" fill="#1E2742"/>
<path transform="translate(1487,1365)" d="m0 0h12l14 2 15 5 14 8 13 11 11 14 15 25 13 22 192 320 11 18 1 1 172 1 14 2 14 5 11 6 9 7 4 3v2h2l8 10 6 10 6 13 4 14v26l-5 17-8 16-10 13-7 7-14 9-11 5-14 4-6 1-28 1h-50l-158-1-16-4-12-5-12-8-12-11-10-14-174-290-3 3-185 370-8 12-9 10-10 8-10 6-15 6-13 3h-22l-18-5-16-8-11-8-10-10-12-17-29-44-29-43-29-44-29-43-22-33-168-1-20-2-17-6-13-8-10-9-7-7-9-14-6-15-3-14v-21l3-14 5-13 6-10 7-9 5-6 12-9 12-7 15-5 16-2h219l18 2 15 5 13 7 11 9 7 7 13 18 10 16 29 43 29 44 11 16 3 3 190-380 7-11 9-10 7-7 16-10 13-5z" fill="#1E2742"/>
</svg>
